<svg xmlns="http://www.w3.org/2000/svg" xmlns:xlink="http://www.w3.org/1999/xlink" contentStyleType="text/css" height="817px" preserveAspectRatio="none" style="width:983px;height:817px;background:#FFFFFF;" version="1.1" viewBox="0 0 983 817" width="983px" zoomAndPan="magnify"><defs/><g><!--cluster src--><g id="cluster_src"><path d="M8.5,6 L33.0361,6 A3.75,3.75 0 0 1 35.5361,8.5 L42.5361,28.2969 L973.5,28.2969 A2.5,2.5 0 0 1 976,30.7969 L976,807.5 A2.5,2.5 0 0 1 973.5,810 L8.5,810 A2.5,2.5 0 0 1 6,807.5 L6,8.5 A2.5,2.5 0 0 1 8.5,6 " fill="none" style="stroke:#000000;stroke-width:1.5;"/><line style="stroke:#000000;stroke-width:1.5;" x1="6" x2="42.5361" y1="28.2969" y2="28.2969"/><text fill="#000000" font-family="sans-serif" font-size="14" font-weight="bold" lengthAdjust="spacing" textLength="23.5361" x="10" y="20.9951">src</text></g><!--cluster models--><g id="cluster_models"><path d="M337.5,582 L395.3545,582 A3.75,3.75 0 0 1 397.8545,584.5 L404.8545,604.2969 L940.5,604.2969 A2.5,2.5 0 0 1 943,606.7969 L943,775.5 A2.5,2.5 0 0 1 940.5,778 L337.5,778 A2.5,2.5 0 0 1 335,775.5 L335,584.5 A2.5,2.5 0 0 1 337.5,582 " fill="none" style="stroke:#000000;stroke-width:1.5;"/><line style="stroke:#000000;stroke-width:1.5;" x1="335" x2="404.8545" y1="604.2969" y2="604.2969"/><text fill="#000000" font-family="sans-serif" font-size="14" font-weight="bold" lengthAdjust="spacing" textLength="56.8545" x="339" y="596.9951">models</text></g><!--cluster controllers--><g id="cluster_controllers"><path d="M371.5,361 L457.9287,361 A3.75,3.75 0 0 1 460.4287,363.5 L467.4287,383.2969 L949.5,383.2969 A2.5,2.5 0 0 1 952,385.7969 L952,522.5 A2.5,2.5 0 0 1 949.5,525 L371.5,525 A2.5,2.5 0 0 1 369,522.5 L369,363.5 A2.5,2.5 0 0 1 371.5,361 " fill="none" style="stroke:#000000;stroke-width:1.5;"/><line style="stroke:#000000;stroke-width:1.5;" x1="369" x2="467.4287" y1="383.2969" y2="383.2969"/><text fill="#000000" font-family="sans-serif" font-size="14" font-weight="bold" lengthAdjust="spacing" textLength="85.4287" x="373" y="375.9951">controllers</text></g><!--cluster routes--><g id="cluster_routes"><path d="M162.5,213 L214.5098,213 A3.75,3.75 0 0 1 217.0098,215.5 L224.0098,235.2969 L949.5,235.2969 A2.5,2.5 0 0 1 952,237.7969 L952,325.5 A2.5,2.5 0 0 1 949.5,328 L162.5,328 A2.5,2.5 0 0 1 160,325.5 L160,215.5 A2.5,2.5 0 0 1 162.5,213 " fill="none" style="stroke:#000000;stroke-width:1.5;"/><line style="stroke:#000000;stroke-width:1.5;" x1="160" x2="224.0098" y1="235.2969" y2="235.2969"/><text fill="#000000" font-family="sans-serif" font-size="14" font-weight="bold" lengthAdjust="spacing" textLength="51.0098" x="164" y="227.9951">routes</text></g><!--cluster views--><g id="cluster_views"><path d="M456.5,57 L502.1865,57 A3.75,3.75 0 0 1 504.6865,59.5 L511.6865,79.2969 L732.5,79.2969 A2.5,2.5 0 0 1 735,81.7969 L735,153.5 A2.5,2.5 0 0 1 732.5,156 L456.5,156 A2.5,2.5 0 0 1 454,153.5 L454,59.5 A2.5,2.5 0 0 1 456.5,57 " fill="none" style="stroke:#000000;stroke-width:1.5;"/><line style="stroke:#000000;stroke-width:1.5;" x1="454" x2="511.6865" y1="79.2969" y2="79.2969"/><text fill="#000000" font-family="sans-serif" font-size="14" font-weight="bold" lengthAdjust="spacing" textLength="44.6865" x="458" y="71.9951">views</text></g><!--cluster middleware--><g id="cluster_middleware"><path d="M188.5,49 L282.0039,49 A3.75,3.75 0 0 1 284.5039,51.5 L291.5039,71.2969 L427.5,71.2969 A2.5,2.5 0 0 1 430,73.7969 L430,161.5 A2.5,2.5 0 0 1 427.5,164 L188.5,164 A2.5,2.5 0 0 1 186,161.5 L186,51.5 A2.5,2.5 0 0 1 188.5,49 " fill="none" style="stroke:#000000;stroke-width:1.5;"/><line style="stroke:#000000;stroke-width:1.5;" x1="186" x2="291.5039" y1="71.2969" y2="71.2969"/><text fill="#000000" font-family="sans-serif" font-size="14" font-weight="bold" lengthAdjust="spacing" textLength="92.5039" x="190" y="63.9951">middleware</text></g><!--cluster config--><g id="cluster_config"><path d="M32.5,393.5 L82.2949,393.5 A3.75,3.75 0 0 1 84.7949,396 L91.7949,415.7969 L342.5,415.7969 A2.5,2.5 0 0 1 345,418.2969 L345,490 A2.5,2.5 0 0 1 342.5,492.5 L32.5,492.5 A2.5,2.5 0 0 1 30,490 L30,396 A2.5,2.5 0 0 1 32.5,393.5 " fill="none" style="stroke:#000000;stroke-width:1.5;"/><line style="stroke:#000000;stroke-width:1.5;" x1="30" x2="91.7949" y1="415.7969" y2="415.7969"/><text fill="#000000" font-family="sans-serif" font-size="14" font-weight="bold" lengthAdjust="spacing" textLength="48.7949" x="34" y="408.4951">config</text></g><!--class StudentModel--><g id="elem_StudentModel"><rect codeLine="4" fill="#F1F1F1" height="129.4844" id="StudentModel" rx="2.5" ry="2.5" style="stroke:#181818;stroke-width:0.5;" width="155.2676" x="378.5" y="625"/><ellipse cx="405.2549" cy="641" fill="#ADD1B2" rx="11" ry="11" style="stroke:#181818;stroke-width:1;"/><path d="M408.2237,646.6406 Q407.6456,646.9375 407.0049,647.0781 Q406.3643,647.2344 405.6612,647.2344 Q403.1612,647.2344 401.8331,645.5938 Q400.5206,643.9375 400.5206,640.8125 Q400.5206,637.6875 401.8331,636.0313 Q403.1612,634.375 405.6612,634.375 Q406.3643,634.375 407.0049,634.5313 Q407.6612,634.6875 408.2237,634.9844 L408.2237,637.7031 Q407.5987,637.125 407.0049,636.8594 Q406.4112,636.5781 405.7862,636.5781 Q404.4424,636.5781 403.7549,637.6563 Q403.0674,638.7188 403.0674,640.8125 Q403.0674,642.9063 403.7549,643.9844 Q404.4424,645.0469 405.7862,645.0469 Q406.4112,645.0469 407.0049,644.7813 Q407.5987,644.5 408.2237,643.9219 L408.2237,646.6406 Z " fill="#000000"/><text fill="#000000" font-family="sans-serif" font-size="14" lengthAdjust="spacing" textLength="97.1455" x="421.8671" y="645.8467">StudentModel</text><line style="stroke:#181818;stroke-width:0.5;" x1="379.5" x2="532.7676" y1="657" y2="657"/><rect fill="none" height="6" style="stroke:#C82930;stroke-width:1;" width="6" x="386.5" y="667.6484"/><text fill="#000000" font-family="sans-serif" font-size="14" lengthAdjust="spacing" textLength="80.5547" x="398.5" y="673.9951">id: ObjectId</text><rect fill="none" height="6" style="stroke:#C82930;stroke-width:1;" width="6" x="386.5" y="683.9453"/><text fill="#000000" font-family="sans-serif" font-size="14" lengthAdjust="spacing" textLength="105.2803" x="398.5" y="690.292">nombre: String</text><rect fill="none" height="6" style="stroke:#C82930;stroke-width:1;" width="6" x="386.5" y="700.2422"/><text fill="#000000" font-family="sans-serif" font-size="14" lengthAdjust="spacing" textLength="95.9014" x="398.5" y="706.5889">correo: String</text><rect fill="none" height="6" style="stroke:#C82930;stroke-width:1;" width="6" x="386.5" y="716.5391"/><text fill="#000000" font-family="sans-serif" font-size="14" lengthAdjust="spacing" textLength="129.2676" x="398.5" y="722.8857">contrase&#241;a: String</text><rect fill="none" height="6" style="stroke:#C82930;stroke-width:1;" width="6" x="386.5" y="732.8359"/><text fill="#000000" font-family="sans-serif" font-size="14" lengthAdjust="spacing" textLength="117.3389" x="398.5" y="739.1826">matricula: String</text><line style="stroke:#181818;stroke-width:0.5;" x1="379.5" x2="532.7676" y1="746.4844" y2="746.4844"/></g><!--class MenuModel--><g id="elem_MenuModel"><rect codeLine="12" fill="#F1F1F1" height="113.1875" id="MenuModel" rx="2.5" ry="2.5" style="stroke:#181818;stroke-width:0.5;" width="156.9971" x="568.5" y="633"/><ellipse cx="603.536" cy="649" fill="#ADD1B2" rx="11" ry="11" style="stroke:#181818;stroke-width:1;"/><path d="M606.5047,654.6406 Q605.9266,654.9375 605.286,655.0781 Q604.6454,655.2344 603.9422,655.2344 Q601.4422,655.2344 600.1141,653.5938 Q598.8016,651.9375 598.8016,648.8125 Q598.8016,645.6875 600.1141,644.0313 Q601.4422,642.375 603.9422,642.375 Q604.6454,642.375 605.286,642.5313 Q605.9422,642.6875 606.5047,642.9844 L606.5047,645.7031 Q605.8797,645.125 605.286,644.8594 Q604.6922,644.5781 604.0672,644.5781 Q602.7235,644.5781 602.036,645.6563 Q601.3485,646.7188 601.3485,648.8125 Q601.3485,650.9063 602.036,651.9844 Q602.7235,653.0469 604.0672,653.0469 Q604.6922,653.0469 605.286,652.7813 Q605.8797,652.5 606.5047,651.9219 L606.5047,654.6406 Z " fill="#000000"/><text fill="#000000" font-family="sans-serif" font-size="14" lengthAdjust="spacing" textLength="80.4727" x="621.9884" y="653.8467">MenuModel</text><line style="stroke:#181818;stroke-width:0.5;" x1="569.5" x2="724.4971" y1="665" y2="665"/><rect fill="none" height="6" style="stroke:#C82930;stroke-width:1;" width="6" x="576.5" y="675.6484"/><text fill="#000000" font-family="sans-serif" font-size="14" lengthAdjust="spacing" textLength="80.5547" x="588.5" y="681.9951">id: ObjectId</text><rect fill="none" height="6" style="stroke:#C82930;stroke-width:1;" width="6" x="576.5" y="691.9453"/><text fill="#000000" font-family="sans-serif" font-size="14" lengthAdjust="spacing" textLength="81.3203" x="588.5" y="698.292">fecha: Date</text><rect fill="none" height="6" style="stroke:#C82930;stroke-width:1;" width="6" x="576.5" y="708.2422"/><text fill="#000000" font-family="sans-serif" font-size="14" lengthAdjust="spacing" textLength="130.9971" x="588.5" y="714.5889">descripcion: String</text><rect fill="none" height="6" style="stroke:#C82930;stroke-width:1;" width="6" x="576.5" y="724.5391"/><text fill="#000000" font-family="sans-serif" font-size="14" lengthAdjust="spacing" textLength="102.1836" x="588.5" y="730.8857">precio: Double</text><line style="stroke:#181818;stroke-width:0.5;" x1="569.5" x2="724.4971" y1="738.1875" y2="738.1875"/></g><!--class ReservationModel--><g id="elem_ReservationModel"><rect codeLine="19" fill="#F1F1F1" height="80.5938" id="ReservationModel" rx="2.5" ry="2.5" style="stroke:#181818;stroke-width:0.5;" width="157.7197" x="761" y="649"/><ellipse cx="776" cy="665" fill="#ADD1B2" rx="11" ry="11" style="stroke:#181818;stroke-width:1;"/><path d="M778.9688,670.6406 Q778.3906,670.9375 777.75,671.0781 Q777.1094,671.2344 776.4063,671.2344 Q773.9063,671.2344 772.5781,669.5938 Q771.2656,667.9375 771.2656,664.8125 Q771.2656,661.6875 772.5781,660.0313 Q773.9063,658.375 776.4063,658.375 Q777.1094,658.375 777.75,658.5313 Q778.4063,658.6875 778.9688,658.9844 L778.9688,661.7031 Q778.3438,661.125 777.75,660.8594 Q777.1563,660.5781 776.5313,660.5781 Q775.1875,660.5781 774.5,661.6563 Q773.8125,662.7188 773.8125,664.8125 Q773.8125,666.9063 774.5,667.9844 Q775.1875,669.0469 776.5313,669.0469 Q777.1563,669.0469 777.75,668.7813 Q778.3438,668.5 778.9688,667.9219 L778.9688,670.6406 Z " fill="#000000"/><text fill="#000000" font-family="sans-serif" font-size="14" lengthAdjust="spacing" textLength="125.7197" x="790" y="669.8467">ReservationModel</text><line style="stroke:#181818;stroke-width:0.5;" x1="762" x2="917.7197" y1="681" y2="681"/><rect fill="none" height="6" style="stroke:#C82930;stroke-width:1;" width="6" x="769" y="691.6484"/><text fill="#000000" font-family="sans-serif" font-size="14" lengthAdjust="spacing" textLength="80.5547" x="781" y="697.9951">id: ObjectId</text><rect fill="none" height="6" style="stroke:#C82930;stroke-width:1;" width="6" x="769" y="707.9453"/><text fill="#000000" font-family="sans-serif" font-size="14" lengthAdjust="spacing" textLength="98.376" x="781" y="714.292">estado: String</text><line style="stroke:#181818;stroke-width:0.5;" x1="762" x2="917.7197" y1="721.5938" y2="721.5938"/></g><!--class StudentController--><g id="elem_StudentController"><rect codeLine="26" fill="#F1F1F1" height="113.1875" id="StudentController" rx="2.5" ry="2.5" style="stroke:#181818;stroke-width:0.5;" width="156.2842" x="385" y="396"/><ellipse cx="400" cy="412" fill="#ADD1B2" rx="11" ry="11" style="stroke:#181818;stroke-width:1;"/><path d="M402.9688,417.6406 Q402.3906,417.9375 401.75,418.0781 Q401.1094,418.2344 400.4063,418.2344 Q397.9063,418.2344 396.5781,416.5938 Q395.2656,414.9375 395.2656,411.8125 Q395.2656,408.6875 396.5781,407.0313 Q397.9063,405.375 400.4063,405.375 Q401.1094,405.375 401.75,405.5313 Q402.4063,405.6875 402.9688,405.9844 L402.9688,408.7031 Q402.3438,408.125 401.75,407.8594 Q401.1563,407.5781 400.5313,407.5781 Q399.1875,407.5781 398.5,408.6563 Q397.8125,409.7188 397.8125,411.8125 Q397.8125,413.9063 398.5,414.9844 Q399.1875,416.0469 400.5313,416.0469 Q401.1563,416.0469 401.75,415.7813 Q402.3438,415.5 402.9688,414.9219 L402.9688,417.6406 Z " fill="#000000"/><text fill="#000000" font-family="sans-serif" font-size="14" lengthAdjust="spacing" textLength="124.2842" x="414" y="416.8467">StudentController</text><line style="stroke:#181818;stroke-width:0.5;" x1="386" x2="540.2842" y1="428" y2="428"/><line style="stroke:#181818;stroke-width:0.5;" x1="386" x2="540.2842" y1="436" y2="436"/><ellipse cx="396" cy="449.6484" fill="#84BE84" rx="3" ry="3" style="stroke:#038048;stroke-width:1;"/><text fill="#000000" font-family="sans-serif" font-size="14" lengthAdjust="spacing" textLength="110.7832" x="405" y="452.9951">createStudent()</text><ellipse cx="396" cy="465.9453" fill="#84BE84" rx="3" ry="3" style="stroke:#038048;stroke-width:1;"/><text fill="#000000" font-family="sans-serif" font-size="14" lengthAdjust="spacing" textLength="115.3633" x="405" y="469.292">updateStudent()</text><ellipse cx="396" cy="482.2422" fill="#84BE84" rx="3" ry="3" style="stroke:#038048;stroke-width:1;"/><text fill="#000000" font-family="sans-serif" font-size="14" lengthAdjust="spacing" textLength="110.1406" x="405" y="485.5889">deleteStudent()</text><ellipse cx="396" cy="498.5391" fill="#84BE84" rx="3" ry="3" style="stroke:#038048;stroke-width:1;"/><text fill="#000000" font-family="sans-serif" font-size="14" lengthAdjust="spacing" textLength="45.0283" x="405" y="501.8857">login()</text></g><!--class MenuController--><g id="elem_MenuController"><rect codeLine="33" fill="#F1F1F1" height="113.1875" id="MenuController" rx="2.5" ry="2.5" style="stroke:#181818;stroke-width:0.5;" width="139.6113" x="576" y="396"/><ellipse cx="591" cy="412" fill="#ADD1B2" rx="11" ry="11" style="stroke:#181818;stroke-width:1;"/><path d="M593.9688,417.6406 Q593.3906,417.9375 592.75,418.0781 Q592.1094,418.2344 591.4063,418.2344 Q588.9063,418.2344 587.5781,416.5938 Q586.2656,414.9375 586.2656,411.8125 Q586.2656,408.6875 587.5781,407.0313 Q588.9063,405.375 591.4063,405.375 Q592.1094,405.375 592.75,405.5313 Q593.4063,405.6875 593.9688,405.9844 L593.9688,408.7031 Q593.3438,408.125 592.75,407.8594 Q592.1563,407.5781 591.5313,407.5781 Q590.1875,407.5781 589.5,408.6563 Q588.8125,409.7188 588.8125,411.8125 Q588.8125,413.9063 589.5,414.9844 Q590.1875,416.0469 591.5313,416.0469 Q592.1563,416.0469 592.75,415.7813 Q593.3438,415.5 593.9688,414.9219 L593.9688,417.6406 Z " fill="#000000"/><text fill="#000000" font-family="sans-serif" font-size="14" lengthAdjust="spacing" textLength="107.6113" x="605" y="416.8467">MenuController</text><line style="stroke:#181818;stroke-width:0.5;" x1="577" x2="714.6113" y1="428" y2="428"/><line style="stroke:#181818;stroke-width:0.5;" x1="577" x2="714.6113" y1="436" y2="436"/><ellipse cx="587" cy="449.6484" fill="#84BE84" rx="3" ry="3" style="stroke:#038048;stroke-width:1;"/><text fill="#000000" font-family="sans-serif" font-size="14" lengthAdjust="spacing" textLength="94.1104" x="596" y="452.9951">createMenu()</text><ellipse cx="587" cy="465.9453" fill="#84BE84" rx="3" ry="3" style="stroke:#038048;stroke-width:1;"/><text fill="#000000" font-family="sans-serif" font-size="14" lengthAdjust="spacing" textLength="98.6904" x="596" y="469.292">updateMenu()</text><ellipse cx="587" cy="482.2422" fill="#84BE84" rx="3" ry="3" style="stroke:#038048;stroke-width:1;"/><text fill="#000000" font-family="sans-serif" font-size="14" lengthAdjust="spacing" textLength="93.4678" x="596" y="485.5889">deleteMenu()</text><ellipse cx="587" cy="498.5391" fill="#84BE84" rx="3" ry="3" style="stroke:#038048;stroke-width:1;"/><text fill="#000000" font-family="sans-serif" font-size="14" lengthAdjust="spacing" textLength="72.3516" x="596" y="501.8857">getMenu()</text></g><!--class ReservationController--><g id="elem_ReservationController"><rect codeLine="40" fill="#F1F1F1" height="96.8906" id="ReservationController" rx="2.5" ry="2.5" style="stroke:#181818;stroke-width:0.5;" width="184.8584" x="751.5" y="404"/><ellipse cx="766.5" cy="420" fill="#ADD1B2" rx="11" ry="11" style="stroke:#181818;stroke-width:1;"/><path d="M769.4688,425.6406 Q768.8906,425.9375 768.25,426.0781 Q767.6094,426.2344 766.9063,426.2344 Q764.4063,426.2344 763.0781,424.5938 Q761.7656,422.9375 761.7656,419.8125 Q761.7656,416.6875 763.0781,415.0313 Q764.4063,413.375 766.9063,413.375 Q767.6094,413.375 768.25,413.5313 Q768.9063,413.6875 769.4688,413.9844 L769.4688,416.7031 Q768.8438,416.125 768.25,415.8594 Q767.6563,415.5781 767.0313,415.5781 Q765.6875,415.5781 765,416.6563 Q764.3125,417.7188 764.3125,419.8125 Q764.3125,421.9063 765,422.9844 Q765.6875,424.0469 767.0313,424.0469 Q767.6563,424.0469 768.25,423.7813 Q768.8438,423.5 769.4688,422.9219 L769.4688,425.6406 Z " fill="#000000"/><text fill="#000000" font-family="sans-serif" font-size="14" lengthAdjust="spacing" textLength="152.8584" x="780.5" y="424.8467">ReservationController</text><line style="stroke:#181818;stroke-width:0.5;" x1="752.5" x2="935.3584" y1="436" y2="436"/><line style="stroke:#181818;stroke-width:0.5;" x1="752.5" x2="935.3584" y1="444" y2="444"/><ellipse cx="762.5" cy="457.6484" fill="#84BE84" rx="3" ry="3" style="stroke:#038048;stroke-width:1;"/><text fill="#000000" font-family="sans-serif" font-size="14" lengthAdjust="spacing" textLength="139.3574" x="771.5" y="460.9951">createReservation()</text><ellipse cx="762.5" cy="473.9453" fill="#84BE84" rx="3" ry="3" style="stroke:#038048;stroke-width:1;"/><text fill="#000000" font-family="sans-serif" font-size="14" lengthAdjust="spacing" textLength="139.959" x="771.5" y="477.292">cancelReservation()</text><ellipse cx="762.5" cy="490.2422" fill="#84BE84" rx="3" ry="3" style="stroke:#038048;stroke-width:1;"/><text fill="#000000" font-family="sans-serif" font-size="14" lengthAdjust="spacing" textLength="124.8926" x="771.5" y="493.5889">getReservations()</text></g><!--class StudentRoutes--><g id="elem_StudentRoutes"><rect codeLine="48" fill="#F1F1F1" height="64.2969" id="StudentRoutes" rx="2.5" ry="2.5" style="stroke:#181818;stroke-width:0.5;" width="230.2783" x="176" y="248"/><ellipse cx="235.0522" cy="264" fill="#ADD1B2" rx="11" ry="11" style="stroke:#181818;stroke-width:1;"/><path d="M238.021,269.6406 Q237.4429,269.9375 236.8022,270.0781 Q236.1616,270.2344 235.4585,270.2344 Q232.9585,270.2344 231.6304,268.5938 Q230.3179,266.9375 230.3179,263.8125 Q230.3179,260.6875 231.6304,259.0313 Q232.9585,257.375 235.4585,257.375 Q236.1616,257.375 236.8022,257.5313 Q237.4585,257.6875 238.021,257.9844 L238.021,260.7031 Q237.396,260.125 236.8022,259.8594 Q236.2085,259.5781 235.5835,259.5781 Q234.2397,259.5781 233.5522,260.6563 Q232.8647,261.7188 232.8647,263.8125 Q232.8647,265.9063 233.5522,266.9844 Q234.2397,268.0469 235.5835,268.0469 Q236.2085,268.0469 236.8022,267.7813 Q237.396,267.5 238.021,266.9219 L238.021,269.6406 Z " fill="#000000"/><text fill="#000000" font-family="sans-serif" font-size="14" lengthAdjust="spacing" textLength="103.6738" x="255.5522" y="268.8467">StudentRoutes</text><line style="stroke:#181818;stroke-width:0.5;" x1="177" x2="405.2783" y1="280" y2="280"/><line style="stroke:#181818;stroke-width:0.5;" x1="177" x2="405.2783" y1="288" y2="288"/><ellipse cx="187" cy="301.6484" fill="#84BE84" rx="3" ry="3" style="stroke:#038048;stroke-width:1;"/><text fill="#000000" font-family="sans-serif" font-size="14" lengthAdjust="spacing" textLength="204.2783" x="196" y="304.9951">registerRoutes(app: Express)</text></g><!--class MenuRoutes--><g id="elem_MenuRoutes"><rect codeLine="52" fill="#F1F1F1" height="64.2969" id="MenuRoutes" rx="2.5" ry="2.5" style="stroke:#181818;stroke-width:0.5;" width="230.2783" x="441" y="248"/><ellipse cx="508.3887" cy="264" fill="#ADD1B2" rx="11" ry="11" style="stroke:#181818;stroke-width:1;"/><path d="M511.3574,269.6406 Q510.7793,269.9375 510.1387,270.0781 Q509.498,270.2344 508.7949,270.2344 Q506.2949,270.2344 504.9668,268.5938 Q503.6543,266.9375 503.6543,263.8125 Q503.6543,260.6875 504.9668,259.0313 Q506.2949,257.375 508.7949,257.375 Q509.498,257.375 510.1387,257.5313 Q510.7949,257.6875 511.3574,257.9844 L511.3574,260.7031 Q510.7324,260.125 510.1387,259.8594 Q509.5449,259.5781 508.9199,259.5781 Q507.5762,259.5781 506.8887,260.6563 Q506.2012,261.7188 506.2012,263.8125 Q506.2012,265.9063 506.8887,266.9844 Q507.5762,268.0469 508.9199,268.0469 Q509.5449,268.0469 510.1387,267.7813 Q510.7324,267.5 511.3574,266.9219 L511.3574,269.6406 Z " fill="#000000"/><text fill="#000000" font-family="sans-serif" font-size="14" lengthAdjust="spacing" textLength="87.001" x="528.8887" y="268.8467">MenuRoutes</text><line style="stroke:#181818;stroke-width:0.5;" x1="442" x2="670.2783" y1="280" y2="280"/><line style="stroke:#181818;stroke-width:0.5;" x1="442" x2="670.2783" y1="288" y2="288"/><ellipse cx="452" cy="301.6484" fill="#84BE84" rx="3" ry="3" style="stroke:#038048;stroke-width:1;"/><text fill="#000000" font-family="sans-serif" font-size="14" lengthAdjust="spacing" textLength="204.2783" x="461" y="304.9951">registerRoutes(app: Express)</text></g><!--class ReservationRoutes--><g id="elem_ReservationRoutes"><rect codeLine="56" fill="#F1F1F1" height="64.2969" id="ReservationRoutes" rx="2.5" ry="2.5" style="stroke:#181818;stroke-width:0.5;" width="230.2783" x="706" y="248"/><ellipse cx="750.7651" cy="264" fill="#ADD1B2" rx="11" ry="11" style="stroke:#181818;stroke-width:1;"/><path d="M753.7339,269.6406 Q753.1558,269.9375 752.5151,270.0781 Q751.8745,270.2344 751.1714,270.2344 Q748.6714,270.2344 747.3433,268.5938 Q746.0308,266.9375 746.0308,263.8125 Q746.0308,260.6875 747.3433,259.0313 Q748.6714,257.375 751.1714,257.375 Q751.8745,257.375 752.5151,257.5313 Q753.1714,257.6875 753.7339,257.9844 L753.7339,260.7031 Q753.1089,260.125 752.5151,259.8594 Q751.9214,259.5781 751.2964,259.5781 Q749.9526,259.5781 749.2651,260.6563 Q748.5776,261.7188 748.5776,263.8125 Q748.5776,265.9063 749.2651,266.9844 Q749.9526,268.0469 751.2964,268.0469 Q751.9214,268.0469 752.5151,267.7813 Q753.1089,267.5 753.7339,266.9219 L753.7339,269.6406 Z " fill="#000000"/><text fill="#000000" font-family="sans-serif" font-size="14" lengthAdjust="spacing" textLength="132.248" x="771.2651" y="268.8467">ReservationRoutes</text><line style="stroke:#181818;stroke-width:0.5;" x1="707" x2="935.2783" y1="280" y2="280"/><line style="stroke:#181818;stroke-width:0.5;" x1="707" x2="935.2783" y1="288" y2="288"/><ellipse cx="717" cy="301.6484" fill="#84BE84" rx="3" ry="3" style="stroke:#038048;stroke-width:1;"/><text fill="#000000" font-family="sans-serif" font-size="14" lengthAdjust="spacing" textLength="204.2783" x="726" y="304.9951">registerRoutes(app: Express)</text></g><!--class LoginPage--><g id="elem_LoginPage"><rect codeLine="62" fill="#F1F1F1" height="48" id="LoginPage" rx="2.5" ry="2.5" style="stroke:#181818;stroke-width:0.5;" width="104.5361" x="470.5" y="92"/><ellipse cx="485.5" cy="108" fill="#ADD1B2" rx="11" ry="11" style="stroke:#181818;stroke-width:1;"/><path d="M488.4688,113.6406 Q487.8906,113.9375 487.25,114.0781 Q486.6094,114.2344 485.9063,114.2344 Q483.4063,114.2344 482.0781,112.5938 Q480.7656,110.9375 480.7656,107.8125 Q480.7656,104.6875 482.0781,103.0313 Q483.4063,101.375 485.9063,101.375 Q486.6094,101.375 487.25,101.5313 Q487.9063,101.6875 488.4688,101.9844 L488.4688,104.7031 Q487.8438,104.125 487.25,103.8594 Q486.6563,103.5781 486.0313,103.5781 Q484.6875,103.5781 484,104.6563 Q483.3125,105.7188 483.3125,107.8125 Q483.3125,109.9063 484,110.9844 Q484.6875,112.0469 486.0313,112.0469 Q486.6563,112.0469 487.25,111.7813 Q487.8438,111.5 488.4688,110.9219 L488.4688,113.6406 Z " fill="#000000"/><text fill="#000000" font-family="sans-serif" font-size="14" lengthAdjust="spacing" textLength="72.5361" x="499.5" y="112.8467">LoginPage</text><line style="stroke:#181818;stroke-width:0.5;" x1="471.5" x2="574.0361" y1="124" y2="124"/><line style="stroke:#181818;stroke-width:0.5;" x1="471.5" x2="574.0361" y1="132" y2="132"/></g><!--class Dashboard--><g id="elem_Dashboard"><rect codeLine="63" fill="#F1F1F1" height="48" id="Dashboard" rx="2.5" ry="2.5" style="stroke:#181818;stroke-width:0.5;" width="108.2002" x="611" y="92"/><ellipse cx="626" cy="108" fill="#ADD1B2" rx="11" ry="11" style="stroke:#181818;stroke-width:1;"/><path d="M628.9688,113.6406 Q628.3906,113.9375 627.75,114.0781 Q627.1094,114.2344 626.4063,114.2344 Q623.9063,114.2344 622.5781,112.5938 Q621.2656,110.9375 621.2656,107.8125 Q621.2656,104.6875 622.5781,103.0313 Q623.9063,101.375 626.4063,101.375 Q627.1094,101.375 627.75,101.5313 Q628.4063,101.6875 628.9688,101.9844 L628.9688,104.7031 Q628.3438,104.125 627.75,103.8594 Q627.1563,103.5781 626.5313,103.5781 Q625.1875,103.5781 624.5,104.6563 Q623.8125,105.7188 623.8125,107.8125 Q623.8125,109.9063 624.5,110.9844 Q625.1875,112.0469 626.5313,112.0469 Q627.1563,112.0469 627.75,111.7813 Q628.3438,111.5 628.9688,110.9219 L628.9688,113.6406 Z " fill="#000000"/><text fill="#000000" font-family="sans-serif" font-size="14" lengthAdjust="spacing" textLength="76.2002" x="640" y="112.8467">Dashboard</text><line style="stroke:#181818;stroke-width:0.5;" x1="612" x2="718.2002" y1="124" y2="124"/><line style="stroke:#181818;stroke-width:0.5;" x1="612" x2="718.2002" y1="132" y2="132"/></g><!--class Auth--><g id="elem_Auth"><rect codeLine="67" fill="#F1F1F1" height="64.2969" id="Auth" rx="2.5" ry="2.5" style="stroke:#181818;stroke-width:0.5;" width="213.373" x="201.5" y="84"/><ellipse cx="287.5303" cy="100" fill="#ADD1B2" rx="11" ry="11" style="stroke:#181818;stroke-width:1;"/><path d="M290.499,105.6406 Q289.9209,105.9375 289.2803,106.0781 Q288.6396,106.2344 287.9365,106.2344 Q285.4365,106.2344 284.1084,104.5938 Q282.7959,102.9375 282.7959,99.8125 Q282.7959,96.6875 284.1084,95.0313 Q285.4365,93.375 287.9365,93.375 Q288.6396,93.375 289.2803,93.5313 Q289.9365,93.6875 290.499,93.9844 L290.499,96.7031 Q289.874,96.125 289.2803,95.8594 Q288.6865,95.5781 288.0615,95.5781 Q286.7178,95.5781 286.0303,96.6563 Q285.3428,97.7188 285.3428,99.8125 Q285.3428,101.9063 286.0303,102.9844 Q286.7178,104.0469 288.0615,104.0469 Q288.6865,104.0469 289.2803,103.7813 Q289.874,103.5 290.499,102.9219 L290.499,105.6406 Z " fill="#000000"/><text fill="#000000" font-family="sans-serif" font-size="14" lengthAdjust="spacing" textLength="32.8125" x="308.0303" y="104.8467">Auth</text><line style="stroke:#181818;stroke-width:0.5;" x1="202.5" x2="413.873" y1="116" y2="116"/><line style="stroke:#181818;stroke-width:0.5;" x1="202.5" x2="413.873" y1="124" y2="124"/><ellipse cx="212.5" cy="137.6484" fill="#84BE84" rx="3" ry="3" style="stroke:#038048;stroke-width:1;"/><text fill="#000000" font-family="sans-serif" font-size="14" lengthAdjust="spacing" textLength="187.373" x="221.5" y="140.9951">verifyToken(req, res, next)</text></g><!--class DatabaseConfig--><g id="elem_DatabaseConfig"><rect codeLine="73" fill="#F1F1F1" height="48" id="DatabaseConfig" rx="2.5" ry="2.5" style="stroke:#181818;stroke-width:0.5;" width="143.7197" x="185" y="428.5"/><ellipse cx="200" cy="444.5" fill="#ADD1B2" rx="11" ry="11" style="stroke:#181818;stroke-width:1;"/><path d="M202.9688,450.1406 Q202.3906,450.4375 201.75,450.5781 Q201.1094,450.7344 200.4063,450.7344 Q197.9063,450.7344 196.5781,449.0938 Q195.2656,447.4375 195.2656,444.3125 Q195.2656,441.1875 196.5781,439.5313 Q197.9063,437.875 200.4063,437.875 Q201.1094,437.875 201.75,438.0313 Q202.4063,438.1875 202.9688,438.4844 L202.9688,441.2031 Q202.3438,440.625 201.75,440.3594 Q201.1563,440.0781 200.5313,440.0781 Q199.1875,440.0781 198.5,441.1563 Q197.8125,442.2188 197.8125,444.3125 Q197.8125,446.4063 198.5,447.4844 Q199.1875,448.5469 200.5313,448.5469 Q201.1563,448.5469 201.75,448.2813 Q202.3438,448 202.9688,447.4219 L202.9688,450.1406 Z " fill="#000000"/><text fill="#000000" font-family="sans-serif" font-size="14" lengthAdjust="spacing" textLength="111.7197" x="214" y="449.3467">DatabaseConfig</text><line style="stroke:#181818;stroke-width:0.5;" x1="186" x2="327.7197" y1="460.5" y2="460.5"/><line style="stroke:#181818;stroke-width:0.5;" x1="186" x2="327.7197" y1="468.5" y2="468.5"/></g><!--class AppConfig--><g id="elem_AppConfig"><rect codeLine="74" fill="#F1F1F1" height="48" id="AppConfig" rx="2.5" ry="2.5" style="stroke:#181818;stroke-width:0.5;" width="104.2695" x="46" y="428.5"/><ellipse cx="61" cy="444.5" fill="#ADD1B2" rx="11" ry="11" style="stroke:#181818;stroke-width:1;"/><path d="M63.9688,450.1406 Q63.3906,450.4375 62.75,450.5781 Q62.1094,450.7344 61.4063,450.7344 Q58.9063,450.7344 57.5781,449.0938 Q56.2656,447.4375 56.2656,444.3125 Q56.2656,441.1875 57.5781,439.5313 Q58.9063,437.875 61.4063,437.875 Q62.1094,437.875 62.75,438.0313 Q63.4063,438.1875 63.9688,438.4844 L63.9688,441.2031 Q63.3438,440.625 62.75,440.3594 Q62.1563,440.0781 61.5313,440.0781 Q60.1875,440.0781 59.5,441.1563 Q58.8125,442.2188 58.8125,444.3125 Q58.8125,446.4063 59.5,447.4844 Q60.1875,448.5469 61.5313,448.5469 Q62.1563,448.5469 62.75,448.2813 Q63.3438,448 63.9688,447.4219 L63.9688,450.1406 Z " fill="#000000"/><text fill="#000000" font-family="sans-serif" font-size="14" lengthAdjust="spacing" textLength="72.2695" x="75" y="449.3467">AppConfig</text><line style="stroke:#181818;stroke-width:0.5;" x1="47" x2="149.2695" y1="460.5" y2="460.5"/><line style="stroke:#181818;stroke-width:0.5;" x1="47" x2="149.2695" y1="468.5" y2="468.5"/></g><!--link StudentRoutes to StudentController--><g id="link_StudentRoutes_StudentController"><path codeLine="78" d="M322.55,312.27 C346.11,335.63 374.6891,363.9557 402.6791,391.7057 " fill="none" id="StudentRoutes-to-StudentController" style="stroke:#181818;stroke-width:1;"/><polygon fill="#181818" points="406.94,395.93,403.3649,386.7529,403.3893,392.4097,397.7325,392.4341,406.94,395.93" style="stroke:#181818;stroke-width:1;"/></g><!--link MenuRoutes to MenuController--><g id="link_MenuRoutes_MenuController"><path codeLine="79" d="M572.51,312.27 C584.84,335.63 599.2188,362.874 613.8688,390.624 " fill="none" id="MenuRoutes-to-MenuController" style="stroke:#181818;stroke-width:1;"/><polygon fill="#181818" points="616.67,395.93,616.0056,386.1036,614.3357,391.5084,608.9309,389.8385,616.67,395.93" style="stroke:#181818;stroke-width:1;"/></g><!--link ReservationRoutes to ReservationController--><g id="link_ReservationRoutes_ReservationController"><path codeLine="80" d="M825.22,312.27 C828.67,337.84 832.7968,368.484 836.7468,397.724 " fill="none" id="ReservationRoutes-to-ReservationController" style="stroke:#181818;stroke-width:1;"/><polygon fill="#181818" points="837.55,403.67,840.3091,394.2155,836.8806,398.715,832.3811,395.2865,837.55,403.67" style="stroke:#181818;stroke-width:1;"/></g><!--link StudentController to StudentModel--><g id="link_StudentController_StudentModel"><path codeLine="82" d="M461.34,509.19 C460.31,543.94 459.1492,582.7727 458.0692,618.9127 " fill="none" id="StudentController-to-StudentModel" style="stroke:#181818;stroke-width:1;"/><polygon fill="#181818" points="457.89,624.91,462.157,616.0335,458.0394,619.9122,454.1606,615.7945,457.89,624.91" style="stroke:#181818;stroke-width:1;"/></g><!--link MenuController to MenuModel--><g id="link_MenuController_MenuModel"><path codeLine="83" d="M646.24,509.19 C646.4,546.52 646.5743,589.4701 646.7343,626.8001 " fill="none" id="MenuController-to-MenuModel" style="stroke:#181818;stroke-width:1;"/><polygon fill="#181818" points="646.76,632.8,650.7214,623.7829,646.7386,627.8,642.7215,623.8172,646.76,632.8" style="stroke:#181818;stroke-width:1;"/></g><!--link ReservationController to ReservationModel--><g id="link_ReservationController_ReservationModel"><path codeLine="84" d="M843.19,501.06 C842.45,544.51 841.4715,602.0309 840.7815,642.8209 " fill="none" id="ReservationController-to-ReservationModel" style="stroke:#181818;stroke-width:1;"/><polygon fill="#181818" points="840.68,648.82,844.8316,639.8889,840.7646,643.8207,836.8328,639.7536,840.68,648.82" style="stroke:#181818;stroke-width:1;"/></g><!--link LoginPage to StudentRoutes--><g id="link_LoginPage_StudentRoutes"><path codeLine="86" d="M489.76,140.21 C449.29,168.47 385.6994,212.875 340.6294,244.345 " fill="none" id="LoginPage-to-StudentRoutes" style="stroke:#181818;stroke-width:1;stroke-dasharray:7.0,7.0;"/><polygon fill="#181818" points="335.71,247.78,345.3791,245.9071,339.8095,244.9175,340.7992,239.3479,335.71,247.78" style="stroke:#181818;stroke-width:1;"/><text fill="#000000" font-family="sans-serif" font-size="13" lengthAdjust="spacing" textLength="29.7832" x="428" y="193.0669">uses</text></g><!--link Dashboard to ReservationRoutes--><g id="link_Dashboard_ReservationRoutes"><path codeLine="87" d="M687.35,140.21 C714.56,168.47 756.4685,211.9878 786.7685,243.4578 " fill="none" id="Dashboard-to-ReservationRoutes" style="stroke:#181818;stroke-width:1;stroke-dasharray:7.0,7.0;"/><polygon fill="#181818" points="790.93,247.78,787.5692,238.5223,787.4621,244.1781,781.8062,244.071,790.93,247.78" style="stroke:#181818;stroke-width:1;"/><text fill="#000000" font-family="sans-serif" font-size="13" lengthAdjust="spacing" textLength="29.7832" x="739" y="193.0669">uses</text></g><!--link Dashboard to MenuRoutes--><g id="link_Dashboard_MenuRoutes"><path codeLine="88" d="M649.38,140.21 C630.37,168.47 601.529,211.3316 580.359,242.8016 " fill="none" id="Dashboard-to-MenuRoutes" style="stroke:#181818;stroke-width:1;stroke-dasharray:7.0,7.0;"/><polygon fill="#181818" points="577.01,247.78,585.3524,242.5451,579.8008,243.6313,578.7145,238.0798,577.01,247.78" style="stroke:#181818;stroke-width:1;"/><text fill="#000000" font-family="sans-serif" font-size="13" lengthAdjust="spacing" textLength="29.7832" x="621" y="193.0669">uses</text></g><!--link Auth to StudentRoutes--><g id="link_Auth_StudentRoutes"><path codeLine="90" d="M304.72,148.24 C301.71,176.92 297.8946,213.2326 294.8946,241.8926 " fill="none" id="Auth-to-StudentRoutes" style="stroke:#181818;stroke-width:1;"/><polygon fill="#181818" points="294.27,247.86,299.1852,239.3253,294.7905,242.8872,291.2287,238.4925,294.27,247.86" style="stroke:#181818;stroke-width:1;"/></g><!--link Auth to MenuRoutes--><g id="link_Auth_MenuRoutes"><path codeLine="91" d="M340.74,148.09 C358.74,164.09 382.03,183.1 405,197 C412.84,201.74 415.77,200.98 424,205 C450.79,218.1 474.5688,231.1387 498.5288,244.9187 " fill="none" id="Auth-to-MenuRoutes" style="stroke:#181818;stroke-width:1;"/><polygon fill="#181818" points="503.73,247.91,497.9225,239.9556,499.3957,245.4172,493.9341,246.8905,503.73,247.91" style="stroke:#181818;stroke-width:1;"/></g><!--link Auth to ReservationRoutes--><g id="link_Auth_ReservationRoutes"><path codeLine="92" d="M382.1,148.13 C404.86,156.82 430.19,165.61 454,172 C519.7,189.63 537.55,188.21 605,197 C642.19,201.84 653.21,193.81 689,205 C719.97,214.68 746.7102,229.031 771.3402,244.621 " fill="none" id="Auth-to-ReservationRoutes" style="stroke:#181818;stroke-width:1;"/><polygon fill="#181818" points="776.41,247.83,770.9447,239.6367,772.1852,245.1558,766.666,246.3963,776.41,247.83" style="stroke:#181818;stroke-width:1;"/></g><!--link DatabaseConfig to models--><g id="link_DatabaseConfig_models"><path codeLine="94" d="M265.56,476.89 C276.265,506.145 295.1925,557.865 311.655,602.8488 C319.8863,625.3406 327.5013,646.1484 333.1641,661.622 C333.518,662.5891 333.8643,663.5354 334.2026,664.4599 C334.3718,664.9222 334.539,665.379 334.7042,665.8303 C334.7867,666.056 332.8068,660.6457 332.8883,660.8686 " fill="none" id="DatabaseConfig-to-models" style="stroke:#181818;stroke-width:1;stroke-dasharray:7.0,7.0;"/><polygon fill="#181818" points="334.9504,666.5031,335.6137,656.6766,333.232,661.8076,328.1009,659.426,334.9504,666.5031" style="stroke:#181818;stroke-width:1;"/><text fill="#000000" font-family="sans-serif" font-size="13" lengthAdjust="spacing" textLength="60.9565" x="295" y="554.0669">initializes</text></g><!--SRC=[jLLBJYCn4Dtx55vc1Ca1Ue64W0NI84RCNC1jLpe6npPbT_WfX-8CN0ptPpgEtPs0HkD55DKhLxsgvwgsZ3-m2gX3Jjy83QVziRrvRGGeroFDuOevHt_xMe3sDmqQWSsPKoaAUblU0_VN8e6qMPS8HRYFKbS9o0qYc4bGUsGEFjxPXCUQ1IklLOvlXtz96JUWws_Ni0I-2ZakcOS44U0uIikbqHCSBK90msLJbmgE4xm31xXXFaJyDazmdWapqOnjBdNROQCKuAJU5uDBGkI4SeJGaDvlzYD1QoiEeA4mc4QLgQIEh0VLFCgmSPgWDmfrt4QX2dnY_ugEHnb6lbbApZG7TSWZa8fWbv4R4HvDxM5IyxiKxV8WLD9vm0wUCMiBUlKSthTpNvJglmIEQl_t-2EzsaXuoblritcYlmAUs2-PMvM6eUZ3xQzMAOI29uQGnJkl_IeZlW6KovS_vW7q3E7nD5JYJgc6Pv_pJWTxAQiiILXWh0mRzQA5KmRMHlOj2I7ttyDyVfPl1HBfsZZiJoJ9nMcSHcTZI1UDIvIoNOOa6VY_6JjmVEIIX9qh6VIZYyLPyl0BMZjmP92oTSah6NMBsj7Zf9KsggI3T-RTbPqjoqR8ldXjilvJNL2ffPTCoLTmdm00]--></g></svg>