<svg xmlns="http://www.w3.org/2000/svg" xmlns:xlink="http://www.w3.org/1999/xlink" contentStyleType="text/css" height="436px" preserveAspectRatio="none" style="width:682px;height:436px;background:#FFFFFF;" version="1.1" viewBox="0 0 682 436" width="682px" zoomAndPan="magnify"><title>Diagrama de Arquitectura - Sistema de Comedores Universitarios</title><defs/><g><text fill="#000000" font-family="sans-serif" font-size="14" font-weight="bold" lengthAdjust="spacing" textLength="517.6309" x="75.1846" y="22.9951">Diagrama de Arquitectura - Sistema de Comedores Universitarios</text><!--cluster Cliente (Frontend)--><g id="cluster_Cliente (Frontend)"><polygon fill="none" points="46,53.2969,56,43.2969,267,43.2969,267,135.2969,257,145.2969,46,145.2969,46,53.2969" style="stroke:#181818;stroke-width:1;"/><line style="stroke:#181818;stroke-width:1;" x1="257" x2="267" y1="53.2969" y2="43.2969"/><line style="stroke:#181818;stroke-width:1;" x1="46" x2="257" y1="53.2969" y2="53.2969"/><line style="stroke:#181818;stroke-width:1;" x1="257" x2="257" y1="53.2969" y2="145.2969"/><text fill="#000000" font-family="sans-serif" font-size="14" font-weight="bold" lengthAdjust="spacing" textLength="145.4209" x="79.7896" y="69.292">Cliente (Frontend)</text></g><!--cluster Servidor (Backend)--><g id="cluster_Servidor (Backend)"><polygon fill="none" points="16,204.2969,26,194.2969,665,194.2969,665,409.2969,655,419.2969,16,419.2969,16,204.2969" style="stroke:#181818;stroke-width:1;"/><line style="stroke:#181818;stroke-width:1;" x1="655" x2="665" y1="204.2969" y2="194.2969"/><line style="stroke:#181818;stroke-width:1;" x1="16" x2="655" y1="204.2969" y2="204.2969"/><line style="stroke:#181818;stroke-width:1;" x1="655" x2="655" y1="204.2969" y2="419.2969"/><text fill="#000000" font-family="sans-serif" font-size="14" font-weight="bold" lengthAdjust="spacing" textLength="151.833" x="260.5835" y="220.292">Servidor (Backend)</text></g><!--entity Frontend--><g id="elem_Frontend"><rect fill="#F1F1F1" height="46.2969" rx="2.5" ry="2.5" style="stroke:#181818;stroke-width:0.5;" width="128.9561" x="91.5" y="83.2969"/><rect fill="#F1F1F1" height="10" style="stroke:#181818;stroke-width:0.5;" width="15" x="200.4561" y="88.2969"/><rect fill="#F1F1F1" height="2" style="stroke:#181818;stroke-width:0.5;" width="4" x="198.4561" y="90.2969"/><rect fill="#F1F1F1" height="2" style="stroke:#181818;stroke-width:0.5;" width="4" x="198.4561" y="94.2969"/><text fill="#000000" font-family="sans-serif" font-size="14" lengthAdjust="spacing" textLength="88.9561" x="106.5" y="116.292">HTML/CSS/JS</text></g><!--entity API--><g id="elem_API"><rect fill="#F1F1F1" height="46.2969" rx="2.5" ry="2.5" style="stroke:#181818;stroke-width:0.5;" width="172.959" x="147.5" y="234.2969"/><rect fill="#F1F1F1" height="10" style="stroke:#181818;stroke-width:0.5;" width="15" x="300.459" y="239.2969"/><rect fill="#F1F1F1" height="2" style="stroke:#181818;stroke-width:0.5;" width="4" x="298.459" y="241.2969"/><rect fill="#F1F1F1" height="2" style="stroke:#181818;stroke-width:0.5;" width="4" x="298.459" y="245.2969"/><text fill="#000000" font-family="sans-serif" font-size="14" lengthAdjust="spacing" textLength="132.959" x="162.5" y="267.292">Express (API REST)</text></g><!--entity Auth--><g id="elem_Auth"><rect fill="#F1F1F1" height="46.2969" rx="2.5" ry="2.5" style="stroke:#181818;stroke-width:0.5;" width="178.0039" x="32" y="357.2969"/><rect fill="#F1F1F1" height="10" style="stroke:#181818;stroke-width:0.5;" width="15" x="190.0039" y="362.2969"/><rect fill="#F1F1F1" height="2" style="stroke:#181818;stroke-width:0.5;" width="4" x="188.0039" y="364.2969"/><rect fill="#F1F1F1" height="2" style="stroke:#181818;stroke-width:0.5;" width="4" x="188.0039" y="368.2969"/><text fill="#000000" font-family="sans-serif" font-size="14" lengthAdjust="spacing" textLength="138.0039" x="47" y="390.292">Autenticaci&#243;n (JWT)</text></g><!--entity DB--><g id="elem_DB"><rect fill="#F1F1F1" height="46.2969" rx="2.5" ry="2.5" style="stroke:#181818;stroke-width:0.5;" width="223.9277" x="319" y="357.2969"/><rect fill="#F1F1F1" height="10" style="stroke:#181818;stroke-width:0.5;" width="15" x="522.9277" y="362.2969"/><rect fill="#F1F1F1" height="2" style="stroke:#181818;stroke-width:0.5;" width="4" x="520.9277" y="364.2969"/><rect fill="#F1F1F1" height="2" style="stroke:#181818;stroke-width:0.5;" width="4" x="520.9277" y="368.2969"/><text fill="#000000" font-family="sans-serif" font-size="14" lengthAdjust="spacing" textLength="183.9277" x="334" y="390.292">Base de Datos (MongoDB)</text></g><!--link Frontend to API--><g id="link_Frontend_API"><path d="M91.31,124.0769 C59.3,135.7969 30.66,153.7669 47,178.2969 C69.53,212.1069 104.0383,229.6127 141.4483,240.4827 " fill="none" id="Frontend-to-API" style="stroke:#181818;stroke-width:1;"/><polygon fill="#181818" points="147.21,242.1569,139.6835,235.8045,142.4086,240.7618,137.4513,243.4868,147.21,242.1569" style="stroke:#181818;stroke-width:1;"/><text fill="#000000" font-family="sans-serif" font-size="13" lengthAdjust="spacing" textLength="249.4312" x="48" y="174.3638">Peticiones HTTP (CRUD/Autenticaci&#243;n)</text></g><!--link API to Frontend--><g id="link_API_Frontend"><path d="M267.77,234.1469 C292.7,214.9669 319.5,186.4269 302,161.2969 C283.54,134.7969 256.3577,122.6103 226.3677,115.7203 " fill="none" id="API-to-Frontend" style="stroke:#181818;stroke-width:1;"/><polygon fill="#181818" points="220.52,114.3769,228.3958,120.2905,225.393,115.4964,230.1871,112.4936,220.52,114.3769" style="stroke:#181818;stroke-width:1;"/><text fill="#000000" font-family="sans-serif" font-size="13" lengthAdjust="spacing" textLength="111.0776" x="308" y="174.3638">Respuestas JSON</text></g><!--link API to Auth--><g id="link_API_Auth"><path d="M147.34,263.8469 C115.95,270.5569 83.46,283.9969 64,310.2969 C52.08,326.4069 61.8838,340.1623 79.2638,353.4523 " fill="none" id="API-to-Auth" style="stroke:#181818;stroke-width:1;"/><polygon fill="#181818" points="84.03,357.0969,79.3104,348.4525,80.0581,354.0597,74.4509,354.8075,84.03,357.0969" style="stroke:#181818;stroke-width:1;"/><text fill="#000000" font-family="sans-serif" font-size="13" lengthAdjust="spacing" textLength="125.2456" x="65" y="323.3638">Verificaci&#243;n de JWT</text></g><!--link API to DB--><g id="link_API_DB"><path d="M226.22,280.4169 C222.54,295.1769 220.88,314.2069 231,327.2969 C242.77,342.5169 273.9124,352.8534 312.9524,361.1934 " fill="none" id="API-to-DB" style="stroke:#181818;stroke-width:1;"/><polygon fill="#181818" points="318.82,362.4469,310.8542,356.6549,313.9303,361.4023,309.1829,364.4784,318.82,362.4469" style="stroke:#181818;stroke-width:1;"/><text fill="#000000" font-family="sans-serif" font-size="13" lengthAdjust="spacing" textLength="229.7471" x="232" y="323.3638">Consultas/Actualizaciones de datos</text></g><!--link DB to API--><g id="link_DB_API"><path d="M454.66,357.1069 C466.98,342.8669 477.33,324.4569 466,310.2969 C447.75,287.4969 384.7405,274.7859 326.7105,267.2859 " fill="none" id="DB-to-API" style="stroke:#181818;stroke-width:1;"/><polygon fill="#181818" points="320.76,266.5169,329.1731,271.6375,325.7188,267.1578,330.1985,263.7035,320.76,266.5169" style="stroke:#181818;stroke-width:1;"/><text fill="#000000" font-family="sans-serif" font-size="13" lengthAdjust="spacing" textLength="142.5493" x="471" y="323.3638">Respuestas con datos</text></g><!--SRC=[TP5DJiCm44RtESKegtGHPSy2AJz59Q9GrIciHybGHYHsiPqAWJWLH-1YJDecg9Nm9hBcpVi-AvvzIr0mRYrs20r1QjzwzbJxtYB4eDXvEavoqr5ZB3dOQDwJTUpHid51e8sCmxnbqfuWkh56lhgPXV0PW9pQT3kZPGZXebhU9RbIIQb2G0SZ6toD6aLspv83KORrwp-Q-VjEYZY8qjKjhEUgcXriShiaqrxqdcki-UTRGrG-ZMplNoxX31qDJotG6v4lZTwQ8ZloHJPq7Fj275yFSN05An8zYy71egfM4ENhJP6Svyw2WJtiIAmiFPBbvwcLH4glYIao8NAZNTzwT4agFmDR_i1JYj3DK30Gxg_6cjok9oSByY9z8aRZLFkCAzN3_Iy0]--></g></svg>