<svg xmlns="http://www.w3.org/2000/svg" xmlns:xlink="http://www.w3.org/1999/xlink" contentStyleType="text/css" height="833px" preserveAspectRatio="none" style="width:1000px;height:833px;background:#FFFFFF;" version="1.1" viewBox="0 0 1000 833" width="1000px" zoomAndPan="magnify"><defs/><g><!--cluster src--><g id="cluster_src"><path d="M8.5,6 L33.0361,6 A3.75,3.75 0 0 1 35.5361,8.5 L42.5361,28.2969 L990.5,28.2969 A2.5,2.5 0 0 1 993,30.7969 L993,823.5 A2.5,2.5 0 0 1 990.5,826 L8.5,826 A2.5,2.5 0 0 1 6,823.5 L6,8.5 A2.5,2.5 0 0 1 8.5,6 " fill="none" style="stroke:#000000;stroke-width:1.5;"/><line style="stroke:#000000;stroke-width:1.5;" x1="6" x2="42.5361" y1="28.2969" y2="28.2969"/><text fill="#000000" font-family="sans-serif" font-size="14" font-weight="bold" lengthAdjust="spacing" textLength="23.5361" x="10" y="20.9951">src</text></g><!--cluster models--><g id="cluster_models"><path d="M194.5,598 L252.3545,598 A3.75,3.75 0 0 1 254.8545,600.5 L261.8545,620.2969 L797.5,620.2969 A2.5,2.5 0 0 1 800,622.7969 L800,791.5 A2.5,2.5 0 0 1 797.5,794 L194.5,794 A2.5,2.5 0 0 1 192,791.5 L192,600.5 A2.5,2.5 0 0 1 194.5,598 " fill="none" style="stroke:#000000;stroke-width:1.5;"/><line style="stroke:#000000;stroke-width:1.5;" x1="192" x2="261.8545" y1="620.2969" y2="620.2969"/><text fill="#000000" font-family="sans-serif" font-size="14" font-weight="bold" lengthAdjust="spacing" textLength="56.8545" x="196" y="612.9951">models</text></g><!--cluster controllers--><g id="cluster_controllers"><path d="M232.5,361 L318.9287,361 A3.75,3.75 0 0 1 321.4287,363.5 L328.4287,383.2969 L810.5,383.2969 A2.5,2.5 0 0 1 813,385.7969 L813,538.5 A2.5,2.5 0 0 1 810.5,541 L232.5,541 A2.5,2.5 0 0 1 230,538.5 L230,363.5 A2.5,2.5 0 0 1 232.5,361 " fill="none" style="stroke:#000000;stroke-width:1.5;"/><line style="stroke:#000000;stroke-width:1.5;" x1="230" x2="328.4287" y1="383.2969" y2="383.2969"/><text fill="#000000" font-family="sans-serif" font-size="14" font-weight="bold" lengthAdjust="spacing" textLength="85.4287" x="234" y="375.9951">controllers</text></g><!--cluster routes--><g id="cluster_routes"><path d="M98.5,213 L150.5098,213 A3.75,3.75 0 0 1 153.0098,215.5 L160.0098,235.2969 L885.5,235.2969 A2.5,2.5 0 0 1 888,237.7969 L888,325.5 A2.5,2.5 0 0 1 885.5,328 L98.5,328 A2.5,2.5 0 0 1 96,325.5 L96,215.5 A2.5,2.5 0 0 1 98.5,213 " fill="none" style="stroke:#000000;stroke-width:1.5;"/><line style="stroke:#000000;stroke-width:1.5;" x1="96" x2="160.0098" y1="235.2969" y2="235.2969"/><text fill="#000000" font-family="sans-serif" font-size="14" font-weight="bold" lengthAdjust="spacing" textLength="51.0098" x="100" y="227.9951">routes</text></g><!--cluster views--><g id="cluster_views"><path d="M300.5,57 L346.1865,57 A3.75,3.75 0 0 1 348.6865,59.5 L355.6865,79.2969 L966.5,79.2969 A2.5,2.5 0 0 1 969,81.7969 L969,153.5 A2.5,2.5 0 0 1 966.5,156 L300.5,156 A2.5,2.5 0 0 1 298,153.5 L298,59.5 A2.5,2.5 0 0 1 300.5,57 " fill="none" style="stroke:#000000;stroke-width:1.5;"/><line style="stroke:#000000;stroke-width:1.5;" x1="298" x2="355.6865" y1="79.2969" y2="79.2969"/><text fill="#000000" font-family="sans-serif" font-size="14" font-weight="bold" lengthAdjust="spacing" textLength="44.6865" x="302" y="71.9951">views</text></g><!--cluster middleware--><g id="cluster_middleware"><path d="M32.5,49 L126.0039,49 A3.75,3.75 0 0 1 128.5039,51.5 L135.5039,71.2969 L271.5,71.2969 A2.5,2.5 0 0 1 274,73.7969 L274,161.5 A2.5,2.5 0 0 1 271.5,164 L32.5,164 A2.5,2.5 0 0 1 30,161.5 L30,51.5 A2.5,2.5 0 0 1 32.5,49 " fill="none" style="stroke:#000000;stroke-width:1.5;"/><line style="stroke:#000000;stroke-width:1.5;" x1="30" x2="135.5039" y1="71.2969" y2="71.2969"/><text fill="#000000" font-family="sans-serif" font-size="14" font-weight="bold" lengthAdjust="spacing" textLength="92.5039" x="34" y="63.9951">middleware</text></g><!--cluster config--><g id="cluster_config"><path d="M32.5,401.5 L82.2949,401.5 A3.75,3.75 0 0 1 84.7949,404 L91.7949,423.7969 L203.5,423.7969 A2.5,2.5 0 0 1 206,426.2969 L206,498 A2.5,2.5 0 0 1 203.5,500.5 L32.5,500.5 A2.5,2.5 0 0 1 30,498 L30,404 A2.5,2.5 0 0 1 32.5,401.5 " fill="none" style="stroke:#000000;stroke-width:1.5;"/><line style="stroke:#000000;stroke-width:1.5;" x1="30" x2="91.7949" y1="423.7969" y2="423.7969"/><text fill="#000000" font-family="sans-serif" font-size="14" font-weight="bold" lengthAdjust="spacing" textLength="48.7949" x="34" y="416.4951">config</text></g><!--class StudentModel--><g id="elem_StudentModel"><rect codeLine="4" fill="#F1F1F1" height="129.4844" id="StudentModel" rx="2.5" ry="2.5" style="stroke:#181818;stroke-width:0.5;" width="155.2676" x="427.5" y="641"/><ellipse cx="454.2549" cy="657" fill="#ADD1B2" rx="11" ry="11" style="stroke:#181818;stroke-width:1;"/><path d="M457.2237,662.6406 Q456.6456,662.9375 456.0049,663.0781 Q455.3643,663.2344 454.6612,663.2344 Q452.1612,663.2344 450.8331,661.5938 Q449.5206,659.9375 449.5206,656.8125 Q449.5206,653.6875 450.8331,652.0313 Q452.1612,650.375 454.6612,650.375 Q455.3643,650.375 456.0049,650.5313 Q456.6612,650.6875 457.2237,650.9844 L457.2237,653.7031 Q456.5987,653.125 456.0049,652.8594 Q455.4112,652.5781 454.7862,652.5781 Q453.4424,652.5781 452.7549,653.6563 Q452.0674,654.7188 452.0674,656.8125 Q452.0674,658.9063 452.7549,659.9844 Q453.4424,661.0469 454.7862,661.0469 Q455.4112,661.0469 456.0049,660.7813 Q456.5987,660.5 457.2237,659.9219 L457.2237,662.6406 Z " fill="#000000"/><text fill="#000000" font-family="sans-serif" font-size="14" lengthAdjust="spacing" textLength="97.1455" x="470.8671" y="661.8467">StudentModel</text><line style="stroke:#181818;stroke-width:0.5;" x1="428.5" x2="581.7676" y1="673" y2="673"/><rect fill="none" height="6" style="stroke:#C82930;stroke-width:1;" width="6" x="435.5" y="683.6484"/><text fill="#000000" font-family="sans-serif" font-size="14" lengthAdjust="spacing" textLength="80.5547" x="447.5" y="689.9951">id: ObjectId</text><rect fill="none" height="6" style="stroke:#C82930;stroke-width:1;" width="6" x="435.5" y="699.9453"/><text fill="#000000" font-family="sans-serif" font-size="14" lengthAdjust="spacing" textLength="105.2803" x="447.5" y="706.292">nombre: String</text><rect fill="none" height="6" style="stroke:#C82930;stroke-width:1;" width="6" x="435.5" y="716.2422"/><text fill="#000000" font-family="sans-serif" font-size="14" lengthAdjust="spacing" textLength="95.9014" x="447.5" y="722.5889">correo: String</text><rect fill="none" height="6" style="stroke:#C82930;stroke-width:1;" width="6" x="435.5" y="732.5391"/><text fill="#000000" font-family="sans-serif" font-size="14" lengthAdjust="spacing" textLength="129.2676" x="447.5" y="738.8857">contrase&#241;a: String</text><rect fill="none" height="6" style="stroke:#C82930;stroke-width:1;" width="6" x="435.5" y="748.8359"/><text fill="#000000" font-family="sans-serif" font-size="14" lengthAdjust="spacing" textLength="117.3389" x="447.5" y="755.1826">matricula: String</text><line style="stroke:#181818;stroke-width:0.5;" x1="428.5" x2="581.7676" y1="762.4844" y2="762.4844"/></g><!--class MenuModel--><g id="elem_MenuModel"><rect codeLine="12" fill="#F1F1F1" height="113.1875" id="MenuModel" rx="2.5" ry="2.5" style="stroke:#181818;stroke-width:0.5;" width="156.9971" x="235.5" y="649"/><ellipse cx="270.536" cy="665" fill="#ADD1B2" rx="11" ry="11" style="stroke:#181818;stroke-width:1;"/><path d="M273.5047,670.6406 Q272.9266,670.9375 272.286,671.0781 Q271.6454,671.2344 270.9422,671.2344 Q268.4422,671.2344 267.1141,669.5938 Q265.8016,667.9375 265.8016,664.8125 Q265.8016,661.6875 267.1141,660.0313 Q268.4422,658.375 270.9422,658.375 Q271.6454,658.375 272.286,658.5313 Q272.9422,658.6875 273.5047,658.9844 L273.5047,661.7031 Q272.8797,661.125 272.286,660.8594 Q271.6922,660.5781 271.0672,660.5781 Q269.7235,660.5781 269.036,661.6563 Q268.3485,662.7188 268.3485,664.8125 Q268.3485,666.9063 269.036,667.9844 Q269.7235,669.0469 271.0672,669.0469 Q271.6922,669.0469 272.286,668.7813 Q272.8797,668.5 273.5047,667.9219 L273.5047,670.6406 Z " fill="#000000"/><text fill="#000000" font-family="sans-serif" font-size="14" lengthAdjust="spacing" textLength="80.4727" x="288.9884" y="669.8467">MenuModel</text><line style="stroke:#181818;stroke-width:0.5;" x1="236.5" x2="391.4971" y1="681" y2="681"/><rect fill="none" height="6" style="stroke:#C82930;stroke-width:1;" width="6" x="243.5" y="691.6484"/><text fill="#000000" font-family="sans-serif" font-size="14" lengthAdjust="spacing" textLength="80.5547" x="255.5" y="697.9951">id: ObjectId</text><rect fill="none" height="6" style="stroke:#C82930;stroke-width:1;" width="6" x="243.5" y="707.9453"/><text fill="#000000" font-family="sans-serif" font-size="14" lengthAdjust="spacing" textLength="81.3203" x="255.5" y="714.292">fecha: Date</text><rect fill="none" height="6" style="stroke:#C82930;stroke-width:1;" width="6" x="243.5" y="724.2422"/><text fill="#000000" font-family="sans-serif" font-size="14" lengthAdjust="spacing" textLength="130.9971" x="255.5" y="730.5889">descripcion: String</text><rect fill="none" height="6" style="stroke:#C82930;stroke-width:1;" width="6" x="243.5" y="740.5391"/><text fill="#000000" font-family="sans-serif" font-size="14" lengthAdjust="spacing" textLength="102.1836" x="255.5" y="746.8857">precio: Double</text><line style="stroke:#181818;stroke-width:0.5;" x1="236.5" x2="391.4971" y1="754.1875" y2="754.1875"/></g><!--class ReservationModel--><g id="elem_ReservationModel"><rect codeLine="19" fill="#F1F1F1" height="80.5938" id="ReservationModel" rx="2.5" ry="2.5" style="stroke:#181818;stroke-width:0.5;" width="157.7197" x="618" y="665"/><ellipse cx="633" cy="681" fill="#ADD1B2" rx="11" ry="11" style="stroke:#181818;stroke-width:1;"/><path d="M635.9688,686.6406 Q635.3906,686.9375 634.75,687.0781 Q634.1094,687.2344 633.4063,687.2344 Q630.9063,687.2344 629.5781,685.5938 Q628.2656,683.9375 628.2656,680.8125 Q628.2656,677.6875 629.5781,676.0313 Q630.9063,674.375 633.4063,674.375 Q634.1094,674.375 634.75,674.5313 Q635.4063,674.6875 635.9688,674.9844 L635.9688,677.7031 Q635.3438,677.125 634.75,676.8594 Q634.1563,676.5781 633.5313,676.5781 Q632.1875,676.5781 631.5,677.6563 Q630.8125,678.7188 630.8125,680.8125 Q630.8125,682.9063 631.5,683.9844 Q632.1875,685.0469 633.5313,685.0469 Q634.1563,685.0469 634.75,684.7813 Q635.3438,684.5 635.9688,683.9219 L635.9688,686.6406 Z " fill="#000000"/><text fill="#000000" font-family="sans-serif" font-size="14" lengthAdjust="spacing" textLength="125.7197" x="647" y="685.8467">ReservationModel</text><line style="stroke:#181818;stroke-width:0.5;" x1="619" x2="774.7197" y1="697" y2="697"/><rect fill="none" height="6" style="stroke:#C82930;stroke-width:1;" width="6" x="626" y="707.6484"/><text fill="#000000" font-family="sans-serif" font-size="14" lengthAdjust="spacing" textLength="80.5547" x="638" y="713.9951">id: ObjectId</text><rect fill="none" height="6" style="stroke:#C82930;stroke-width:1;" width="6" x="626" y="723.9453"/><text fill="#000000" font-family="sans-serif" font-size="14" lengthAdjust="spacing" textLength="98.376" x="638" y="730.292">estado: String</text><line style="stroke:#181818;stroke-width:0.5;" x1="619" x2="774.7197" y1="737.5938" y2="737.5938"/></g><!--class StudentController--><g id="elem_StudentController"><rect codeLine="26" fill="#F1F1F1" height="113.1875" id="StudentController" rx="2.5" ry="2.5" style="stroke:#181818;stroke-width:0.5;" width="156.2842" x="421" y="404"/><ellipse cx="436" cy="420" fill="#ADD1B2" rx="11" ry="11" style="stroke:#181818;stroke-width:1;"/><path d="M438.9688,425.6406 Q438.3906,425.9375 437.75,426.0781 Q437.1094,426.2344 436.4063,426.2344 Q433.9063,426.2344 432.5781,424.5938 Q431.2656,422.9375 431.2656,419.8125 Q431.2656,416.6875 432.5781,415.0313 Q433.9063,413.375 436.4063,413.375 Q437.1094,413.375 437.75,413.5313 Q438.4063,413.6875 438.9688,413.9844 L438.9688,416.7031 Q438.3438,416.125 437.75,415.8594 Q437.1563,415.5781 436.5313,415.5781 Q435.1875,415.5781 434.5,416.6563 Q433.8125,417.7188 433.8125,419.8125 Q433.8125,421.9063 434.5,422.9844 Q435.1875,424.0469 436.5313,424.0469 Q437.1563,424.0469 437.75,423.7813 Q438.3438,423.5 438.9688,422.9219 L438.9688,425.6406 Z " fill="#000000"/><text fill="#000000" font-family="sans-serif" font-size="14" lengthAdjust="spacing" textLength="124.2842" x="450" y="424.8467">StudentController</text><line style="stroke:#181818;stroke-width:0.5;" x1="422" x2="576.2842" y1="436" y2="436"/><line style="stroke:#181818;stroke-width:0.5;" x1="422" x2="576.2842" y1="444" y2="444"/><ellipse cx="432" cy="457.6484" fill="#84BE84" rx="3" ry="3" style="stroke:#038048;stroke-width:1;"/><text fill="#000000" font-family="sans-serif" font-size="14" lengthAdjust="spacing" textLength="110.7832" x="441" y="460.9951">createStudent()</text><ellipse cx="432" cy="473.9453" fill="#84BE84" rx="3" ry="3" style="stroke:#038048;stroke-width:1;"/><text fill="#000000" font-family="sans-serif" font-size="14" lengthAdjust="spacing" textLength="115.3633" x="441" y="477.292">updateStudent()</text><ellipse cx="432" cy="490.2422" fill="#84BE84" rx="3" ry="3" style="stroke:#038048;stroke-width:1;"/><text fill="#000000" font-family="sans-serif" font-size="14" lengthAdjust="spacing" textLength="110.1406" x="441" y="493.5889">deleteStudent()</text><ellipse cx="432" cy="506.5391" fill="#84BE84" rx="3" ry="3" style="stroke:#038048;stroke-width:1;"/><text fill="#000000" font-family="sans-serif" font-size="14" lengthAdjust="spacing" textLength="45.0283" x="441" y="509.8857">login()</text></g><!--class MenuController--><g id="elem_MenuController"><rect codeLine="33" fill="#F1F1F1" height="129.4844" id="MenuController" rx="2.5" ry="2.5" style="stroke:#181818;stroke-width:0.5;" width="139.6113" x="246" y="396"/><ellipse cx="261" cy="412" fill="#ADD1B2" rx="11" ry="11" style="stroke:#181818;stroke-width:1;"/><path d="M263.9688,417.6406 Q263.3906,417.9375 262.75,418.0781 Q262.1094,418.2344 261.4063,418.2344 Q258.9063,418.2344 257.5781,416.5938 Q256.2656,414.9375 256.2656,411.8125 Q256.2656,408.6875 257.5781,407.0313 Q258.9063,405.375 261.4063,405.375 Q262.1094,405.375 262.75,405.5313 Q263.4063,405.6875 263.9688,405.9844 L263.9688,408.7031 Q263.3438,408.125 262.75,407.8594 Q262.1563,407.5781 261.5313,407.5781 Q260.1875,407.5781 259.5,408.6563 Q258.8125,409.7188 258.8125,411.8125 Q258.8125,413.9063 259.5,414.9844 Q260.1875,416.0469 261.5313,416.0469 Q262.1563,416.0469 262.75,415.7813 Q263.3438,415.5 263.9688,414.9219 L263.9688,417.6406 Z " fill="#000000"/><text fill="#000000" font-family="sans-serif" font-size="14" lengthAdjust="spacing" textLength="107.6113" x="275" y="416.8467">MenuController</text><line style="stroke:#181818;stroke-width:0.5;" x1="247" x2="384.6113" y1="428" y2="428"/><line style="stroke:#181818;stroke-width:0.5;" x1="247" x2="384.6113" y1="436" y2="436"/><ellipse cx="257" cy="449.6484" fill="#84BE84" rx="3" ry="3" style="stroke:#038048;stroke-width:1;"/><text fill="#000000" font-family="sans-serif" font-size="14" lengthAdjust="spacing" textLength="94.1104" x="266" y="452.9951">createMenu()</text><ellipse cx="257" cy="465.9453" fill="#84BE84" rx="3" ry="3" style="stroke:#038048;stroke-width:1;"/><text fill="#000000" font-family="sans-serif" font-size="14" lengthAdjust="spacing" textLength="98.6904" x="266" y="469.292">updateMenu()</text><ellipse cx="257" cy="482.2422" fill="#84BE84" rx="3" ry="3" style="stroke:#038048;stroke-width:1;"/><text fill="#000000" font-family="sans-serif" font-size="14" lengthAdjust="spacing" textLength="93.4678" x="266" y="485.5889">deleteMenu()</text><ellipse cx="257" cy="498.5391" fill="#84BE84" rx="3" ry="3" style="stroke:#038048;stroke-width:1;"/><text fill="#000000" font-family="sans-serif" font-size="14" lengthAdjust="spacing" textLength="72.3516" x="266" y="501.8857">getMenu()</text><ellipse cx="257" cy="514.8359" fill="#84BE84" rx="3" ry="3" style="stroke:#038048;stroke-width:1;"/><text fill="#000000" font-family="sans-serif" font-size="14" lengthAdjust="spacing" textLength="97.002" x="266" y="518.1826">getAllMenus()</text></g><!--class ReservationController--><g id="elem_ReservationController"><rect codeLine="41" fill="#F1F1F1" height="96.8906" id="ReservationController" rx="2.5" ry="2.5" style="stroke:#181818;stroke-width:0.5;" width="184.8584" x="612.5" y="412"/><ellipse cx="627.5" cy="428" fill="#ADD1B2" rx="11" ry="11" style="stroke:#181818;stroke-width:1;"/><path d="M630.4688,433.6406 Q629.8906,433.9375 629.25,434.0781 Q628.6094,434.2344 627.9063,434.2344 Q625.4063,434.2344 624.0781,432.5938 Q622.7656,430.9375 622.7656,427.8125 Q622.7656,424.6875 624.0781,423.0313 Q625.4063,421.375 627.9063,421.375 Q628.6094,421.375 629.25,421.5313 Q629.9063,421.6875 630.4688,421.9844 L630.4688,424.7031 Q629.8438,424.125 629.25,423.8594 Q628.6563,423.5781 628.0313,423.5781 Q626.6875,423.5781 626,424.6563 Q625.3125,425.7188 625.3125,427.8125 Q625.3125,429.9063 626,430.9844 Q626.6875,432.0469 628.0313,432.0469 Q628.6563,432.0469 629.25,431.7813 Q629.8438,431.5 630.4688,430.9219 L630.4688,433.6406 Z " fill="#000000"/><text fill="#000000" font-family="sans-serif" font-size="14" lengthAdjust="spacing" textLength="152.8584" x="641.5" y="432.8467">ReservationController</text><line style="stroke:#181818;stroke-width:0.5;" x1="613.5" x2="796.3584" y1="444" y2="444"/><line style="stroke:#181818;stroke-width:0.5;" x1="613.5" x2="796.3584" y1="452" y2="452"/><ellipse cx="623.5" cy="465.6484" fill="#84BE84" rx="3" ry="3" style="stroke:#038048;stroke-width:1;"/><text fill="#000000" font-family="sans-serif" font-size="14" lengthAdjust="spacing" textLength="139.3574" x="632.5" y="468.9951">createReservation()</text><ellipse cx="623.5" cy="481.9453" fill="#84BE84" rx="3" ry="3" style="stroke:#038048;stroke-width:1;"/><text fill="#000000" font-family="sans-serif" font-size="14" lengthAdjust="spacing" textLength="139.959" x="632.5" y="485.292">cancelReservation()</text><ellipse cx="623.5" cy="498.2422" fill="#84BE84" rx="3" ry="3" style="stroke:#038048;stroke-width:1;"/><text fill="#000000" font-family="sans-serif" font-size="14" lengthAdjust="spacing" textLength="124.8926" x="632.5" y="501.5889">getReservations()</text></g><!--class StudentRoutes--><g id="elem_StudentRoutes"><rect codeLine="49" fill="#F1F1F1" height="64.2969" id="StudentRoutes" rx="2.5" ry="2.5" style="stroke:#181818;stroke-width:0.5;" width="230.2783" x="377" y="248"/><ellipse cx="436.0522" cy="264" fill="#ADD1B2" rx="11" ry="11" style="stroke:#181818;stroke-width:1;"/><path d="M439.021,269.6406 Q438.4429,269.9375 437.8022,270.0781 Q437.1616,270.2344 436.4585,270.2344 Q433.9585,270.2344 432.6304,268.5938 Q431.3179,266.9375 431.3179,263.8125 Q431.3179,260.6875 432.6304,259.0313 Q433.9585,257.375 436.4585,257.375 Q437.1616,257.375 437.8022,257.5313 Q438.4585,257.6875 439.021,257.9844 L439.021,260.7031 Q438.396,260.125 437.8022,259.8594 Q437.2085,259.5781 436.5835,259.5781 Q435.2397,259.5781 434.5522,260.6563 Q433.8647,261.7188 433.8647,263.8125 Q433.8647,265.9063 434.5522,266.9844 Q435.2397,268.0469 436.5835,268.0469 Q437.2085,268.0469 437.8022,267.7813 Q438.396,267.5 439.021,266.9219 L439.021,269.6406 Z " fill="#000000"/><text fill="#000000" font-family="sans-serif" font-size="14" lengthAdjust="spacing" textLength="103.6738" x="456.5522" y="268.8467">StudentRoutes</text><line style="stroke:#181818;stroke-width:0.5;" x1="378" x2="606.2783" y1="280" y2="280"/><line style="stroke:#181818;stroke-width:0.5;" x1="378" x2="606.2783" y1="288" y2="288"/><ellipse cx="388" cy="301.6484" fill="#84BE84" rx="3" ry="3" style="stroke:#038048;stroke-width:1;"/><text fill="#000000" font-family="sans-serif" font-size="14" lengthAdjust="spacing" textLength="204.2783" x="397" y="304.9951">registerRoutes(app: Express)</text></g><!--class MenuRoutes--><g id="elem_MenuRoutes"><rect codeLine="53" fill="#F1F1F1" height="64.2969" id="MenuRoutes" rx="2.5" ry="2.5" style="stroke:#181818;stroke-width:0.5;" width="230.2783" x="112" y="248"/><ellipse cx="179.3887" cy="264" fill="#ADD1B2" rx="11" ry="11" style="stroke:#181818;stroke-width:1;"/><path d="M182.3574,269.6406 Q181.7793,269.9375 181.1387,270.0781 Q180.498,270.2344 179.7949,270.2344 Q177.2949,270.2344 175.9668,268.5938 Q174.6543,266.9375 174.6543,263.8125 Q174.6543,260.6875 175.9668,259.0313 Q177.2949,257.375 179.7949,257.375 Q180.498,257.375 181.1387,257.5313 Q181.7949,257.6875 182.3574,257.9844 L182.3574,260.7031 Q181.7324,260.125 181.1387,259.8594 Q180.5449,259.5781 179.9199,259.5781 Q178.5762,259.5781 177.8887,260.6563 Q177.2012,261.7188 177.2012,263.8125 Q177.2012,265.9063 177.8887,266.9844 Q178.5762,268.0469 179.9199,268.0469 Q180.5449,268.0469 181.1387,267.7813 Q181.7324,267.5 182.3574,266.9219 L182.3574,269.6406 Z " fill="#000000"/><text fill="#000000" font-family="sans-serif" font-size="14" lengthAdjust="spacing" textLength="87.001" x="199.8887" y="268.8467">MenuRoutes</text><line style="stroke:#181818;stroke-width:0.5;" x1="113" x2="341.2783" y1="280" y2="280"/><line style="stroke:#181818;stroke-width:0.5;" x1="113" x2="341.2783" y1="288" y2="288"/><ellipse cx="123" cy="301.6484" fill="#84BE84" rx="3" ry="3" style="stroke:#038048;stroke-width:1;"/><text fill="#000000" font-family="sans-serif" font-size="14" lengthAdjust="spacing" textLength="204.2783" x="132" y="304.9951">registerRoutes(app: Express)</text></g><!--class ReservationRoutes--><g id="elem_ReservationRoutes"><rect codeLine="57" fill="#F1F1F1" height="64.2969" id="ReservationRoutes" rx="2.5" ry="2.5" style="stroke:#181818;stroke-width:0.5;" width="230.2783" x="642" y="248"/><ellipse cx="686.7651" cy="264" fill="#ADD1B2" rx="11" ry="11" style="stroke:#181818;stroke-width:1;"/><path d="M689.7339,269.6406 Q689.1558,269.9375 688.5151,270.0781 Q687.8745,270.2344 687.1714,270.2344 Q684.6714,270.2344 683.3433,268.5938 Q682.0308,266.9375 682.0308,263.8125 Q682.0308,260.6875 683.3433,259.0313 Q684.6714,257.375 687.1714,257.375 Q687.8745,257.375 688.5151,257.5313 Q689.1714,257.6875 689.7339,257.9844 L689.7339,260.7031 Q689.1089,260.125 688.5151,259.8594 Q687.9214,259.5781 687.2964,259.5781 Q685.9526,259.5781 685.2651,260.6563 Q684.5776,261.7188 684.5776,263.8125 Q684.5776,265.9063 685.2651,266.9844 Q685.9526,268.0469 687.2964,268.0469 Q687.9214,268.0469 688.5151,267.7813 Q689.1089,267.5 689.7339,266.9219 L689.7339,269.6406 Z " fill="#000000"/><text fill="#000000" font-family="sans-serif" font-size="14" lengthAdjust="spacing" textLength="132.248" x="707.2651" y="268.8467">ReservationRoutes</text><line style="stroke:#181818;stroke-width:0.5;" x1="643" x2="871.2783" y1="280" y2="280"/><line style="stroke:#181818;stroke-width:0.5;" x1="643" x2="871.2783" y1="288" y2="288"/><ellipse cx="653" cy="301.6484" fill="#84BE84" rx="3" ry="3" style="stroke:#038048;stroke-width:1;"/><text fill="#000000" font-family="sans-serif" font-size="14" lengthAdjust="spacing" textLength="204.2783" x="662" y="304.9951">registerRoutes(app: Express)</text></g><!--class LoginPage--><g id="elem_LoginPage"><rect codeLine="63" fill="#F1F1F1" height="48" id="LoginPage" rx="2.5" ry="2.5" style="stroke:#181818;stroke-width:0.5;" width="104.5361" x="503.5" y="92"/><ellipse cx="518.5" cy="108" fill="#ADD1B2" rx="11" ry="11" style="stroke:#181818;stroke-width:1;"/><path d="M521.4688,113.6406 Q520.8906,113.9375 520.25,114.0781 Q519.6094,114.2344 518.9063,114.2344 Q516.4063,114.2344 515.0781,112.5938 Q513.7656,110.9375 513.7656,107.8125 Q513.7656,104.6875 515.0781,103.0313 Q516.4063,101.375 518.9063,101.375 Q519.6094,101.375 520.25,101.5313 Q520.9063,101.6875 521.4688,101.9844 L521.4688,104.7031 Q520.8438,104.125 520.25,103.8594 Q519.6563,103.5781 519.0313,103.5781 Q517.6875,103.5781 517,104.6563 Q516.3125,105.7188 516.3125,107.8125 Q516.3125,109.9063 517,110.9844 Q517.6875,112.0469 519.0313,112.0469 Q519.6563,112.0469 520.25,111.7813 Q520.8438,111.5 521.4688,110.9219 L521.4688,113.6406 Z " fill="#000000"/><text fill="#000000" font-family="sans-serif" font-size="14" lengthAdjust="spacing" textLength="72.5361" x="532.5" y="112.8467">LoginPage</text><line style="stroke:#181818;stroke-width:0.5;" x1="504.5" x2="607.0361" y1="124" y2="124"/><line style="stroke:#181818;stroke-width:0.5;" x1="504.5" x2="607.0361" y1="132" y2="132"/></g><!--class Lobby--><g id="elem_Lobby"><rect codeLine="64" fill="#F1F1F1" height="48" id="Lobby" rx="2.5" ry="2.5" style="stroke:#181818;stroke-width:0.5;" width="74.4238" x="644" y="92"/><ellipse cx="659" cy="108" fill="#ADD1B2" rx="11" ry="11" style="stroke:#181818;stroke-width:1;"/><path d="M661.9688,113.6406 Q661.3906,113.9375 660.75,114.0781 Q660.1094,114.2344 659.4063,114.2344 Q656.9063,114.2344 655.5781,112.5938 Q654.2656,110.9375 654.2656,107.8125 Q654.2656,104.6875 655.5781,103.0313 Q656.9063,101.375 659.4063,101.375 Q660.1094,101.375 660.75,101.5313 Q661.4063,101.6875 661.9688,101.9844 L661.9688,104.7031 Q661.3438,104.125 660.75,103.8594 Q660.1563,103.5781 659.5313,103.5781 Q658.1875,103.5781 657.5,104.6563 Q656.8125,105.7188 656.8125,107.8125 Q656.8125,109.9063 657.5,110.9844 Q658.1875,112.0469 659.5313,112.0469 Q660.1563,112.0469 660.75,111.7813 Q661.3438,111.5 661.9688,110.9219 L661.9688,113.6406 Z " fill="#000000"/><text fill="#000000" font-family="sans-serif" font-size="14" lengthAdjust="spacing" textLength="42.4238" x="673" y="112.8467">Lobby</text><line style="stroke:#181818;stroke-width:0.5;" x1="645" x2="717.4238" y1="124" y2="124"/><line style="stroke:#181818;stroke-width:0.5;" x1="645" x2="717.4238" y1="132" y2="132"/></g><!--class DashboardMenus--><g id="elem_DashboardMenus"><rect codeLine="65" fill="#F1F1F1" height="48" id="DashboardMenus" rx="2.5" ry="2.5" style="stroke:#181818;stroke-width:0.5;" width="153.9326" x="314" y="92"/><ellipse cx="329" cy="108" fill="#ADD1B2" rx="11" ry="11" style="stroke:#181818;stroke-width:1;"/><path d="M331.9688,113.6406 Q331.3906,113.9375 330.75,114.0781 Q330.1094,114.2344 329.4063,114.2344 Q326.9063,114.2344 325.5781,112.5938 Q324.2656,110.9375 324.2656,107.8125 Q324.2656,104.6875 325.5781,103.0313 Q326.9063,101.375 329.4063,101.375 Q330.1094,101.375 330.75,101.5313 Q331.4063,101.6875 331.9688,101.9844 L331.9688,104.7031 Q331.3438,104.125 330.75,103.8594 Q330.1563,103.5781 329.5313,103.5781 Q328.1875,103.5781 327.5,104.6563 Q326.8125,105.7188 326.8125,107.8125 Q326.8125,109.9063 327.5,110.9844 Q328.1875,112.0469 329.5313,112.0469 Q330.1563,112.0469 330.75,111.7813 Q331.3438,111.5 331.9688,110.9219 L331.9688,113.6406 Z " fill="#000000"/><text fill="#000000" font-family="sans-serif" font-size="14" lengthAdjust="spacing" textLength="121.9326" x="343" y="112.8467">DashboardMenus</text><line style="stroke:#181818;stroke-width:0.5;" x1="315" x2="466.9326" y1="124" y2="124"/><line style="stroke:#181818;stroke-width:0.5;" x1="315" x2="466.9326" y1="132" y2="132"/></g><!--class DashboardReservations--><g id="elem_DashboardReservations"><rect codeLine="66" fill="#F1F1F1" height="48" id="DashboardReservations" rx="2.5" ry="2.5" style="stroke:#181818;stroke-width:0.5;" width="199.1797" x="753.5" y="92"/><ellipse cx="768.5" cy="108" fill="#ADD1B2" rx="11" ry="11" style="stroke:#181818;stroke-width:1;"/><path d="M771.4688,113.6406 Q770.8906,113.9375 770.25,114.0781 Q769.6094,114.2344 768.9063,114.2344 Q766.4063,114.2344 765.0781,112.5938 Q763.7656,110.9375 763.7656,107.8125 Q763.7656,104.6875 765.0781,103.0313 Q766.4063,101.375 768.9063,101.375 Q769.6094,101.375 770.25,101.5313 Q770.9063,101.6875 771.4688,101.9844 L771.4688,104.7031 Q770.8438,104.125 770.25,103.8594 Q769.6563,103.5781 769.0313,103.5781 Q767.6875,103.5781 767,104.6563 Q766.3125,105.7188 766.3125,107.8125 Q766.3125,109.9063 767,110.9844 Q767.6875,112.0469 769.0313,112.0469 Q769.6563,112.0469 770.25,111.7813 Q770.8438,111.5 771.4688,110.9219 L771.4688,113.6406 Z " fill="#000000"/><text fill="#000000" font-family="sans-serif" font-size="14" lengthAdjust="spacing" textLength="167.1797" x="782.5" y="112.8467">DashboardReservations</text><line style="stroke:#181818;stroke-width:0.5;" x1="754.5" x2="951.6797" y1="124" y2="124"/><line style="stroke:#181818;stroke-width:0.5;" x1="754.5" x2="951.6797" y1="132" y2="132"/></g><!--class Auth--><g id="elem_Auth"><rect codeLine="70" fill="#F1F1F1" height="64.2969" id="Auth" rx="2.5" ry="2.5" style="stroke:#181818;stroke-width:0.5;" width="213.373" x="45.5" y="84"/><ellipse cx="131.5303" cy="100" fill="#ADD1B2" rx="11" ry="11" style="stroke:#181818;stroke-width:1;"/><path d="M134.499,105.6406 Q133.9209,105.9375 133.2803,106.0781 Q132.6396,106.2344 131.9365,106.2344 Q129.4365,106.2344 128.1084,104.5938 Q126.7959,102.9375 126.7959,99.8125 Q126.7959,96.6875 128.1084,95.0313 Q129.4365,93.375 131.9365,93.375 Q132.6396,93.375 133.2803,93.5313 Q133.9365,93.6875 134.499,93.9844 L134.499,96.7031 Q133.874,96.125 133.2803,95.8594 Q132.6865,95.5781 132.0615,95.5781 Q130.7178,95.5781 130.0303,96.6563 Q129.3428,97.7188 129.3428,99.8125 Q129.3428,101.9063 130.0303,102.9844 Q130.7178,104.0469 132.0615,104.0469 Q132.6865,104.0469 133.2803,103.7813 Q133.874,103.5 134.499,102.9219 L134.499,105.6406 Z " fill="#000000"/><text fill="#000000" font-family="sans-serif" font-size="14" lengthAdjust="spacing" textLength="32.8125" x="152.0303" y="104.8467">Auth</text><line style="stroke:#181818;stroke-width:0.5;" x1="46.5" x2="257.873" y1="116" y2="116"/><line style="stroke:#181818;stroke-width:0.5;" x1="46.5" x2="257.873" y1="124" y2="124"/><ellipse cx="56.5" cy="137.6484" fill="#84BE84" rx="3" ry="3" style="stroke:#038048;stroke-width:1;"/><text fill="#000000" font-family="sans-serif" font-size="14" lengthAdjust="spacing" textLength="187.373" x="65.5" y="140.9951">verifyToken(req, res, next)</text></g><!--class DatabaseConfig--><g id="elem_DatabaseConfig"><rect codeLine="76" fill="#F1F1F1" height="48" id="DatabaseConfig" rx="2.5" ry="2.5" style="stroke:#181818;stroke-width:0.5;" width="143.7197" x="46" y="436.5"/><ellipse cx="61" cy="452.5" fill="#ADD1B2" rx="11" ry="11" style="stroke:#181818;stroke-width:1;"/><path d="M63.9688,458.1406 Q63.3906,458.4375 62.75,458.5781 Q62.1094,458.7344 61.4063,458.7344 Q58.9063,458.7344 57.5781,457.0938 Q56.2656,455.4375 56.2656,452.3125 Q56.2656,449.1875 57.5781,447.5313 Q58.9063,445.875 61.4063,445.875 Q62.1094,445.875 62.75,446.0313 Q63.4063,446.1875 63.9688,446.4844 L63.9688,449.2031 Q63.3438,448.625 62.75,448.3594 Q62.1563,448.0781 61.5313,448.0781 Q60.1875,448.0781 59.5,449.1563 Q58.8125,450.2188 58.8125,452.3125 Q58.8125,454.4063 59.5,455.4844 Q60.1875,456.5469 61.5313,456.5469 Q62.1563,456.5469 62.75,456.2813 Q63.3438,456 63.9688,455.4219 L63.9688,458.1406 Z " fill="#000000"/><text fill="#000000" font-family="sans-serif" font-size="14" lengthAdjust="spacing" textLength="111.7197" x="75" y="457.3467">DatabaseConfig</text><line style="stroke:#181818;stroke-width:0.5;" x1="47" x2="188.7197" y1="468.5" y2="468.5"/><line style="stroke:#181818;stroke-width:0.5;" x1="47" x2="188.7197" y1="476.5" y2="476.5"/></g><!--link StudentRoutes to StudentController--><g id="link_StudentRoutes_StudentController"><path codeLine="80" d="M493.22,312.09 C494.21,337.36 495.3941,367.6546 496.5841,397.9046 " fill="none" id="StudentRoutes-to-StudentController" style="stroke:#181818;stroke-width:1;"/><polygon fill="#181818" points="496.82,403.9,500.4631,394.7497,496.6235,398.9039,492.4693,395.0642,496.82,403.9" style="stroke:#181818;stroke-width:1;"/></g><!--link MenuRoutes to MenuController--><g id="link_MenuRoutes_MenuController"><path codeLine="81" d="M242.5,312.09 C254.01,335.17 267.4128,362.0504 281.6028,390.5104 " fill="none" id="MenuRoutes-to-MenuController" style="stroke:#181818;stroke-width:1;"/><polygon fill="#181818" points="284.28,395.88,283.8439,386.0408,282.049,391.4054,276.6844,389.6105,284.28,395.88" style="stroke:#181818;stroke-width:1;"/></g><!--link ReservationRoutes to ReservationController--><g id="link_ReservationRoutes_ReservationController"><path codeLine="82" d="M747.94,312.09 C739.91,339.66 729.7381,374.5794 720.5181,406.2294 " fill="none" id="ReservationRoutes-to-ReservationController" style="stroke:#181818;stroke-width:1;"/><polygon fill="#181818" points="718.84,411.99,725.1975,404.4679,720.2384,407.1895,717.5168,402.2304,718.84,411.99" style="stroke:#181818;stroke-width:1;"/></g><!--link StudentController to StudentModel--><g id="link_StudentController_StudentModel"><path codeLine="84" d="M500.38,517.25 C501.29,554.1 502.3315,596.5018 503.2815,634.8618 " fill="none" id="StudentController-to-StudentModel" style="stroke:#181818;stroke-width:1;"/><polygon fill="#181818" points="503.43,640.86,507.206,631.7637,503.3062,635.8615,499.2084,631.9618,503.43,640.86" style="stroke:#181818;stroke-width:1;"/></g><!--link MenuController to MenuModel--><g id="link_MenuController_MenuModel"><path codeLine="85" d="M315.48,525.03 C315.16,563.42 314.8088,605.8902 314.5088,642.7802 " fill="none" id="MenuController-to-MenuModel" style="stroke:#181818;stroke-width:1;"/><polygon fill="#181818" points="314.46,648.78,318.5331,639.8128,314.5007,643.7802,310.5333,639.7478,314.46,648.78" style="stroke:#181818;stroke-width:1;"/></g><!--link ReservationController to ReservationModel--><g id="link_ReservationController_ReservationModel"><path codeLine="86" d="M703.43,509.22 C701.93,554.69 699.8973,616.3632 698.4973,658.9232 " fill="none" id="ReservationController-to-ReservationModel" style="stroke:#181818;stroke-width:1;"/><polygon fill="#181818" points="698.3,664.92,702.5937,656.0564,698.4644,659.9227,694.5981,655.7934,698.3,664.92" style="stroke:#181818;stroke-width:1;"/></g><!--link LoginPage to StudentRoutes--><g id="link_LoginPage_StudentRoutes"><path codeLine="88" d="M546.83,140.21 C535.67,168.47 518.9757,210.7301 506.5357,242.2001 " fill="none" id="LoginPage-to-StudentRoutes" style="stroke:#181818;stroke-width:1;stroke-dasharray:7.0,7.0;"/><polygon fill="#181818" points="504.33,247.78,511.3585,240.8807,506.1681,243.1301,503.9186,237.9397,504.33,247.78" style="stroke:#181818;stroke-width:1;"/><text fill="#000000" font-family="sans-serif" font-size="13" lengthAdjust="spacing" textLength="29.7832" x="530" y="193.0669">uses</text></g><!--link Lobby to ReservationRoutes--><g id="link_Lobby_ReservationRoutes"><path codeLine="89" d="M691.89,140.21 C705.15,168.47 725.0422,210.8778 739.8022,242.3478 " fill="none" id="Lobby-to-ReservationRoutes" style="stroke:#181818;stroke-width:1;stroke-dasharray:7.0,7.0;"/><polygon fill="#181818" points="742.35,247.78,742.1498,237.9332,740.2268,243.2532,734.9068,241.3302,742.35,247.78" style="stroke:#181818;stroke-width:1;"/><text fill="#000000" font-family="sans-serif" font-size="13" lengthAdjust="spacing" textLength="29.7832" x="717" y="193.0669">uses</text></g><!--link DashboardMenus to MenuRoutes--><g id="link_DashboardMenus_MenuRoutes"><path codeLine="90" d="M367.5,140.21 C338.89,168.47 294.728,212.0929 262.878,243.5629 " fill="none" id="DashboardMenus-to-MenuRoutes" style="stroke:#181818;stroke-width:1;stroke-dasharray:7.0,7.0;"/><polygon fill="#181818" points="258.61,247.78,267.8234,244.2997,262.1667,244.2657,262.2006,238.609,258.61,247.78" style="stroke:#181818;stroke-width:1;"/><text fill="#000000" font-family="sans-serif" font-size="13" lengthAdjust="spacing" textLength="29.7832" x="324" y="193.0669">uses</text></g><!--link DashboardReservations to ReservationRoutes--><g id="link_DashboardReservations_ReservationRoutes"><path codeLine="91" d="M839.25,140.21 C822.5,168.47 797.2089,211.1483 778.5589,242.6183 " fill="none" id="DashboardReservations-to-ReservationRoutes" style="stroke:#181818;stroke-width:1;stroke-dasharray:7.0,7.0;"/><polygon fill="#181818" points="775.5,247.78,783.5295,242.0768,778.0491,243.4786,776.6473,237.9982,775.5,247.78" style="stroke:#181818;stroke-width:1;"/><text fill="#000000" font-family="sans-serif" font-size="13" lengthAdjust="spacing" textLength="29.7832" x="814" y="193.0669">uses</text></g><!--link Auth to StudentRoutes--><g id="link_Auth_StudentRoutes"><path codeLine="93" d="M224.08,148 C247.31,156.95 273.41,165.92 298,172 C325.83,178.88 335.46,169.17 362,180 C399.95,195.49 432.0778,220.9632 456.6978,243.7632 " fill="none" id="Auth-to-StudentRoutes" style="stroke:#181818;stroke-width:1;"/><polygon fill="#181818" points="461.1,247.84,457.2145,238.79,457.4315,244.4427,451.7788,244.6596,461.1,247.84" style="stroke:#181818;stroke-width:1;"/></g><!--link Auth to MenuRoutes--><g id="link_Auth_MenuRoutes"><path codeLine="94" d="M166.46,148.24 C179.74,176.92 196.8006,213.7546 210.0606,242.4146 " fill="none" id="Auth-to-MenuRoutes" style="stroke:#181818;stroke-width:1;"/><polygon fill="#181818" points="212.58,247.86,212.4312,238.0123,210.4805,243.3222,205.1706,241.3715,212.58,247.86" style="stroke:#181818;stroke-width:1;"/></g><!--link Auth to ReservationRoutes--><g id="link_Auth_ReservationRoutes"><path codeLine="95" d="M220.43,148.11 C244.46,157.59 271.96,166.86 298,172 C356.89,183.63 509.44,166.81 568,180 C594.99,186.08 600.24,192.67 625,205 C651.57,218.24 675.2044,231.2264 699.1244,244.9364 " fill="none" id="Auth-to-ReservationRoutes" style="stroke:#181818;stroke-width:1;"/><polygon fill="#181818" points="704.33,247.92,698.5107,239.9742,699.992,245.4336,694.5326,246.9149,704.33,247.92" style="stroke:#181818;stroke-width:1;"/></g><!--link DatabaseConfig to models--><g id="link_DatabaseConfig_models"><path codeLine="97" d="M125.86,484.8 C135.965,514.735 154.0825,568.425 169.8775,615.2338 C177.775,638.6381 185.0919,660.3222 190.5363,676.4564 C190.8765,677.4648 191.2095,678.4515 191.5348,679.4156 C191.6161,679.6566 189.7786,674.2112 189.859,674.4494 " fill="none" id="DatabaseConfig-to-models" style="stroke:#181818;stroke-width:1;stroke-dasharray:7.0,7.0;"/><polygon fill="#181818" points="191.7774,680.1344,192.6898,670.3279,190.1787,675.3969,185.1098,672.8858,191.7774,680.1344" style="stroke:#181818;stroke-width:1;"/><text fill="#000000" font-family="sans-serif" font-size="13" lengthAdjust="spacing" textLength="60.9565" x="155" y="570.0669">initializes</text></g><!--SRC=[jLPBRjim4Dtp55mwI9m3Q14WIBeeqA15aWjGv5XcGvFga79-wA5wXbmi5ANQ52dQ2Ofg4GJp7ZblvWq7RXb_O0rGYvo-4aBzruwXZH6Wh8_IyUEAMKllN2T0kviUZS3-Mr8fAlgz_WdSVHK9fCscHgZyUPIwIK1k4C4KGUsGMNZxmmgC3VDHtgaS_xtxBodZ1dJtwHfMmDS-npLpa202B4VPScbqGMEBu55_s7IrWkC2Ry42RfdpDtvQ9rZ7X2aqO_WxiJfqs2W5MFJxQaT9X9nIZk0RCl8M9mdQjU80wWk3CgfC8tKKFUZcKOKzgI1l5XgqpK8Dk5ByKgaUiX-H7NbyL7t4pT9ofZceGmmlB89pSJD3WQPpK9o7snGTyY0qqZh00LwmjgteboS_-zP-qCR_Sd5K-x_VFzEhhOJ7l5NV-l7zuV4iNjVFIUoQsNLj68emF2Kmzd3KCjtPKWW5ZmmX4tFPkNLMzHPGhfxlpGFe1SAlCzy6UqOrFBcyw7HZh6IJ9V6RaTL-LLy5U3peZqw7PhcyoDSAYSpl2TCdJN87UzBi0zgbYzvKb39iKv9iZByP1t3-NIO91ohPcKpFpo-Irr7Hpe8bmUy0vrMCbAdzWHlr8oN5Ot3uNX9iZweVu7rudsKVosuZP6fio3d-FgYerD99fkGBs7S0]--></g></svg>