<svg xmlns="http://www.w3.org/2000/svg" xmlns:xlink="http://www.w3.org/1999/xlink" contentStyleType="text/css" height="734px" preserveAspectRatio="none" style="width:391px;height:734px;background:#FFFFFF;" version="1.1" viewBox="0 0 391 734" width="391px" zoomAndPan="magnify"><title>Sistema de comedor universitario</title><defs/><g><text fill="#000000" font-family="sans-serif" font-size="14" font-weight="bold" lengthAdjust="spacing" textLength="266.9707" x="55.375" y="22.9951">Sistema de comedor universitario</text><!--class Comedor--><g id="elem_Comedor"><rect codeLine="2" fill="#F1F1F1" height="129.4844" id="Comedor" rx="2.5" ry="2.5" style="stroke:#181818;stroke-width:0.5;" width="143.8994" x="219" y="44.2969"/><ellipse cx="255.6448" cy="60.2969" fill="#ADD1B2" rx="11" ry="11" style="stroke:#181818;stroke-width:1;"/><path d="M258.6136,65.9375 Q258.0354,66.2344 257.3948,66.375 Q256.7542,66.5313 256.0511,66.5313 Q253.5511,66.5313 252.2229,64.8906 Q250.9104,63.2344 250.9104,60.1094 Q250.9104,56.9844 252.2229,55.3281 Q253.5511,53.6719 256.0511,53.6719 Q256.7542,53.6719 257.3948,53.8281 Q258.0511,53.9844 258.6136,54.2813 L258.6136,57 Q257.9886,56.4219 257.3948,56.1563 Q256.8011,55.875 256.1761,55.875 Q254.8323,55.875 254.1448,56.9531 Q253.4573,58.0156 253.4573,60.1094 Q253.4573,62.2031 254.1448,63.2813 Q254.8323,64.3438 256.1761,64.3438 Q256.8011,64.3438 257.3948,64.0781 Q257.9886,63.7969 258.6136,63.2188 L258.6136,65.9375 Z " fill="#000000"/><text fill="#000000" font-family="sans-serif" font-size="14" lengthAdjust="spacing" textLength="63.7998" x="274.4548" y="65.1436">Comedor</text><line style="stroke:#181818;stroke-width:0.5;" x1="220" x2="361.8994" y1="76.2969" y2="76.2969"/><rect fill="none" height="6" style="stroke:#C82930;stroke-width:1;" width="6" x="227" y="86.9453"/><text fill="#000000" font-family="sans-serif" font-size="14" lengthAdjust="spacing" textLength="80.5547" x="239" y="93.292">id: ObjectId</text><rect fill="none" height="6" style="stroke:#C82930;stroke-width:1;" width="6" x="227" y="103.2422"/><text fill="#000000" font-family="sans-serif" font-size="14" lengthAdjust="spacing" textLength="105.2803" x="239" y="109.5889">nombre: String</text><rect fill="none" height="6" style="stroke:#C82930;stroke-width:1;" width="6" x="227" y="119.5391"/><text fill="#000000" font-family="sans-serif" font-size="14" lengthAdjust="spacing" textLength="117.8994" x="239" y="125.8857">ubicacion: String</text><rect fill="none" height="6" style="stroke:#C82930;stroke-width:1;" width="6" x="227" y="135.8359"/><text fill="#000000" font-family="sans-serif" font-size="14" lengthAdjust="spacing" textLength="99.1006" x="239" y="142.1826">capacidad: int</text><rect fill="none" height="6" style="stroke:#C82930;stroke-width:1;" width="6" x="227" y="152.1328"/><text fill="#000000" font-family="sans-serif" font-size="14" lengthAdjust="spacing" textLength="108.2266" x="239" y="158.4795">horarios: String</text><line style="stroke:#181818;stroke-width:0.5;" x1="220" x2="361.8994" y1="165.7813" y2="165.7813"/></g><!--class Estudiante--><g id="elem_Estudiante"><rect codeLine="10" fill="#F1F1F1" height="129.4844" id="Estudiante" rx="2.5" ry="2.5" style="stroke:#181818;stroke-width:0.5;" width="155.2676" x="138.5" y="598.2969"/><ellipse cx="175.2956" cy="614.2969" fill="#ADD1B2" rx="11" ry="11" style="stroke:#181818;stroke-width:1;"/><path d="M178.2643,619.9375 Q177.6862,620.2344 177.0456,620.375 Q176.4049,620.5313 175.7018,620.5313 Q173.2018,620.5313 171.8737,618.8906 Q170.5612,617.2344 170.5612,614.1094 Q170.5612,610.9844 171.8737,609.3281 Q173.2018,607.6719 175.7018,607.6719 Q176.4049,607.6719 177.0456,607.8281 Q177.7018,607.9844 178.2643,608.2813 L178.2643,611 Q177.6393,610.4219 177.0456,610.1563 Q176.4518,609.875 175.8268,609.875 Q174.4831,609.875 173.7956,610.9531 Q173.1081,612.0156 173.1081,614.1094 Q173.1081,616.2031 173.7956,617.2813 Q174.4831,618.3438 175.8268,618.3438 Q176.4518,618.3438 177.0456,618.0781 Q177.6393,617.7969 178.2643,617.2188 L178.2643,619.9375 Z " fill="#000000"/><text fill="#000000" font-family="sans-serif" font-size="14" lengthAdjust="spacing" textLength="74.833" x="194.139" y="619.1436">Estudiante</text><line style="stroke:#181818;stroke-width:0.5;" x1="139.5" x2="292.7676" y1="630.2969" y2="630.2969"/><rect fill="none" height="6" style="stroke:#C82930;stroke-width:1;" width="6" x="146.5" y="640.9453"/><text fill="#000000" font-family="sans-serif" font-size="14" lengthAdjust="spacing" textLength="80.5547" x="158.5" y="647.292">id: ObjectId</text><rect fill="none" height="6" style="stroke:#C82930;stroke-width:1;" width="6" x="146.5" y="657.2422"/><text fill="#000000" font-family="sans-serif" font-size="14" lengthAdjust="spacing" textLength="105.2803" x="158.5" y="663.5889">nombre: String</text><rect fill="none" height="6" style="stroke:#C82930;stroke-width:1;" width="6" x="146.5" y="673.5391"/><text fill="#000000" font-family="sans-serif" font-size="14" lengthAdjust="spacing" textLength="95.9014" x="158.5" y="679.8857">correo: String</text><rect fill="none" height="6" style="stroke:#C82930;stroke-width:1;" width="6" x="146.5" y="689.8359"/><text fill="#000000" font-family="sans-serif" font-size="14" lengthAdjust="spacing" textLength="129.2676" x="158.5" y="696.1826">contrase&#241;a: String</text><rect fill="none" height="6" style="stroke:#C82930;stroke-width:1;" width="6" x="146.5" y="706.1328"/><text fill="#000000" font-family="sans-serif" font-size="14" lengthAdjust="spacing" textLength="117.3389" x="158.5" y="712.4795">matricula: String</text><line style="stroke:#181818;stroke-width:0.5;" x1="139.5" x2="292.7676" y1="719.7813" y2="719.7813"/></g><!--class Men?--><g id="elem_Men&#250;"><rect codeLine="18" fill="#F1F1F1" height="113.1875" id="Men&#250;" rx="2.5" ry="2.5" style="stroke:#181818;stroke-width:0.5;" width="156.9971" x="141.5" y="250.2969"/><ellipse cx="196.5293" cy="266.2969" fill="#ADD1B2" rx="11" ry="11" style="stroke:#181818;stroke-width:1;"/><path d="M199.498,271.9375 Q198.9199,272.2344 198.2793,272.375 Q197.6387,272.5313 196.9355,272.5313 Q194.4355,272.5313 193.1074,270.8906 Q191.7949,269.2344 191.7949,266.1094 Q191.7949,262.9844 193.1074,261.3281 Q194.4355,259.6719 196.9355,259.6719 Q197.6387,259.6719 198.2793,259.8281 Q198.9355,259.9844 199.498,260.2813 L199.498,263 Q198.873,262.4219 198.2793,262.1563 Q197.6855,261.875 197.0605,261.875 Q195.7168,261.875 195.0293,262.9531 Q194.3418,264.0156 194.3418,266.1094 Q194.3418,268.2031 195.0293,269.2813 Q195.7168,270.3438 197.0605,270.3438 Q197.6855,270.3438 198.2793,270.0781 Q198.873,269.7969 199.498,269.2188 L199.498,271.9375 Z " fill="#000000"/><text fill="#000000" font-family="sans-serif" font-size="14" lengthAdjust="spacing" textLength="38.4385" x="217.0293" y="271.1436">Men&#250;</text><line style="stroke:#181818;stroke-width:0.5;" x1="142.5" x2="297.4971" y1="282.2969" y2="282.2969"/><rect fill="none" height="6" style="stroke:#C82930;stroke-width:1;" width="6" x="149.5" y="292.9453"/><text fill="#000000" font-family="sans-serif" font-size="14" lengthAdjust="spacing" textLength="80.5547" x="161.5" y="299.292">id: ObjectId</text><rect fill="none" height="6" style="stroke:#C82930;stroke-width:1;" width="6" x="149.5" y="309.2422"/><text fill="#000000" font-family="sans-serif" font-size="14" lengthAdjust="spacing" textLength="81.3203" x="161.5" y="315.5889">fecha: Date</text><rect fill="none" height="6" style="stroke:#C82930;stroke-width:1;" width="6" x="149.5" y="325.5391"/><text fill="#000000" font-family="sans-serif" font-size="14" lengthAdjust="spacing" textLength="130.9971" x="161.5" y="331.8857">descripcion: String</text><rect fill="none" height="6" style="stroke:#C82930;stroke-width:1;" width="6" x="149.5" y="341.8359"/><text fill="#000000" font-family="sans-serif" font-size="14" lengthAdjust="spacing" textLength="100.29" x="161.5" y="348.1826">precio: double</text><line style="stroke:#181818;stroke-width:0.5;" x1="142.5" x2="297.4971" y1="355.4844" y2="355.4844"/></g><!--class Reserva--><g id="elem_Reserva"><rect codeLine="25" fill="#F1F1F1" height="80.5938" id="Reserva" rx="2.5" ry="2.5" style="stroke:#181818;stroke-width:0.5;" width="124.376" x="7" y="440.2969"/><ellipse cx="37.9785" cy="456.2969" fill="#ADD1B2" rx="11" ry="11" style="stroke:#181818;stroke-width:1;"/><path d="M40.9473,461.9375 Q40.3691,462.2344 39.7285,462.375 Q39.0879,462.5313 38.3848,462.5313 Q35.8848,462.5313 34.5566,460.8906 Q33.2441,459.2344 33.2441,456.1094 Q33.2441,452.9844 34.5566,451.3281 Q35.8848,449.6719 38.3848,449.6719 Q39.0879,449.6719 39.7285,449.8281 Q40.3848,449.9844 40.9473,450.2813 L40.9473,453 Q40.3223,452.4219 39.7285,452.1563 Q39.1348,451.875 38.5098,451.875 Q37.166,451.875 36.4785,452.9531 Q35.791,454.0156 35.791,456.1094 Q35.791,458.2031 36.4785,459.2813 Q37.166,460.3438 38.5098,460.3438 Q39.1348,460.3438 39.7285,460.0781 Q40.3223,459.7969 40.9473,459.2188 L40.9473,461.9375 Z " fill="#000000"/><text fill="#000000" font-family="sans-serif" font-size="14" lengthAdjust="spacing" textLength="56.8682" x="55.5293" y="461.1436">Reserva</text><line style="stroke:#181818;stroke-width:0.5;" x1="8" x2="130.376" y1="472.2969" y2="472.2969"/><rect fill="none" height="6" style="stroke:#C82930;stroke-width:1;" width="6" x="15" y="482.9453"/><text fill="#000000" font-family="sans-serif" font-size="14" lengthAdjust="spacing" textLength="80.5547" x="27" y="489.292">id: ObjectId</text><rect fill="none" height="6" style="stroke:#C82930;stroke-width:1;" width="6" x="15" y="499.2422"/><text fill="#000000" font-family="sans-serif" font-size="14" lengthAdjust="spacing" textLength="98.376" x="27" y="505.5889">estado: String</text><line style="stroke:#181818;stroke-width:0.5;" x1="8" x2="130.376" y1="512.8906" y2="512.8906"/></g><!--class Plato--><g id="elem_Plato"><rect codeLine="30" fill="#F1F1F1" height="64.2969" id="Plato" rx="2.5" ry="2.5" style="stroke:#181818;stroke-width:0.5;" width="131.2803" x="166.5" y="448.7969"/><ellipse cx="210.4415" cy="464.7969" fill="#ADD1B2" rx="11" ry="11" style="stroke:#181818;stroke-width:1;"/><path d="M213.4103,470.4375 Q212.8321,470.7344 212.1915,470.875 Q211.5509,471.0313 210.8478,471.0313 Q208.3478,471.0313 207.0196,469.3906 Q205.7071,467.7344 205.7071,464.6094 Q205.7071,461.4844 207.0196,459.8281 Q208.3478,458.1719 210.8478,458.1719 Q211.5509,458.1719 212.1915,458.3281 Q212.8478,458.4844 213.4103,458.7813 L213.4103,461.5 Q212.7853,460.9219 212.1915,460.6563 Q211.5978,460.375 210.9728,460.375 Q209.629,460.375 208.9415,461.4531 Q208.254,462.5156 208.254,464.6094 Q208.254,466.7031 208.9415,467.7813 Q209.629,468.8438 210.9728,468.8438 Q211.5978,468.8438 212.1915,468.5781 Q212.7853,468.2969 213.4103,467.7188 L213.4103,470.4375 Z " fill="#000000"/><text fill="#000000" font-family="sans-serif" font-size="14" lengthAdjust="spacing" textLength="34.9658" x="230.8729" y="469.6436">Plato</text><line style="stroke:#181818;stroke-width:0.5;" x1="167.5" x2="296.7803" y1="480.7969" y2="480.7969"/><rect fill="none" height="6" style="stroke:#C82930;stroke-width:1;" width="6" x="174.5" y="491.4453"/><text fill="#000000" font-family="sans-serif" font-size="14" lengthAdjust="spacing" textLength="105.2803" x="186.5" y="497.792">nombre: String</text><line style="stroke:#181818;stroke-width:0.5;" x1="167.5" x2="296.7803" y1="505.0938" y2="505.0938"/></g><!--link Reserva to Estudiante--><g id="link_Reserva_Estudiante"><path codeLine="34" d="M101.26,521.2969 C119.6,543.7569 143,572.4169 163.89,597.9869 " fill="none" id="Reserva-Estudiante" style="stroke:#181818;stroke-width:1;"/><text fill="#000000" font-family="sans-serif" font-size="13" lengthAdjust="spacing" textLength="31.3511" x="140" y="564.3638">hace</text></g><!--reverse link Men? to Reserva--><g id="link_Men&#250;_Reserva"><path codeLine="36" d="M167.0131,368.1472 C145.0631,393.1672 123.63,417.5669 103.69,440.2869 " fill="none" id="Men&#250;-backto-Reserva" style="stroke:#181818;stroke-width:1;stroke-dasharray:7.0,7.0;"/><polygon fill="#181818" points="170.97,363.6369,162.0278,367.7644,167.6726,367.3955,168.0415,373.0403,170.97,363.6369" style="stroke:#181818;stroke-width:1;"/><text fill="#000000" font-family="sans-serif" font-size="13" lengthAdjust="spacing" textLength="22.9785" x="146" y="406.3638">usa</text></g><!--reverse link Comedor to Men?--><g id="link_Comedor_Men&#250;"><path codeLine="38" d="M263.8619,184.7191 C254.9119,209.4191 248.84,226.1769 240.19,250.0669 " fill="none" id="Comedor-backto-Men&#250;" style="stroke:#181818;stroke-width:1;"/><polygon fill="none" points="267.95,173.4369,262.1452,177.7153,263.8619,184.7191,269.6667,180.4407,267.95,173.4369" style="stroke:#181818;stroke-width:1;"/><text fill="#000000" font-family="sans-serif" font-size="13" lengthAdjust="spacing" textLength="56.2847" x="256" y="216.3638">contiene</text></g><!--reverse link Men? to Plato--><g id="link_Men&#250;_Plato"><path codeLine="40" d="M215.2751,375.4916 C214.8251,390.7016 215.39,395.1569 217,410.2969 C218.35,422.9369 221.04,436.6569 223.78,448.5469 " fill="none" id="Men&#250;-backto-Plato" style="stroke:#181818;stroke-width:1;"/><polygon fill="#181818" points="215.63,363.4969,211.4543,369.376,215.2751,375.4916,219.4508,369.6125,215.63,363.4969" style="stroke:#181818;stroke-width:1;"/><text fill="#000000" font-family="sans-serif" font-size="13" lengthAdjust="spacing" textLength="100.1279" x="218" y="406.3638">compuesto_por</text></g><!--reverse link Comedor to Estudiante--><g id="link_Comedor_Estudiante"><path codeLine="42" d="M315.7999,179.0813 C318.5999,189.0013 319.41,193.4569 321,203.2969 C343.59,342.8369 362.53,388.1669 315,521.2969 C305.27,548.5569 288.7,575.3269 271.87,598.0769 " fill="none" id="Comedor-backto-Estudiante" style="stroke:#181818;stroke-width:1;stroke-dasharray:7.0,7.0;"/><polygon fill="#181818" points="314.17,173.3069,312.7652,183.055,315.5282,178.1189,320.4644,180.8819,314.17,173.3069" style="stroke:#181818;stroke-width:1;"/><text fill="#000000" font-family="sans-serif" font-size="13" lengthAdjust="spacing" textLength="38.7207" x="345" y="406.3638">usa el</text></g><!--SRC=[bP6nJWCn38RtF8LdfEi3tC0230m8H1y0-H93ZUxYo77AW7WeLjQ-62bD3sXH9RBv- -tyVnnZ6mcMd8qcX43WPQ8W2YNocZIpeR8uFsBESD6qLmVrTC2XXzlXcRnTXuQYJ8DI3qjJZayDbe4zUfPum3scYWFMQpXQWolHhMMUUzzSix_ALW9ZDFft0Y-g94SmccAcpJiUA1FMofSHZqFSKDnydF9_9B-gSvTer4YWx9NJ7mj8IfNs4AGC8tsRt5CcNUCf6yg6GOxptOreCWyUBADs_LXYLr8tM_MmGa_ExUj5IOlpzjeUIaRdzjyFqWLvYTsiRXV95ElqZfmrlONPDaofrCJoa4H_PTZPj9k_V836Jm00]--></g></svg>