<svg xmlns="http://www.w3.org/2000/svg" xmlns:xlink="http://www.w3.org/1999/xlink" contentStyleType="text/css" height="533px" preserveAspectRatio="none" style="width:333px;height:533px;background:#FFFFFF;" version="1.1" viewBox="0 0 333 533" width="333px" zoomAndPan="magnify"><title>Cancelar una reserva</title><defs/><g><text fill="#000000" font-family="sans-serif" font-size="14" font-weight="bold" lengthAdjust="spacing" textLength="167.4668" x="76.2551" y="22.9951">Cancelar una reserva</text><ellipse cx="94.5" cy="53.2969" fill="#222222" rx="10" ry="10" style="stroke:#222222;stroke-width:1;"/><g id="Inicio"><rect fill="#F1F1F1" height="50" rx="12.5" ry="12.5" style="stroke:#181818;stroke-width:0.5;" width="57.0439" x="66" y="124.2969"/><line style="stroke:#181818;stroke-width:0.5;" x1="66" x2="123.0439" y1="150.5938" y2="150.5938"/><text fill="#000000" font-family="sans-serif" font-size="14" lengthAdjust="spacing" textLength="37.0439" x="76" y="142.292">Inicio</text></g><g id="SeleccionarReserva"><rect fill="#F1F1F1" height="50" rx="12.5" ry="12.5" style="stroke:#181818;stroke-width:0.5;" width="157.9287" x="15.5" y="251.2969"/><line style="stroke:#181818;stroke-width:0.5;" x1="15.5" x2="173.4287" y1="277.5938" y2="277.5938"/><text fill="#000000" font-family="sans-serif" font-size="14" lengthAdjust="spacing" textLength="137.9287" x="25.5" y="269.292">SeleccionarReserva</text></g><g id="ConfirmarCancelaci&#243;n"><rect fill="#F1F1F1" height="50" rx="12.5" ry="12.5" style="stroke:#181818;stroke-width:0.5;" width="174.793" x="7" y="378.2969"/><line style="stroke:#181818;stroke-width:0.5;" x1="7" x2="181.793" y1="404.5938" y2="404.5938"/><text fill="#000000" font-family="sans-serif" font-size="14" lengthAdjust="spacing" textLength="154.793" x="17" y="396.292">ConfirmarCancelaci&#243;n</text></g><ellipse cx="94.5" cy="516.2969" fill="none" rx="11" ry="11" style="stroke:#222222;stroke-width:1;"/><ellipse cx="94.5" cy="516.2969" fill="#222222" rx="6" ry="6" style="stroke:#222222;stroke-width:1;"/><!--link *start* to Inicio--><g id="link_*start*_Inicio"><path d="M94.5,63.3069 C94.5,77.1869 94.5,98.2669 94.5,118.1369 " fill="none" id="*start*-to-Inicio" style="stroke:#181818;stroke-width:1;"/><polygon fill="#181818" points="94.5,124.1369,98.5,115.1369,94.5,119.1369,90.5,115.1369,94.5,124.1369" style="stroke:#181818;stroke-width:1;"/></g><!--link Inicio to SeleccionarReserva--><g id="link_Inicio_SeleccionarReserva"><path d="M94.5,174.3969 C94.5,196.5369 94.5,223.1569 94.5,245.2669 " fill="none" id="Inicio-to-SeleccionarReserva" style="stroke:#181818;stroke-width:1;"/><polygon fill="#181818" points="94.5,251.2669,98.5,242.2669,94.5,246.2669,90.5,242.2669,94.5,251.2669" style="stroke:#181818;stroke-width:1;"/><text fill="#000000" font-family="sans-serif" font-size="13" lengthAdjust="spacing" textLength="230.4771" x="95.5" y="217.3638">El estudiante accede a las reservas</text></g><!--link SeleccionarReserva to ConfirmarCancelaci?n--><g id="link_SeleccionarReserva_ConfirmarCancelaci&#243;n"><path d="M94.5,301.3969 C94.5,323.5369 94.5,350.1569 94.5,372.2669 " fill="none" id="SeleccionarReserva-to-ConfirmarCancelaci&#243;n" style="stroke:#181818;stroke-width:1;"/><polygon fill="#181818" points="94.5,378.2669,98.5,369.2669,94.5,373.2669,90.5,369.2669,94.5,378.2669" style="stroke:#181818;stroke-width:1;"/><text fill="#000000" font-family="sans-serif" font-size="13" lengthAdjust="spacing" textLength="123.1763" x="95.5" y="344.3638">Selecciona reserva</text></g><!--link ConfirmarCancelaci?n to *end*--><g id="link_ConfirmarCancelaci&#243;n_*end*"><path d="M94.5,428.3869 C94.5,452.3569 94.5,481.9969 94.5,499.2369 " fill="none" id="ConfirmarCancelaci&#243;n-to-*end*" style="stroke:#181818;stroke-width:1;"/><polygon fill="#181818" points="94.5,505.2369,98.5,496.2369,94.5,500.2369,90.5,496.2369,94.5,505.2369" style="stroke:#181818;stroke-width:1;"/><text fill="#000000" font-family="sans-serif" font-size="13" lengthAdjust="spacing" textLength="123.2334" x="95.5" y="471.3638">Reserva cancelada</text></g><!--SRC=[ROun3i8m34NtdEBFIBr01vQAWHL6n60vHh8KNCb9kHX7u68aXCBIwSlsyzClMf9W8cD9v5YCu9B57nGkkok6OO-ZAUiSGi_FwYn9k0v6VkeqHXmI99SbAbaH4BF46aYKLsKE6u_DDyrsKx-JVukmlfvMbN_yrseRRPBMTyIgvNwEz0O0]--></g></svg>