<svg xmlns="http://www.w3.org/2000/svg" xmlns:xlink="http://www.w3.org/1999/xlink" contentStyleType="text/css" height="751px" preserveAspectRatio="none" style="width:346px;height:751px;background:#FFFFFF;" version="1.1" viewBox="0 0 346 751" width="346px" zoomAndPan="magnify"><defs/><g><!--entity Estudiante--><g id="elem_Estudiante"><ellipse cx="55.4165" cy="481.5" fill="#F1F1F1" rx="8" ry="8" style="stroke:#181818;stroke-width:0.5;"/><path d="M55.4165,489.5 L55.4165,516.5 M42.4165,497.5 L68.4165,497.5 M55.4165,516.5 L42.4165,531.5 M55.4165,516.5 L68.4165,531.5 " fill="none" style="stroke:#181818;stroke-width:0.5;"/><text fill="#000000" font-family="sans-serif" font-size="14" lengthAdjust="spacing" textLength="74.833" x="18" y="545.9951">Estudiante</text></g><g id="elem_Registrar cuenta"><ellipse cx="252.6962" cy="306.2392" fill="#F1F1F1" rx="79.1962" ry="18.2392" style="stroke:#181818;stroke-width:0.5;"/><text fill="#000000" font-family="sans-serif" font-size="14" lengthAdjust="spacing" textLength="116.5664" x="192.4383" y="309.7091">Registrar cuenta</text></g><g id="elem_Login"><ellipse cx="252.4641" cy="374.0557" fill="#F1F1F1" rx="38.4641" ry="14.5557" style="stroke:#181818;stroke-width:0.5;"/><text fill="#000000" font-family="sans-serif" font-size="14" lengthAdjust="spacing" textLength="38.0146" x="231.59" y="377.5106">Login</text></g><g id="elem_Actualizar perfil"><ellipse cx="252.5978" cy="441.2196" fill="#F1F1F1" rx="76.5978" ry="17.7196" style="stroke:#181818;stroke-width:0.5;"/><text fill="#000000" font-family="sans-serif" font-size="14" lengthAdjust="spacing" textLength="110.0928" x="194.5514" y="444.9671">Actualizar perfil</text></g><g id="elem_Hacer reserva"><ellipse cx="252.6255" cy="510.8251" fill="#F1F1F1" rx="72.1255" ry="16.8251" style="stroke:#181818;stroke-width:0.5;"/><text fill="#000000" font-family="sans-serif" font-size="14" lengthAdjust="spacing" textLength="98.5195" x="200.3657" y="514.5727">Hacer reserva</text></g><g id="elem_Cancelar reserva"><ellipse cx="252.7415" cy="581.9483" fill="#F1F1F1" rx="80.2415" ry="18.4483" style="stroke:#181818;stroke-width:0.5;"/><text fill="#000000" font-family="sans-serif" font-size="14" lengthAdjust="spacing" textLength="119.1094" x="191.6114" y="585.302">Cancelar reserva</text></g><g id="elem_Consultar reservas"><ellipse cx="252.6129" cy="655.0226" fill="#F1F1F1" rx="85.6129" ry="19.5226" style="stroke:#181818;stroke-width:0.5;"/><text fill="#000000" font-family="sans-serif" font-size="14" lengthAdjust="spacing" textLength="131.7354" x="186.7452" y="657.8693">Consultar reservas</text></g><g id="elem_Consultar men&#250;"><ellipse cx="252.6714" cy="727.8343" fill="#F1F1F1" rx="77.1714" ry="17.8343" style="stroke:#181818;stroke-width:0.5;"/><text fill="#000000" font-family="sans-serif" font-size="14" lengthAdjust="spacing" textLength="111.542" x="194.1031" y="731.5292">Consultar men&#250;</text></g><!--entity Administrador--><g id="elem_Administrador"><ellipse cx="55.54" cy="102.5" fill="#F1F1F1" rx="8" ry="8" style="stroke:#181818;stroke-width:0.5;"/><path d="M55.54,110.5 L55.54,137.5 M42.54,118.5 L68.54,118.5 M55.54,137.5 L42.54,152.5 M55.54,137.5 L68.54,152.5 " fill="none" style="stroke:#181818;stroke-width:0.5;"/><text fill="#000000" font-family="sans-serif" font-size="14" lengthAdjust="spacing" textLength="99.0801" x="6" y="166.9951">Administrador</text></g><g id="elem_Eliminar estudiante"><ellipse cx="252.6545" cy="25.9309" fill="#F1F1F1" rx="87.6545" ry="19.9309" style="stroke:#181818;stroke-width:0.5;"/><text fill="#000000" font-family="sans-serif" font-size="14" lengthAdjust="spacing" textLength="136.4111" x="184.449" y="28.7776">Eliminar estudiante</text></g><g id="elem_Crear men&#250;"><ellipse cx="252.4369" cy="97.1874" fill="#F1F1F1" rx="66.4369" ry="15.6874" style="stroke:#181818;stroke-width:0.5;"/><text fill="#000000" font-family="sans-serif" font-size="14" lengthAdjust="spacing" textLength="82.9268" x="207.9736" y="100.9349">Crear men&#250;</text></g><g id="elem_Actualizar men&#250;"><ellipse cx="252.7058" cy="166.0412" fill="#F1F1F1" rx="78.2058" ry="18.0412" style="stroke:#181818;stroke-width:0.5;"/><text fill="#000000" font-family="sans-serif" font-size="14" lengthAdjust="spacing" textLength="114.126" x="193.2743" y="169.6211">Actualizar men&#250;</text></g><g id="elem_Eliminar men&#250;"><ellipse cx="252.3767" cy="236.0753" fill="#F1F1F1" rx="73.3767" ry="17.0753" style="stroke:#181818;stroke-width:0.5;"/><text fill="#000000" font-family="sans-serif" font-size="14" lengthAdjust="spacing" textLength="101.8076" x="198.4728" y="239.8229">Eliminar men&#250;</text></g><!--link Estudiante to Registrar cuenta--><g id="link_Estudiante_Registrar cuenta"><path d="M72.62,472.99 C90.34,435.24 122.1,377.93 165,342 C176.1,332.7 184.3704,327.7764 197.7004,322.3664 " fill="none" id="Estudiante-to-Registrar cuenta" style="stroke:#181818;stroke-width:1;"/><polygon fill="#181818" points="203.26,320.11,193.4164,319.7882,198.627,321.9903,196.4249,327.2009,203.26,320.11" style="stroke:#181818;stroke-width:1;"/></g><!--link Estudiante to Login--><g id="link_Estudiante_Login"><path d="M88.52,472.92 C108.63,450.94 136.16,424.15 165,406 C182.08,395.25 197.5647,389.0924 214.7147,383.8224 " fill="none" id="Estudiante-to-Login" style="stroke:#181818;stroke-width:1;"/><polygon fill="#181818" points="220.45,382.06,210.6721,380.8801,215.6706,383.5287,213.0219,388.5271,220.45,382.06" style="stroke:#181818;stroke-width:1;"/></g><!--link Estudiante to Actualizar perfil--><g id="link_Estudiante_Actualizar perfil"><path d="M93.18,497.83 C126.61,485.83 170.2729,470.1573 204.9529,457.7073 " fill="none" id="Estudiante-to-Actualizar perfil" style="stroke:#181818;stroke-width:1;"/><polygon fill="#181818" points="210.6,455.68,200.7778,454.9562,205.8941,457.3694,203.4808,462.4857,210.6,455.68" style="stroke:#181818;stroke-width:1;"/></g><!--link Estudiante to Hacer reserva--><g id="link_Estudiante_Hacer reserva"><path d="M93.18,511 C117.67,511 144.69,511 174.23,511 " fill="none" id="Estudiante-to-Hacer reserva" style="stroke:#181818;stroke-width:1;"/><polygon fill="#181818" points="180.23,511,171.23,507,175.23,511,171.23,515,180.23,511" style="stroke:#181818;stroke-width:1;"/></g><!--link Estudiante to Cancelar reserva--><g id="link_Estudiante_Cancelar reserva"><path d="M93.18,524.35 C126.06,536.33 168.6519,551.8378 203.2419,564.4278 " fill="none" id="Estudiante-to-Cancelar reserva" style="stroke:#181818;stroke-width:1;"/><polygon fill="#181818" points="208.88,566.48,201.7909,559.643,204.1815,564.7699,199.0547,567.1605,208.88,566.48" style="stroke:#181818;stroke-width:1;"/></g><!--link Estudiante to Consultar reservas--><g id="link_Estudiante_Consultar reservas"><path d="M88.5,549.06 C108.7,571.32 136.34,598.75 165,618 C177.07,626.1 185.6717,630.7081 198.9717,636.3181 " fill="none" id="Estudiante-to-Consultar reservas" style="stroke:#181818;stroke-width:1;"/><polygon fill="#181818" points="204.5,638.65,197.7621,631.4666,199.8931,636.7068,194.6529,638.8377,204.5,638.65" style="stroke:#181818;stroke-width:1;"/></g><!--link Estudiante to Consultar men?--><g id="link_Estudiante_Consultar men&#250;"><path d="M70.85,549.11 C87.79,589.48 119.54,652.72 165,692 C175.95,701.46 184.1904,706.4436 197.5204,711.8536 " fill="none" id="Estudiante-to-Consultar men&#250;" style="stroke:#181818;stroke-width:1;"/><polygon fill="#181818" points="203.08,714.11,196.2449,707.0191,198.447,712.2297,193.2364,714.4318,203.08,714.11" style="stroke:#181818;stroke-width:1;"/></g><!--link Administrador to Eliminar estudiante--><g id="link_Administrador_Eliminar estudiante"><path d="M105.03,99.47 C123.46,87.69 144.86,74.66 165,64 C178.92,56.63 189.0534,51.8328 203.1734,45.7228 " fill="none" id="Administrador-to-Eliminar estudiante" style="stroke:#181818;stroke-width:1;"/><polygon fill="#181818" points="208.68,43.34,198.8316,43.2432,204.0912,45.3257,202.0087,50.5852,208.68,43.34" style="stroke:#181818;stroke-width:1;"/></g><!--link Administrador to Crear men?--><g id="link_Administrador_Crear men&#250;"><path d="M105.2,123.26 C133.86,118.12 164.1841,112.6687 193.4141,107.4287 " fill="none" id="Administrador-to-Crear men&#250;" style="stroke:#181818;stroke-width:1;"/><polygon fill="#181818" points="199.32,106.37,189.7554,104.0209,194.3985,107.2523,191.167,111.8953,199.32,106.37" style="stroke:#181818;stroke-width:1;"/></g><!--link Administrador to Actualizar men?--><g id="link_Administrador_Actualizar men&#250;"><path d="M105.2,140.49 C130.81,144.96 156.5591,149.4498 183.8691,154.2098 " fill="none" id="Administrador-to-Actualizar men&#250;" style="stroke:#181818;stroke-width:1;"/><polygon fill="#181818" points="189.78,155.24,181.6005,149.754,184.8543,154.3815,180.2268,157.6352,189.78,155.24" style="stroke:#181818;stroke-width:1;"/></g><!--link Administrador to Eliminar men?--><g id="link_Administrador_Eliminar men&#250;"><path d="M105.07,165.55 C123.42,177.51 144.76,190.58 165,201 C179.98,208.71 191.4708,213.748 206.4808,219.608 " fill="none" id="Administrador-to-Eliminar men&#250;" style="stroke:#181818;stroke-width:1;"/><polygon fill="#181818" points="212.07,221.79,205.141,214.7908,207.4124,219.9716,202.2316,222.243,212.07,221.79" style="stroke:#181818;stroke-width:1;"/></g><!--SRC=[VS-n2i9030RW_PuYentw2a8f1GSdto1SqnguvYINS_3HN7qnZmgjqEeMaYy9Vw31m28eZrU3dfMySHJdq5jKw9Bbdb6Ct5f2NH_XSA6Haoag-4nYM6t4EOuistRZBMFWHzcyaGuSjkI4dXIK4kbzvt2BuYdWFn4bvM0hIV_CHF9wLiwvffzOvbHz2J-hBd3f5KJBUhNdMgNrqixyA_Llj3pxa3S0]--></g></svg>