<svg xmlns="http://www.w3.org/2000/svg" xmlns:xlink="http://www.w3.org/1999/xlink" contentStyleType="text/css" height="787px" preserveAspectRatio="none" style="width:487px;height:787px;background:#FFFFFF;" version="1.1" viewBox="0 0 487 787" width="487px" zoomAndPan="magnify"><title>Registrar una cuenta de estudiante</title><defs/><g><text fill="#000000" font-family="sans-serif" font-size="14" font-weight="bold" lengthAdjust="spacing" textLength="280.5469" x="96.2712" y="22.9951">Registrar una cuenta de estudiante</text><ellipse cx="272" cy="53.2969" fill="#222222" rx="10" ry="10" style="stroke:#222222;stroke-width:1;"/><g id="Inicio"><rect fill="#F1F1F1" height="50" rx="12.5" ry="12.5" style="stroke:#181818;stroke-width:0.5;" width="57.0439" x="243.5" y="124.2969"/><line style="stroke:#181818;stroke-width:0.5;" x1="243.5" x2="300.5439" y1="150.5938" y2="150.5938"/><text fill="#000000" font-family="sans-serif" font-size="14" lengthAdjust="spacing" textLength="37.0439" x="253.5" y="142.292">Inicio</text></g><g id="RellenarFormulario"><rect fill="#F1F1F1" height="50" rx="12.5" ry="12.5" style="stroke:#181818;stroke-width:0.5;" width="153.5059" x="195" y="251.2969"/><line style="stroke:#181818;stroke-width:0.5;" x1="195" x2="348.5059" y1="277.5938" y2="277.5938"/><text fill="#000000" font-family="sans-serif" font-size="14" lengthAdjust="spacing" textLength="133.5059" x="205" y="269.292">RellenarFormulario</text></g><g id="ValidarDatos"><rect fill="#F1F1F1" height="50" rx="12.5" ry="12.5" style="stroke:#181818;stroke-width:0.5;" width="109.8652" x="154" y="378.2969"/><line style="stroke:#181818;stroke-width:0.5;" x1="154" x2="263.8652" y1="404.5938" y2="404.5938"/><text fill="#000000" font-family="sans-serif" font-size="14" lengthAdjust="spacing" textLength="89.8652" x="164" y="396.292">ValidarDatos</text></g><g id="Error"><rect fill="#F1F1F1" height="50" rx="12.5" ry="12.5" style="stroke:#181818;stroke-width:0.5;" width="54.6787" x="244.5" y="505.2969"/><line style="stroke:#181818;stroke-width:0.5;" x1="244.5" x2="299.1787" y1="531.5938" y2="531.5938"/><text fill="#000000" font-family="sans-serif" font-size="14" lengthAdjust="spacing" textLength="34.6787" x="254.5" y="523.292">Error</text></g><g id="CrearCuenta"><rect fill="#F1F1F1" height="50" rx="12.5" ry="12.5" style="stroke:#181818;stroke-width:0.5;" width="108.6826" x="26.5" y="505.2969"/><line style="stroke:#181818;stroke-width:0.5;" x1="26.5" x2="135.1826" y1="531.5938" y2="531.5938"/><text fill="#000000" font-family="sans-serif" font-size="14" lengthAdjust="spacing" textLength="88.6826" x="36.5" y="523.292">CrearCuenta</text></g><g id="ConfirmarRegistro"><rect fill="#F1F1F1" height="50" rx="12.5" ry="12.5" style="stroke:#181818;stroke-width:0.5;" width="147.9824" x="7" y="632.2969"/><line style="stroke:#181818;stroke-width:0.5;" x1="7" x2="154.9824" y1="658.5938" y2="658.5938"/><text fill="#000000" font-family="sans-serif" font-size="14" lengthAdjust="spacing" textLength="127.9824" x="17" y="650.292">ConfirmarRegistro</text></g><ellipse cx="81" cy="770.2969" fill="none" rx="11" ry="11" style="stroke:#222222;stroke-width:1;"/><ellipse cx="81" cy="770.2969" fill="#222222" rx="6" ry="6" style="stroke:#222222;stroke-width:1;"/><!--link *start* to Inicio--><g id="link_*start*_Inicio"><path d="M272,63.3069 C272,77.1869 272,98.2669 272,118.1369 " fill="none" id="*start*-to-Inicio" style="stroke:#181818;stroke-width:1;"/><polygon fill="#181818" points="272,124.1369,276,115.1369,272,119.1369,268,115.1369,272,124.1369" style="stroke:#181818;stroke-width:1;"/></g><!--link Inicio to RellenarFormulario--><g id="link_Inicio_RellenarFormulario"><path d="M272,174.3969 C272,196.5369 272,223.1569 272,245.2669 " fill="none" id="Inicio-to-RellenarFormulario" style="stroke:#181818;stroke-width:1;"/><polygon fill="#181818" points="272,251.2669,276,242.2669,272,246.2669,268,242.2669,272,251.2669" style="stroke:#181818;stroke-width:1;"/><text fill="#000000" font-family="sans-serif" font-size="13" lengthAdjust="spacing" textLength="206.0894" x="273" y="217.3638">El estudiante accede al registro</text></g><!--link RellenarFormulario to ValidarDatos--><g id="link_RellenarFormulario_ValidarDatos"><path d="M250.88,301.3569 C243.82,310.2969 236.38,320.8269 231,331.2969 C223.39,346.0969 219.3452,358.2036 215.7352,372.3336 " fill="none" id="RellenarFormulario-to-ValidarDatos" style="stroke:#181818;stroke-width:1;"/><polygon fill="#181818" points="214.25,378.1469,220.3533,370.4171,215.4877,373.3025,212.6023,368.4368,214.25,378.1469" style="stroke:#181818;stroke-width:1;"/><text fill="#000000" font-family="sans-serif" font-size="13" lengthAdjust="spacing" textLength="75.8989" x="232" y="344.3638">Env&#237;a datos</text></g><!--link ValidarDatos to Error--><g id="link_ValidarDatos_Error"><path d="M203.07,428.4169 C200.81,442.7069 200.19,460.7869 207,475.2969 C214.79,491.8969 225.458,501.8685 239.468,511.0885 " fill="none" id="ValidarDatos-to-Error" style="stroke:#181818;stroke-width:1;"/><polygon fill="#181818" points="244.48,514.3869,239.1609,506.0979,240.3033,511.6382,234.763,512.7806,244.48,514.3869" style="stroke:#181818;stroke-width:1;"/><text fill="#000000" font-family="sans-serif" font-size="13" lengthAdjust="spacing" textLength="99.6455" x="208" y="471.3638">Datos inv&#225;lidos</text></g><!--link Error to RellenarFormulario--><g id="link_Error_RellenarFormulario"><path d="M295.02,505.1169 C301.85,496.3969 308.45,486.0469 312,475.2969 C332.06,414.5169 332.06,392.0769 312,331.2969 C308.45,320.5469 305.5497,314.9204 298.7197,306.2004 " fill="none" id="Error-to-RellenarFormulario" style="stroke:#181818;stroke-width:1;"/><polygon fill="#181818" points="295.02,301.4769,297.4206,311.0287,298.1031,305.4132,303.7187,306.0957,295.02,301.4769" style="stroke:#181818;stroke-width:1;"/><text fill="#000000" font-family="sans-serif" font-size="13" lengthAdjust="spacing" textLength="87.7563" x="328" y="407.8638">Corrige datos</text></g><!--link ValidarDatos to CrearCuenta--><g id="link_ValidarDatos_CrearCuenta"><path d="M153.89,423.3169 C136.26,431.7069 117.98,443.1669 105,458.2969 C93.73,471.4369 88.9644,484.2216 85.7544,499.1116 " fill="none" id="ValidarDatos-to-CrearCuenta" style="stroke:#181818;stroke-width:1;"/><polygon fill="#181818" points="84.49,504.9769,90.2968,497.022,85.5437,500.0892,82.4765,495.336,84.49,504.9769" style="stroke:#181818;stroke-width:1;"/><text fill="#000000" font-family="sans-serif" font-size="13" lengthAdjust="spacing" textLength="87.7944" x="106" y="471.3638">Datos v&#225;lidos</text></g><!--link CrearCuenta to ConfirmarRegistro--><g id="link_CrearCuenta_ConfirmarRegistro"><path d="M81,555.3969 C81,577.5369 81,604.1569 81,626.2669 " fill="none" id="CrearCuenta-to-ConfirmarRegistro" style="stroke:#181818;stroke-width:1;"/><polygon fill="#181818" points="81,632.2669,85,623.2669,81,627.2669,77,623.2669,81,632.2669" style="stroke:#181818;stroke-width:1;"/><text fill="#000000" font-family="sans-serif" font-size="13" lengthAdjust="spacing" textLength="95.4243" x="82" y="598.3638">Cuenta creada</text></g><!--link ConfirmarRegistro to *end*--><g id="link_ConfirmarRegistro_*end*"><path d="M81,682.3869 C81,706.3569 81,735.9969 81,753.2369 " fill="none" id="ConfirmarRegistro-to-*end*" style="stroke:#181818;stroke-width:1;"/><polygon fill="#181818" points="81,759.2369,85,750.2369,81,754.2369,77,750.2369,81,759.2369" style="stroke:#181818;stroke-width:1;"/><text fill="#000000" font-family="sans-serif" font-size="13" lengthAdjust="spacing" textLength="105.2759" x="82" y="725.3638">Registro exitoso</text></g><!--SRC=[TP0n3i8m34NtdC8pKY_GWQKKYRK32sAmKbDP2edafeZhS01EmSLmcb8L5QOe_p__RpboT0GDTTn7GO718zY1V4He2QYFGyle8vdJvWn5iOM3Pyl1cFoEKaFEaKVP1xaE3aNb4cgtc0QqbZGF7KYk2kR7L0exekCMPOSnz2d6trvFtILzpPUNu5eaY59POMKVIYYPZR_BLK64EvfYrxcL44gLp_19dxENvWW7Vs6veanN70koRHLjqQo9D9SkMi8iqPsr9hm1]--></g></svg>