<svg xmlns="http://www.w3.org/2000/svg" xmlns:xlink="http://www.w3.org/1999/xlink" contentStyleType="text/css" height="755px" preserveAspectRatio="none" style="width:428px;height:755px;background:#FFFFFF;" version="1.1" viewBox="0 0 428 755" width="428px" zoomAndPan="magnify"><title>crear menu</title><defs/><g><text fill="#000000" font-family="sans-serif" font-size="14" font-weight="bold" lengthAdjust="spacing" textLength="89.9404" x="162.408" y="22.9951">crear menu</text><ellipse cx="240" cy="53.2969" fill="#222222" rx="10" ry="10" style="stroke:#222222;stroke-width:1;"/><g id="Inicio"><rect fill="#F1F1F1" height="50" rx="12.5" ry="12.5" style="stroke:#181818;stroke-width:0.5;" width="57.0439" x="211.5" y="124.2969"/><line style="stroke:#181818;stroke-width:0.5;" x1="211.5" x2="268.5439" y1="150.5938" y2="150.5938"/><text fill="#000000" font-family="sans-serif" font-size="14" lengthAdjust="spacing" textLength="37.0439" x="221.5" y="142.292">Inicio</text></g><g id="RellenarFormulario"><rect fill="#F1F1F1" height="50" rx="12.5" ry="12.5" style="stroke:#181818;stroke-width:0.5;" width="153.5059" x="163" y="235.2969"/><line style="stroke:#181818;stroke-width:0.5;" x1="163" x2="316.5059" y1="261.5938" y2="261.5938"/><text fill="#000000" font-family="sans-serif" font-size="14" lengthAdjust="spacing" textLength="133.5059" x="173" y="253.292">RellenarFormulario</text></g><g id="ValidarDatos"><rect fill="#F1F1F1" height="50" rx="12.5" ry="12.5" style="stroke:#181818;stroke-width:0.5;" width="109.8652" x="89" y="362.2969"/><line style="stroke:#181818;stroke-width:0.5;" x1="89" x2="198.8652" y1="388.5938" y2="388.5938"/><text fill="#000000" font-family="sans-serif" font-size="14" lengthAdjust="spacing" textLength="89.8652" x="99" y="380.292">ValidarDatos</text></g><g id="Error"><rect fill="#F1F1F1" height="50" rx="12.5" ry="12.5" style="stroke:#181818;stroke-width:0.5;" width="54.6787" x="246.5" y="489.2969"/><line style="stroke:#181818;stroke-width:0.5;" x1="246.5" x2="301.1787" y1="515.5938" y2="515.5938"/><text fill="#000000" font-family="sans-serif" font-size="14" lengthAdjust="spacing" textLength="34.6787" x="256.5" y="507.292">Error</text></g><g id="GuardarMen&#250;"><rect fill="#F1F1F1" height="50" rx="12.5" ry="12.5" style="stroke:#181818;stroke-width:0.5;" width="115.7168" x="25" y="489.2969"/><line style="stroke:#181818;stroke-width:0.5;" x1="25" x2="140.7168" y1="515.5938" y2="515.5938"/><text fill="#000000" font-family="sans-serif" font-size="14" lengthAdjust="spacing" textLength="95.7168" x="35" y="507.292">GuardarMen&#250;</text></g><g id="ConfirmarCreaci&#243;n"><rect fill="#F1F1F1" height="50" rx="12.5" ry="12.5" style="stroke:#181818;stroke-width:0.5;" width="151.5098" x="7" y="616.2969"/><line style="stroke:#181818;stroke-width:0.5;" x1="7" x2="158.5098" y1="642.5938" y2="642.5938"/><text fill="#000000" font-family="sans-serif" font-size="14" lengthAdjust="spacing" textLength="131.5098" x="17" y="634.292">ConfirmarCreaci&#243;n</text></g><ellipse cx="83" cy="738.2969" fill="none" rx="11" ry="11" style="stroke:#222222;stroke-width:1;"/><ellipse cx="83" cy="738.2969" fill="#222222" rx="6" ry="6" style="stroke:#222222;stroke-width:1;"/><!--link *start* to Inicio--><g id="link_*start*_Inicio"><path d="M240,63.3069 C240,77.1869 240,98.2669 240,118.1369 " fill="none" id="*start*-to-Inicio" style="stroke:#181818;stroke-width:1;"/><polygon fill="#181818" points="240,124.1369,244,115.1369,240,119.1369,236,115.1369,240,124.1369" style="stroke:#181818;stroke-width:1;"/></g><!--link Inicio to RellenarFormulario--><g id="link_Inicio_RellenarFormulario"><path d="M240,174.4869 C240,192.5469 240,211.1269 240,229.1769 " fill="none" id="Inicio-to-RellenarFormulario" style="stroke:#181818;stroke-width:1;"/><polygon fill="#181818" points="240,235.1769,244,226.1769,240,230.1769,236,226.1769,240,235.1769" style="stroke:#181818;stroke-width:1;"/></g><!--link RellenarFormulario to ValidarDatos--><g id="link_RellenarFormulario_ValidarDatos"><path d="M172.5,285.3269 C159.94,292.9369 148.45,302.7569 141,315.2969 C132.75,329.1969 132.5479,341.5745 135.4679,356.1045 " fill="none" id="RellenarFormulario-to-ValidarDatos" style="stroke:#181818;stroke-width:1;"/><polygon fill="#181818" points="136.65,361.9869,138.7984,352.3752,135.6649,357.0849,130.9552,353.9514,136.65,361.9869" style="stroke:#181818;stroke-width:1;"/><text fill="#000000" font-family="sans-serif" font-size="13" lengthAdjust="spacing" textLength="167.5464" x="142" y="328.3638">Introduce datos del men&#250;</text></g><!--link ValidarDatos to Error--><g id="link_ValidarDatos_Error"><path d="M164.6,412.3969 C177.01,426.5069 193.39,444.4269 209,459.2969 C220.79,470.5269 229.9075,478.4004 241.7475,487.9904 " fill="none" id="ValidarDatos-to-Error" style="stroke:#181818;stroke-width:1;"/><polygon fill="#181818" points="246.41,491.7669,241.9339,482.9939,242.5246,488.6198,236.8987,489.2105,246.41,491.7669" style="stroke:#181818;stroke-width:1;"/><text fill="#000000" font-family="sans-serif" font-size="13" lengthAdjust="spacing" textLength="99.6455" x="210" y="455.3638">Datos inv&#225;lidos</text></g><!--link Error to RellenarFormulario--><g id="link_Error_RellenarFormulario"><path d="M297.02,489.1169 C303.85,480.3969 310.45,470.0469 314,459.2969 C334.06,398.5169 343,372.3469 314,315.2969 C307.95,303.3869 302.7294,297.0373 291.9594,289.0973 " fill="none" id="Error-to-RellenarFormulario" style="stroke:#181818;stroke-width:1;"/><polygon fill="#181818" points="287.13,285.5369,292.0005,294.0971,291.1545,288.5039,296.7478,287.6579,287.13,285.5369" style="stroke:#181818;stroke-width:1;"/><text fill="#000000" font-family="sans-serif" font-size="13" lengthAdjust="spacing" textLength="87.7563" x="333" y="391.8638">Corrige datos</text></g><!--link ValidarDatos to GuardarMen?--><g id="link_ValidarDatos_GuardarMen&#250;"><path d="M104.45,412.5469 C94.64,420.6869 85.39,430.6969 80,442.2969 C73.24,456.8469 73.0846,469.0169 75.5846,483.2869 " fill="none" id="ValidarDatos-to-GuardarMen&#250;" style="stroke:#181818;stroke-width:1;"/><polygon fill="#181818" points="76.62,489.1969,79.0069,479.6416,75.7572,484.2719,71.1269,481.0221,76.62,489.1969" style="stroke:#181818;stroke-width:1;"/><text fill="#000000" font-family="sans-serif" font-size="13" lengthAdjust="spacing" textLength="87.7944" x="81" y="455.3638">Datos v&#225;lidos</text></g><!--link GuardarMen? to ConfirmarCreaci?n--><g id="link_GuardarMen&#250;_ConfirmarCreaci&#243;n"><path d="M83,539.3969 C83,561.5369 83,588.1569 83,610.2669 " fill="none" id="GuardarMen&#250;-to-ConfirmarCreaci&#243;n" style="stroke:#181818;stroke-width:1;"/><polygon fill="#181818" points="83,616.2669,87,607.2669,83,611.2669,79,607.2669,83,616.2669" style="stroke:#181818;stroke-width:1;"/><text fill="#000000" font-family="sans-serif" font-size="13" lengthAdjust="spacing" textLength="177.709" x="84" y="582.3638">Men&#250; creado exitosamente</text></g><!--link ConfirmarCreaci?n to *end*--><g id="link_ConfirmarCreaci&#243;n_*end*"><path d="M83,666.7569 C83,686.3369 83,706.7869 83,721.0969 " fill="none" id="ConfirmarCreaci&#243;n-to-*end*" style="stroke:#181818;stroke-width:1;"/><polygon fill="#181818" points="83,727.0969,87,718.0969,83,722.0969,79,718.0969,83,727.0969" style="stroke:#181818;stroke-width:1;"/></g><!--SRC=[RL2z2i8m4Dxp59c5le23I_t1mSN1HHoEvfI3D0VNH7mTdy7DjI_cfP52QQV0ztlv8aMFjX44iIs6PAwhcwsgZJq6QeYDAUy0dT5x321xbZPv4ANdqA2yW2S7ieN8dLrhLXHsgK7h1iIXpsNzrqo4sRaJOL5BGIWy-xSgk3E5M3v3zJMBqEDVOEQvXmIYm2ctZl5Z-8JDyfh3dQG5gNMPXlfFK5EXyrQEBRv88q2_4T4io7EARla3]--></g></svg>