<svg xmlns="http://www.w3.org/2000/svg" xmlns:xlink="http://www.w3.org/1999/xlink" contentStyleType="text/css" height="533px" preserveAspectRatio="none" style="width:341px;height:533px;background:#FFFFFF;" version="1.1" viewBox="0 0 341 533" width="341px" zoomAndPan="magnify"><title>Eliminar Men&#250;</title><defs/><g><text fill="#000000" font-family="sans-serif" font-size="14" font-weight="bold" lengthAdjust="spacing" textLength="113.1006" x="107.095" y="22.9951">Eliminar Men&#250;</text><ellipse cx="92" cy="53.2969" fill="#222222" rx="10" ry="10" style="stroke:#222222;stroke-width:1;"/><g id="Inicio"><rect fill="#F1F1F1" height="50" rx="12.5" ry="12.5" style="stroke:#181818;stroke-width:0.5;" width="57.0439" x="63.5" y="124.2969"/><line style="stroke:#181818;stroke-width:0.5;" x1="63.5" x2="120.5439" y1="150.5938" y2="150.5938"/><text fill="#000000" font-family="sans-serif" font-size="14" lengthAdjust="spacing" textLength="37.0439" x="73.5" y="142.292">Inicio</text></g><g id="SeleccionarMen&#250;"><rect fill="#F1F1F1" height="50" rx="12.5" ry="12.5" style="stroke:#181818;stroke-width:0.5;" width="139.499" x="22.5" y="251.2969"/><line style="stroke:#181818;stroke-width:0.5;" x1="22.5" x2="161.999" y1="277.5938" y2="277.5938"/><text fill="#000000" font-family="sans-serif" font-size="14" lengthAdjust="spacing" textLength="119.499" x="32.5" y="269.292">SeleccionarMen&#250;</text></g><g id="ConfirmarEliminaci&#243;n"><rect fill="#F1F1F1" height="50" rx="12.5" ry="12.5" style="stroke:#181818;stroke-width:0.5;" width="170.3906" x="7" y="378.2969"/><line style="stroke:#181818;stroke-width:0.5;" x1="7" x2="177.3906" y1="404.5938" y2="404.5938"/><text fill="#000000" font-family="sans-serif" font-size="14" lengthAdjust="spacing" textLength="150.3906" x="17" y="396.292">ConfirmarEliminaci&#243;n</text></g><ellipse cx="92" cy="516.2969" fill="none" rx="11" ry="11" style="stroke:#222222;stroke-width:1;"/><ellipse cx="92" cy="516.2969" fill="#222222" rx="6" ry="6" style="stroke:#222222;stroke-width:1;"/><!--link *start* to Inicio--><g id="link_*start*_Inicio"><path d="M92,63.3069 C92,77.1869 92,98.2669 92,118.1369 " fill="none" id="*start*-to-Inicio" style="stroke:#181818;stroke-width:1;"/><polygon fill="#181818" points="92,124.1369,96,115.1369,92,119.1369,88,115.1369,92,124.1369" style="stroke:#181818;stroke-width:1;"/></g><!--link Inicio to SeleccionarMen?--><g id="link_Inicio_SeleccionarMen&#250;"><path d="M92,174.3969 C92,196.5369 92,223.1569 92,245.2669 " fill="none" id="Inicio-to-SeleccionarMen&#250;" style="stroke:#181818;stroke-width:1;"/><polygon fill="#181818" points="92,251.2669,96,242.2669,92,246.2669,88,242.2669,92,251.2669" style="stroke:#181818;stroke-width:1;"/><text fill="#000000" font-family="sans-serif" font-size="13" lengthAdjust="spacing" textLength="240.2905" x="93" y="217.3638">El administrador accede a los men&#250;s</text></g><!--link SeleccionarMen? to ConfirmarEliminaci?n--><g id="link_SeleccionarMen&#250;_ConfirmarEliminaci&#243;n"><path d="M92,301.3969 C92,323.5369 92,350.1569 92,372.2669 " fill="none" id="SeleccionarMen&#250;-to-ConfirmarEliminaci&#243;n" style="stroke:#181818;stroke-width:1;"/><polygon fill="#181818" points="92,378.2669,96,369.2669,92,373.2669,88,369.2669,92,378.2669" style="stroke:#181818;stroke-width:1;"/><text fill="#000000" font-family="sans-serif" font-size="13" lengthAdjust="spacing" textLength="180.4766" x="93" y="344.3638">Selecciona men&#250; a eliminar</text></g><!--link ConfirmarEliminaci?n to *end*--><g id="link_ConfirmarEliminaci&#243;n_*end*"><path d="M92,428.3869 C92,452.3569 92,481.9969 92,499.2369 " fill="none" id="ConfirmarEliminaci&#243;n-to-*end*" style="stroke:#181818;stroke-width:1;"/><polygon fill="#181818" points="92,505.2369,96,496.2369,92,500.2369,88,496.2369,92,505.2369" style="stroke:#181818;stroke-width:1;"/><text fill="#000000" font-family="sans-serif" font-size="13" lengthAdjust="spacing" textLength="103.7334" x="93" y="471.3638">Men&#250; eliminado</text></g><!--SRC=[RO-n3W8n28RtFWMpoRt03Ixc1WSdH-D0A2OaBIHjtypDzLvCUZtZe1E1VDyFD6c9OKcIHR70XNLzXTlX3jDqXBCAYOKmwZQwScBonk6DXTbbmEYwr5OmMW4auiY0aAn2xbGDFruFEva-f6Gi-twIzQcU-8M7xb6yNnZ-EpsjNpsF3pvuj3S0]--></g></svg>