<svg xmlns="http://www.w3.org/2000/svg" xmlns:xlink="http://www.w3.org/1999/xlink" contentStyleType="text/css" height="660px" preserveAspectRatio="none" style="width:442px;height:660px;background:#FFFFFF;" version="1.1" viewBox="0 0 442 660" width="442px" zoomAndPan="magnify"><title>Eliminar Estudiante</title><defs/><g><text fill="#000000" font-family="sans-serif" font-size="14" font-weight="bold" lengthAdjust="spacing" textLength="154.7178" x="136.6919" y="22.9951">Eliminar Estudiante</text><ellipse cx="95" cy="53.2969" fill="#222222" rx="10" ry="10" style="stroke:#222222;stroke-width:1;"/><g id="Inicio"><rect fill="#F1F1F1" height="50" rx="12.5" ry="12.5" style="stroke:#181818;stroke-width:0.5;" width="57.0439" x="66.5" y="124.2969"/><line style="stroke:#181818;stroke-width:0.5;" x1="66.5" x2="123.5439" y1="150.5938" y2="150.5938"/><text fill="#000000" font-family="sans-serif" font-size="14" lengthAdjust="spacing" textLength="37.0439" x="76.5" y="142.292">Inicio</text></g><g id="ConfirmarAcci&#243;n"><rect fill="#F1F1F1" height="50" rx="12.5" ry="12.5" style="stroke:#181818;stroke-width:0.5;" width="136.0605" x="27" y="251.2969"/><line style="stroke:#181818;stroke-width:0.5;" x1="27" x2="163.0605" y1="277.5938" y2="277.5938"/><text fill="#000000" font-family="sans-serif" font-size="14" lengthAdjust="spacing" textLength="116.0605" x="37" y="269.292">ConfirmarAcci&#243;n</text></g><g id="SeleccionarEstudiante"><rect fill="#F1F1F1" height="50" rx="12.5" ry="12.5" style="stroke:#181818;stroke-width:0.5;" width="175.8936" x="7" y="378.2969"/><line style="stroke:#181818;stroke-width:0.5;" x1="7" x2="182.8936" y1="404.5938" y2="404.5938"/><text fill="#000000" font-family="sans-serif" font-size="14" lengthAdjust="spacing" textLength="155.8936" x="17" y="396.292">SeleccionarEstudiante</text></g><g id="ConfirmarEliminaci&#243;n"><rect fill="#F1F1F1" height="50" rx="12.5" ry="12.5" style="stroke:#181818;stroke-width:0.5;" width="170.3906" x="10" y="505.2969"/><line style="stroke:#181818;stroke-width:0.5;" x1="10" x2="180.3906" y1="531.5938" y2="531.5938"/><text fill="#000000" font-family="sans-serif" font-size="14" lengthAdjust="spacing" textLength="150.3906" x="20" y="523.292">ConfirmarEliminaci&#243;n</text></g><ellipse cx="95" cy="643.2969" fill="none" rx="11" ry="11" style="stroke:#222222;stroke-width:1;"/><ellipse cx="95" cy="643.2969" fill="#222222" rx="6" ry="6" style="stroke:#222222;stroke-width:1;"/><!--link *start* to Inicio--><g id="link_*start*_Inicio"><path d="M95,63.3069 C95,77.1869 95,98.2669 95,118.1369 " fill="none" id="*start*-to-Inicio" style="stroke:#181818;stroke-width:1;"/><polygon fill="#181818" points="95,124.1369,99,115.1369,95,119.1369,91,115.1369,95,124.1369" style="stroke:#181818;stroke-width:1;"/></g><!--link Inicio to ConfirmarAcci?n--><g id="link_Inicio_ConfirmarAcci&#243;n"><path d="M95,174.3969 C95,196.5369 95,223.1569 95,245.2669 " fill="none" id="Inicio-to-ConfirmarAcci&#243;n" style="stroke:#181818;stroke-width:1;"/><polygon fill="#181818" points="95,251.2669,99,242.2669,95,246.2669,91,242.2669,95,251.2669" style="stroke:#181818;stroke-width:1;"/><text fill="#000000" font-family="sans-serif" font-size="13" lengthAdjust="spacing" textLength="338.1016" x="96" y="217.3638">El administrador accede a la gesti&#243;n de estudiantes</text></g><!--link ConfirmarAcci?n to SeleccionarEstudiante--><g id="link_ConfirmarAcci&#243;n_SeleccionarEstudiante"><path d="M95,301.3969 C95,323.5369 95,350.1569 95,372.2669 " fill="none" id="ConfirmarAcci&#243;n-to-SeleccionarEstudiante" style="stroke:#181818;stroke-width:1;"/><polygon fill="#181818" points="95,378.2669,99,369.2669,95,373.2669,91,369.2669,95,378.2669" style="stroke:#181818;stroke-width:1;"/><text fill="#000000" font-family="sans-serif" font-size="13" lengthAdjust="spacing" textLength="212.6084" x="96" y="344.3638">Selecciona estudiante a eliminar</text></g><!--link SeleccionarEstudiante to ConfirmarEliminaci?n--><g id="link_SeleccionarEstudiante_ConfirmarEliminaci&#243;n"><path d="M95,428.3969 C95,450.5369 95,477.1569 95,499.2669 " fill="none" id="SeleccionarEstudiante-to-ConfirmarEliminaci&#243;n" style="stroke:#181818;stroke-width:1;"/><polygon fill="#181818" points="95,505.2669,99,496.2669,95,500.2669,91,496.2669,95,505.2669" style="stroke:#181818;stroke-width:1;"/><text fill="#000000" font-family="sans-serif" font-size="13" lengthAdjust="spacing" textLength="138.2202" x="96" y="471.3638">Confirma eliminaci&#243;n</text></g><!--link ConfirmarEliminaci?n to *end*--><g id="link_ConfirmarEliminaci&#243;n_*end*"><path d="M95,555.3869 C95,579.3569 95,608.9969 95,626.2369 " fill="none" id="ConfirmarEliminaci&#243;n-to-*end*" style="stroke:#181818;stroke-width:1;"/><polygon fill="#181818" points="95,632.2369,99,623.2369,95,627.2369,91,623.2369,95,632.2369" style="stroke:#181818;stroke-width:1;"/><text fill="#000000" font-family="sans-serif" font-size="13" lengthAdjust="spacing" textLength="137.5283" x="96" y="598.3638">Estudiante eliminado</text></g><!--SRC=[RP0n3i8m34Ltdy8pKY_G0GcX3ioCYC5A3BAK9b9YJiOHk1XEQMWHdQ9ysS_FLj70E0GP9LB6eUZ32qLbWClkYbstnrCK9mdWyqxHCSMRv97omJbvFIFsXa3o1f6YcNpAICwnPoGCX7SkEjLPmDyH1Vuu5NxcmFPDvhFes8GbNp6CpxCyR3V- -CwBDkcMDyQKmtPrvTIJzAiZjJwVtW00]--></g></svg>