<svg xmlns="http://www.w3.org/2000/svg" xmlns:xlink="http://www.w3.org/1999/xlink" contentStyleType="text/css" height="533px" preserveAspectRatio="none" style="width:365px;height:533px;background:#FFFFFF;" version="1.1" viewBox="0 0 365 533" width="365px" zoomAndPan="magnify"><title>Consultar el men&#250;</title><defs/><g><text fill="#000000" font-family="sans-serif" font-size="14" font-weight="bold" lengthAdjust="spacing" textLength="144.0605" x="103.8667" y="22.9951">Consultar el men&#250;</text><ellipse cx="78.5" cy="53.2969" fill="#222222" rx="10" ry="10" style="stroke:#222222;stroke-width:1;"/><g id="Inicio"><rect fill="#F1F1F1" height="50" rx="12.5" ry="12.5" style="stroke:#181818;stroke-width:0.5;" width="57.0439" x="50" y="124.2969"/><line style="stroke:#181818;stroke-width:0.5;" x1="50" x2="107.0439" y1="150.5938" y2="150.5938"/><text fill="#000000" font-family="sans-serif" font-size="14" lengthAdjust="spacing" textLength="37.0439" x="60" y="142.292">Inicio</text></g><g id="VerMen&#250;"><rect fill="#F1F1F1" height="50" rx="12.5" ry="12.5" style="stroke:#181818;stroke-width:0.5;" width="82.3848" x="37.5" y="251.2969"/><line style="stroke:#181818;stroke-width:0.5;" x1="37.5" x2="119.8848" y1="277.5938" y2="277.5938"/><text fill="#000000" font-family="sans-serif" font-size="14" lengthAdjust="spacing" textLength="62.3848" x="47.5" y="269.292">VerMen&#250;</text></g><g id="SeleccionarFecha"><rect fill="#F1F1F1" height="50" rx="12.5" ry="12.5" style="stroke:#181818;stroke-width:0.5;" width="142.876" x="7" y="378.2969"/><line style="stroke:#181818;stroke-width:0.5;" x1="7" x2="149.876" y1="404.5938" y2="404.5938"/><text fill="#000000" font-family="sans-serif" font-size="14" lengthAdjust="spacing" textLength="122.876" x="17" y="396.292">SeleccionarFecha</text></g><ellipse cx="78.5" cy="516.2969" fill="none" rx="11" ry="11" style="stroke:#222222;stroke-width:1;"/><ellipse cx="78.5" cy="516.2969" fill="#222222" rx="6" ry="6" style="stroke:#222222;stroke-width:1;"/><!--link *start* to Inicio--><g id="link_*start*_Inicio"><path d="M78.5,63.3069 C78.5,77.1869 78.5,98.2669 78.5,118.1369 " fill="none" id="*start*-to-Inicio" style="stroke:#181818;stroke-width:1;"/><polygon fill="#181818" points="78.5,124.1369,82.5,115.1369,78.5,119.1369,74.5,115.1369,78.5,124.1369" style="stroke:#181818;stroke-width:1;"/></g><!--link Inicio to VerMen?--><g id="link_Inicio_VerMen&#250;"><path d="M78.5,174.3969 C78.5,196.5369 78.5,223.1569 78.5,245.2669 " fill="none" id="Inicio-to-VerMen&#250;" style="stroke:#181818;stroke-width:1;"/><polygon fill="#181818" points="78.5,251.2669,82.5,242.2669,78.5,246.2669,74.5,242.2669,78.5,251.2669" style="stroke:#181818;stroke-width:1;"/><text fill="#000000" font-family="sans-serif" font-size="13" lengthAdjust="spacing" textLength="278.2939" x="79.5" y="217.3638">El estudiante accede al men&#250; del comedor</text></g><!--link VerMen? to SeleccionarFecha--><g id="link_VerMen&#250;_SeleccionarFecha"><path d="M78.5,301.3969 C78.5,323.5369 78.5,350.1569 78.5,372.2669 " fill="none" id="VerMen&#250;-to-SeleccionarFecha" style="stroke:#181818;stroke-width:1;"/><polygon fill="#181818" points="78.5,378.2669,82.5,369.2669,78.5,373.2669,74.5,369.2669,78.5,378.2669" style="stroke:#181818;stroke-width:1;"/><text fill="#000000" font-family="sans-serif" font-size="13" lengthAdjust="spacing" textLength="167.8638" x="79.5" y="344.3638">Filtra por fecha (opcional)</text></g><!--link SeleccionarFecha to *end*--><g id="link_SeleccionarFecha_*end*"><path d="M78.5,428.3869 C78.5,452.3569 78.5,481.9969 78.5,499.2369 " fill="none" id="SeleccionarFecha-to-*end*" style="stroke:#181818;stroke-width:1;"/><polygon fill="#181818" points="78.5,505.2369,82.5,496.2369,78.5,500.2369,74.5,496.2369,78.5,505.2369" style="stroke:#181818;stroke-width:1;"/><text fill="#000000" font-family="sans-serif" font-size="13" lengthAdjust="spacing" textLength="98.8711" x="79.5" y="471.3638">Fin de consulta</text></g><!--SRC=[PO-n2W8n44JxVCMKAjmFMDY81nPMWirXiMnM3EmbnrxkvspzCPESs5WD33DlTdF8AZYcE2-QoI2AKUBxvORT7Lrtm3a63icvLPjr4xlK3FOuAMJEYmyKiu2OnHVvCk0BZTCeFfdxbIhXAYfSS96i5tvI8VL1in6cP7WqQvEcbj2j-ujNHZsmrcAPAIlh0ny0]--></g></svg>