<svg xmlns="http://www.w3.org/2000/svg" xmlns:xlink="http://www.w3.org/1999/xlink" contentStyleType="text/css" height="660px" preserveAspectRatio="none" style="width:370px;height:660px;background:#FFFFFF;" version="1.1" viewBox="0 0 370 660" width="370px" zoomAndPan="magnify"><title>Consultar reservas del estudiante</title><defs/><g><text fill="#000000" font-family="sans-serif" font-size="14" font-weight="bold" lengthAdjust="spacing" textLength="267.8867" x="44.196" y="22.9951">Consultar reservas del estudiante</text><ellipse cx="86" cy="53.2969" fill="#222222" rx="10" ry="10" style="stroke:#222222;stroke-width:1;"/><g id="Inicio"><rect fill="#F1F1F1" height="50" rx="12.5" ry="12.5" style="stroke:#181818;stroke-width:0.5;" width="57.0439" x="57.5" y="124.2969"/><line style="stroke:#181818;stroke-width:0.5;" x1="57.5" x2="114.5439" y1="150.5938" y2="150.5938"/><text fill="#000000" font-family="sans-serif" font-size="14" lengthAdjust="spacing" textLength="37.0439" x="67.5" y="142.292">Inicio</text></g><g id="VerReservas"><rect fill="#F1F1F1" height="50" rx="12.5" ry="12.5" style="stroke:#181818;stroke-width:0.5;" width="108.1084" x="32" y="251.2969"/><line style="stroke:#181818;stroke-width:0.5;" x1="32" x2="140.1084" y1="277.5938" y2="277.5938"/><text fill="#000000" font-family="sans-serif" font-size="14" lengthAdjust="spacing" textLength="88.1084" x="42" y="269.292">VerReservas</text></g><g id="SeleccionarReserva"><rect fill="#F1F1F1" height="50" rx="12.5" ry="12.5" style="stroke:#181818;stroke-width:0.5;" width="157.9287" x="7" y="378.2969"/><line style="stroke:#181818;stroke-width:0.5;" x1="7" x2="164.9287" y1="404.5938" y2="404.5938"/><text fill="#000000" font-family="sans-serif" font-size="14" lengthAdjust="spacing" textLength="137.9287" x="17" y="396.292">SeleccionarReserva</text></g><g id="VerDetalles"><rect fill="#F1F1F1" height="50" rx="12.5" ry="12.5" style="stroke:#181818;stroke-width:0.5;" width="101.0947" x="35.5" y="505.2969"/><line style="stroke:#181818;stroke-width:0.5;" x1="35.5" x2="136.5947" y1="531.5938" y2="531.5938"/><text fill="#000000" font-family="sans-serif" font-size="14" lengthAdjust="spacing" textLength="81.0947" x="45.5" y="523.292">VerDetalles</text></g><ellipse cx="86" cy="643.2969" fill="none" rx="11" ry="11" style="stroke:#222222;stroke-width:1;"/><ellipse cx="86" cy="643.2969" fill="#222222" rx="6" ry="6" style="stroke:#222222;stroke-width:1;"/><!--link *start* to Inicio--><g id="link_*start*_Inicio"><path d="M86,63.3069 C86,77.1869 86,98.2669 86,118.1369 " fill="none" id="*start*-to-Inicio" style="stroke:#181818;stroke-width:1;"/><polygon fill="#181818" points="86,124.1369,90,115.1369,86,119.1369,82,115.1369,86,124.1369" style="stroke:#181818;stroke-width:1;"/></g><!--link Inicio to VerReservas--><g id="link_Inicio_VerReservas"><path d="M86,174.3969 C86,196.5369 86,223.1569 86,245.2669 " fill="none" id="Inicio-to-VerReservas" style="stroke:#181818;stroke-width:1;"/><polygon fill="#181818" points="86,251.2669,90,242.2669,86,246.2669,82,242.2669,86,251.2669" style="stroke:#181818;stroke-width:1;"/><text fill="#000000" font-family="sans-serif" font-size="13" lengthAdjust="spacing" textLength="275.2788" x="87" y="217.3638">El estudiante accede a la lista de reservas</text></g><!--link VerReservas to SeleccionarReserva--><g id="link_VerReservas_SeleccionarReserva"><path d="M86,301.3969 C86,323.5369 86,350.1569 86,372.2669 " fill="none" id="VerReservas-to-SeleccionarReserva" style="stroke:#181818;stroke-width:1;"/><polygon fill="#181818" points="86,378.2669,90,369.2669,86,373.2669,82,369.2669,86,378.2669" style="stroke:#181818;stroke-width:1;"/><text fill="#000000" font-family="sans-serif" font-size="13" lengthAdjust="spacing" textLength="151.7534" x="87" y="344.3638">Selecciona una reserva</text></g><!--link SeleccionarReserva to VerDetalles--><g id="link_SeleccionarReserva_VerDetalles"><path d="M86,428.3969 C86,450.5369 86,477.1569 86,499.2669 " fill="none" id="SeleccionarReserva-to-VerDetalles" style="stroke:#181818;stroke-width:1;"/><polygon fill="#181818" points="86,505.2669,90,496.2669,86,500.2669,82,496.2669,86,505.2669" style="stroke:#181818;stroke-width:1;"/><text fill="#000000" font-family="sans-serif" font-size="13" lengthAdjust="spacing" textLength="112.3979" x="87" y="471.3638">Consulta detalles</text></g><!--link VerDetalles to *end*--><g id="link_VerDetalles_*end*"><path d="M86,555.3869 C86,579.3569 86,608.9969 86,626.2369 " fill="none" id="VerDetalles-to-*end*" style="stroke:#181818;stroke-width:1;"/><polygon fill="#181818" points="86,632.2369,90,623.2369,86,627.2369,82,623.2369,86,632.2369" style="stroke:#181818;stroke-width:1;"/><text fill="#000000" font-family="sans-serif" font-size="13" lengthAdjust="spacing" textLength="98.8711" x="87" y="598.3638">Fin de consulta</text></g><!--SRC=[RK-x2W913Epp5Qc5-u4hR7o0hOADM8JT586m1xjPlz-ijwjN20c1oSnaOcBAU5XIgMgKCNFX_AA2aHMvM8r2oHWUkoTEqnulIO8i0ElyG7VErw6QyRIL8ON0qGUgbnGZz_tUWAsoETrOERXjee6xuG_4wjt5y8VRmnpPI9LRcF6NNrqnsEuRl_qrurbI2nOw_Gq0]--></g></svg>