<svg xmlns="http://www.w3.org/2000/svg" xmlns:xlink="http://www.w3.org/1999/xlink" contentStyleType="text/css" height="660px" preserveAspectRatio="none" style="width:506px;height:660px;background:#FFFFFF;" version="1.1" viewBox="0 0 506 660" width="506px" zoomAndPan="magnify"><title>Login a una cuenta de estudiante</title><defs/><g><text fill="#000000" font-family="sans-serif" font-size="14" font-weight="bold" lengthAdjust="spacing" textLength="264.8174" x="114.0327" y="22.9951">Login a una cuenta de estudiante</text><ellipse cx="310.5" cy="53.2969" fill="#222222" rx="10" ry="10" style="stroke:#222222;stroke-width:1;"/><g id="Inicio"><rect fill="#F1F1F1" height="50" rx="12.5" ry="12.5" style="stroke:#181818;stroke-width:0.5;" width="57.0439" x="282" y="124.2969"/><line style="stroke:#181818;stroke-width:0.5;" x1="282" x2="339.0439" y1="150.5938" y2="150.5938"/><text fill="#000000" font-family="sans-serif" font-size="14" lengthAdjust="spacing" textLength="37.0439" x="292" y="142.292">Inicio</text></g><g id="IntroducirCredenciales"><rect fill="#F1F1F1" height="50" rx="12.5" ry="12.5" style="stroke:#181818;stroke-width:0.5;" width="178.3955" x="221.5" y="251.2969"/><line style="stroke:#181818;stroke-width:0.5;" x1="221.5" x2="399.8955" y1="277.5938" y2="277.5938"/><text fill="#000000" font-family="sans-serif" font-size="14" lengthAdjust="spacing" textLength="158.3955" x="231.5" y="269.292">IntroducirCredenciales</text></g><g id="ValidarCredenciales"><rect fill="#F1F1F1" height="50" rx="12.5" ry="12.5" style="stroke:#181818;stroke-width:0.5;" width="159.6377" x="137.5" y="378.2969"/><line style="stroke:#181818;stroke-width:0.5;" x1="137.5" x2="297.1377" y1="404.5938" y2="404.5938"/><text fill="#000000" font-family="sans-serif" font-size="14" lengthAdjust="spacing" textLength="139.6377" x="147.5" y="396.292">ValidarCredenciales</text></g><g id="Error"><rect fill="#F1F1F1" height="50" rx="12.5" ry="12.5" style="stroke:#181818;stroke-width:0.5;" width="54.6787" x="282" y="505.2969"/><line style="stroke:#181818;stroke-width:0.5;" x1="282" x2="336.6787" y1="531.5938" y2="531.5938"/><text fill="#000000" font-family="sans-serif" font-size="14" lengthAdjust="spacing" textLength="34.6787" x="292" y="523.292">Error</text></g><g id="Acceso"><rect fill="#F1F1F1" height="50" rx="12.5" ry="12.5" style="stroke:#181818;stroke-width:0.5;" width="69.4443" x="7" y="505.2969"/><line style="stroke:#181818;stroke-width:0.5;" x1="7" x2="76.4443" y1="531.5938" y2="531.5938"/><text fill="#000000" font-family="sans-serif" font-size="14" lengthAdjust="spacing" textLength="49.4443" x="17" y="523.292">Acceso</text></g><ellipse cx="41.5" cy="643.2969" fill="none" rx="11" ry="11" style="stroke:#222222;stroke-width:1;"/><ellipse cx="41.5" cy="643.2969" fill="#222222" rx="6" ry="6" style="stroke:#222222;stroke-width:1;"/><!--link *start* to Inicio--><g id="link_*start*_Inicio"><path d="M310.5,63.3069 C310.5,77.1869 310.5,98.2669 310.5,118.1369 " fill="none" id="*start*-to-Inicio" style="stroke:#181818;stroke-width:1;"/><polygon fill="#181818" points="310.5,124.1369,314.5,115.1369,310.5,119.1369,306.5,115.1369,310.5,124.1369" style="stroke:#181818;stroke-width:1;"/></g><!--link Inicio to IntroducirCredenciales--><g id="link_Inicio_IntroducirCredenciales"><path d="M310.5,174.3969 C310.5,196.5369 310.5,223.1569 310.5,245.2669 " fill="none" id="Inicio-to-IntroducirCredenciales" style="stroke:#181818;stroke-width:1;"/><polygon fill="#181818" points="310.5,251.2669,314.5,242.2669,310.5,246.2669,306.5,242.2669,310.5,251.2669" style="stroke:#181818;stroke-width:1;"/><text fill="#000000" font-family="sans-serif" font-size="13" lengthAdjust="spacing" textLength="187.3828" x="311.5" y="217.3638">El estudiante accede al login</text></g><!--link IntroducirCredenciales to ValidarCredenciales--><g id="link_IntroducirCredenciales_ValidarCredenciales"><path d="M292.57,301.3969 C276.1,323.5369 255.4115,351.3431 238.9615,373.4531 " fill="none" id="IntroducirCredenciales-to-ValidarCredenciales" style="stroke:#181818;stroke-width:1;"/><polygon fill="#181818" points="235.38,378.2669,243.9615,373.4338,238.3646,374.2554,237.5431,368.6585,235.38,378.2669" style="stroke:#181818;stroke-width:1;"/><text fill="#000000" font-family="sans-serif" font-size="13" lengthAdjust="spacing" textLength="75.8989" x="270.5" y="344.3638">Env&#237;a datos</text></g><!--link ValidarCredenciales to Error--><g id="link_ValidarCredenciales_Error"><path d="M210.24,428.5569 C207.35,443.0669 206.37,461.3269 214.5,475.2969 C228.91,500.0569 253.6837,512.4821 276.2537,520.0821 " fill="none" id="ValidarCredenciales-to-Error" style="stroke:#181818;stroke-width:1;"/><polygon fill="#181818" points="281.94,521.9969,274.6871,515.3339,277.2014,520.4013,272.1341,522.9156,281.94,521.9969" style="stroke:#181818;stroke-width:1;"/><text fill="#000000" font-family="sans-serif" font-size="13" lengthAdjust="spacing" textLength="160.7734" x="215.5" y="471.3638">Credenciales incorrectas</text></g><!--link Error to IntroducirCredenciales--><g id="link_Error_IntroducirCredenciales"><path d="M337.31,516.2469 C353.11,507.1869 371.49,493.4769 380.5,475.2969 C409.39,417.0269 382.37,390.0569 354.5,331.2969 C349.42,320.5869 345.6715,314.7338 338.1815,305.9438 " fill="none" id="Error-to-IntroducirCredenciales" style="stroke:#181818;stroke-width:1;"/><polygon fill="#181818" points="334.29,301.3769,337.0826,310.8215,337.5329,305.1826,343.1718,305.6329,334.29,301.3769" style="stroke:#181818;stroke-width:1;"/><text fill="#000000" font-family="sans-serif" font-size="13" lengthAdjust="spacing" textLength="68.6245" x="393.5" y="407.8638">Reintentar</text></g><!--link ValidarCredenciales to Acceso--><g id="link_ValidarCredenciales_Acceso"><path d="M137.41,417.7769 C111.25,425.7269 83.96,438.3269 64.5,458.2969 C52.29,470.8269 47.6005,483.9778 44.9205,499.1978 " fill="none" id="ValidarCredenciales-to-Acceso" style="stroke:#181818;stroke-width:1;"/><polygon fill="#181818" points="43.88,505.1069,49.3801,496.9369,44.7471,500.1826,41.5014,495.5496,43.88,505.1069" style="stroke:#181818;stroke-width:1;"/><text fill="#000000" font-family="sans-serif" font-size="13" lengthAdjust="spacing" textLength="134.0244" x="65.5" y="471.3638">Credenciales v&#225;lidas</text></g><!--link Acceso to *end*--><g id="link_Acceso_*end*"><path d="M41.5,555.3869 C41.5,579.3569 41.5,608.9969 41.5,626.2369 " fill="none" id="Acceso-to-*end*" style="stroke:#181818;stroke-width:1;"/><polygon fill="#181818" points="41.5,632.2369,45.5,623.2369,41.5,627.2369,37.5,623.2369,41.5,632.2369" style="stroke:#181818;stroke-width:1;"/><text fill="#000000" font-family="sans-serif" font-size="13" lengthAdjust="spacing" textLength="97.1255" x="42.5" y="598.3638">Acceso exitoso</text></g><!--SRC=[VP0z2iCm38LtdK9p8HV8K2WbGw5JXowbWx154HWRP2NqEZr0Jv6BrIOfz2-T37wVtdkIYGN6VRf8HC8-4hgUen5wHixMUw5e371QdR5frhYBuYG1JE_yPPfyxqItofwZ4mgSiSKkl5WWELTKf82Xfi72M7KyKX1FNtPn6E-b65dAy0kfevrgqWA_2H9TKcLdb642_lO-i9J2vGWAYpcRiarEdq73UAjuXbckPBrS- -JvAgLzUW00]--></g></svg>