<svg xmlns="http://www.w3.org/2000/svg" xmlns:xlink="http://www.w3.org/1999/xlink" contentStyleType="text/css" height="660px" preserveAspectRatio="none" style="width:529px;height:660px;background:#FFFFFF;" version="1.1" viewBox="0 0 529 660" width="529px" zoomAndPan="magnify"><title>Hacer una reserva</title><defs/><g><text fill="#000000" font-family="sans-serif" font-size="14" font-weight="bold" lengthAdjust="spacing" textLength="144.6963" x="185.645" y="22.9951">Hacer una reserva</text><ellipse cx="302.5" cy="53.2969" fill="#222222" rx="10" ry="10" style="stroke:#222222;stroke-width:1;"/><g id="Inicio"><rect fill="#F1F1F1" height="50" rx="12.5" ry="12.5" style="stroke:#181818;stroke-width:0.5;" width="57.0439" x="274" y="124.2969"/><line style="stroke:#181818;stroke-width:0.5;" x1="274" x2="331.0439" y1="150.5938" y2="150.5938"/><text fill="#000000" font-family="sans-serif" font-size="14" lengthAdjust="spacing" textLength="37.0439" x="284" y="142.292">Inicio</text></g><g id="SeleccionarMen&#250;"><rect fill="#F1F1F1" height="50" rx="12.5" ry="12.5" style="stroke:#181818;stroke-width:0.5;" width="139.499" x="233" y="251.2969"/><line style="stroke:#181818;stroke-width:0.5;" x1="233" x2="372.499" y1="277.5938" y2="277.5938"/><text fill="#000000" font-family="sans-serif" font-size="14" lengthAdjust="spacing" textLength="119.499" x="243" y="269.292">SeleccionarMen&#250;</text></g><g id="ValidarDisponibilidad"><rect fill="#F1F1F1" height="50" rx="12.5" ry="12.5" style="stroke:#181818;stroke-width:0.5;" width="168.2441" x="141.5" y="378.2969"/><line style="stroke:#181818;stroke-width:0.5;" x1="141.5" x2="309.7441" y1="404.5938" y2="404.5938"/><text fill="#000000" font-family="sans-serif" font-size="14" lengthAdjust="spacing" textLength="148.2441" x="151.5" y="396.292">ValidarDisponibilidad</text></g><g id="Error"><rect fill="#F1F1F1" height="50" rx="12.5" ry="12.5" style="stroke:#181818;stroke-width:0.5;" width="54.6787" x="276" y="505.2969"/><line style="stroke:#181818;stroke-width:0.5;" x1="276" x2="330.6787" y1="531.5938" y2="531.5938"/><text fill="#000000" font-family="sans-serif" font-size="14" lengthAdjust="spacing" textLength="34.6787" x="286" y="523.292">Error</text></g><g id="ConfirmarReserva"><rect fill="#F1F1F1" height="50" rx="12.5" ry="12.5" style="stroke:#181818;stroke-width:0.5;" width="146.6289" x="7" y="505.2969"/><line style="stroke:#181818;stroke-width:0.5;" x1="7" x2="153.6289" y1="531.5938" y2="531.5938"/><text fill="#000000" font-family="sans-serif" font-size="14" lengthAdjust="spacing" textLength="126.6289" x="17" y="523.292">ConfirmarReserva</text></g><ellipse cx="80.5" cy="643.2969" fill="none" rx="11" ry="11" style="stroke:#222222;stroke-width:1;"/><ellipse cx="80.5" cy="643.2969" fill="#222222" rx="6" ry="6" style="stroke:#222222;stroke-width:1;"/><!--link *start* to Inicio--><g id="link_*start*_Inicio"><path d="M302.5,63.3069 C302.5,77.1869 302.5,98.2669 302.5,118.1369 " fill="none" id="*start*-to-Inicio" style="stroke:#181818;stroke-width:1;"/><polygon fill="#181818" points="302.5,124.1369,306.5,115.1369,302.5,119.1369,298.5,115.1369,302.5,124.1369" style="stroke:#181818;stroke-width:1;"/></g><!--link Inicio to SeleccionarMen?--><g id="link_Inicio_SeleccionarMen&#250;"><path d="M302.5,174.3969 C302.5,196.5369 302.5,223.1569 302.5,245.2669 " fill="none" id="Inicio-to-SeleccionarMen&#250;" style="stroke:#181818;stroke-width:1;"/><polygon fill="#181818" points="302.5,251.2669,306.5,242.2669,302.5,246.2669,298.5,242.2669,302.5,251.2669" style="stroke:#181818;stroke-width:1;"/><text fill="#000000" font-family="sans-serif" font-size="13" lengthAdjust="spacing" textLength="218.4863" x="303.5" y="217.3638">El estudiante accede a los men&#250;s</text></g><!--link SeleccionarMen? to ValidarDisponibilidad--><g id="link_SeleccionarMen&#250;_ValidarDisponibilidad"><path d="M284.7,301.3669 C278.12,310.5769 270.75,321.2769 264.5,331.2969 C254.97,346.5669 248.0259,359.0134 240.6559,372.9434 " fill="none" id="SeleccionarMen&#250;-to-ValidarDisponibilidad" style="stroke:#181818;stroke-width:1;"/><polygon fill="#181818" points="237.85,378.2469,245.5945,372.1623,240.1883,373.8273,238.5232,368.4211,237.85,378.2469" style="stroke:#181818;stroke-width:1;"/><text fill="#000000" font-family="sans-serif" font-size="13" lengthAdjust="spacing" textLength="87.6104" x="265.5" y="344.3638">Escoge men&#250;</text></g><!--link ValidarDisponibilidad to Error--><g id="link_ValidarDisponibilidad_Error"><path d="M220.14,428.3169 C218.18,442.7369 218.01,460.9969 225.5,475.2969 C236.05,495.4269 252.499,506.9131 270.389,515.6531 " fill="none" id="ValidarDisponibilidad-to-Error" style="stroke:#181818;stroke-width:1;"/><polygon fill="#181818" points="275.78,518.2869,269.4493,510.7422,271.2875,516.0921,265.9376,517.9303,275.78,518.2869" style="stroke:#181818;stroke-width:1;"/><text fill="#000000" font-family="sans-serif" font-size="13" lengthAdjust="spacing" textLength="126.7056" x="226.5" y="471.3638">Men&#250; no disponible</text></g><!--link Error to SeleccionarMen?--><g id="link_Error_SeleccionarMen&#250;"><path d="M331.28,509.2869 C341.55,500.2069 352.02,488.5269 357.5,475.2969 C381.99,416.1669 382.26,390.3169 357.5,331.2969 C352.74,319.9469 348.6515,313.8972 339.7915,305.5272 " fill="none" id="Error-to-SeleccionarMen&#250;" style="stroke:#181818;stroke-width:1;"/><polygon fill="#181818" points="335.43,301.4069,339.2254,310.495,339.0646,304.8405,344.7192,304.6797,335.43,301.4069" style="stroke:#181818;stroke-width:1;"/><text fill="#000000" font-family="sans-serif" font-size="13" lengthAdjust="spacing" textLength="118.0918" x="376.5" y="407.8638">Escoge otro men&#250;</text></g><!--link ValidarDisponibilidad to ConfirmarReserva--><g id="link_ValidarDisponibilidad_ConfirmarReserva"><path d="M144.96,428.3769 C129.61,435.9469 114.82,445.7369 103.5,458.2969 C91.87,471.1969 87.2371,484.1418 84.3871,499.1818 " fill="none" id="ValidarDisponibilidad-to-ConfirmarReserva" style="stroke:#181818;stroke-width:1;"/><polygon fill="#181818" points="83.27,505.0769,88.8757,496.979,84.2009,500.1643,81.0156,495.4895,83.27,505.0769" style="stroke:#181818;stroke-width:1;"/><text fill="#000000" font-family="sans-serif" font-size="13" lengthAdjust="spacing" textLength="106.3804" x="104.5" y="471.3638">Men&#250; disponible</text></g><!--link ConfirmarReserva to *end*--><g id="link_ConfirmarReserva_*end*"><path d="M80.5,555.3869 C80.5,579.3569 80.5,608.9969 80.5,626.2369 " fill="none" id="ConfirmarReserva-to-*end*" style="stroke:#181818;stroke-width:1;"/><polygon fill="#181818" points="80.5,632.2369,84.5,623.2369,80.5,627.2369,76.5,623.2369,80.5,632.2369" style="stroke:#181818;stroke-width:1;"/><text fill="#000000" font-family="sans-serif" font-size="13" lengthAdjust="spacing" textLength="130.6602" x="81.5" y="598.3638">Reserva confirmada</text></g><!--SRC=[VP0z2W9138NxEKLgOIzWOQCBMjWes8X5d8aI61F9p7euMo_cZhEAu4yLadpllP3CEHBCqPD19mX6YUo2RZlQGTDCO27iMPshzJ5QKoJVDuAs9BbTOGnj14gv2uoI2T1x2ds1g0bE1KdkGrISDXWveCqudLLupwKBnIvvFLALkkzGaRTcQZrU3KKX34maLtU_pgt-cas7a3yfKvK3smbjLL_p2dnB-s2AiBnm3C-97v20Tm00]--></g></svg>