<svg xmlns="http://www.w3.org/2000/svg" xmlns:xlink="http://www.w3.org/1999/xlink" contentStyleType="text/css" height="898px" preserveAspectRatio="none" style="width:449px;height:898px;background:#FFFFFF;" version="1.1" viewBox="0 0 449 898" width="449px" zoomAndPan="magnify"><title>Actualizar Perfil del Estudiante</title><defs/><g><text fill="#000000" font-family="sans-serif" font-size="14" font-weight="bold" lengthAdjust="spacing" textLength="245.6016" x="95.0203" y="22.9951">Actualizar Perfil del Estudiante</text><ellipse cx="236" cy="53.2969" fill="#222222" rx="10" ry="10" style="stroke:#222222;stroke-width:1;"/><g id="Inicio"><rect fill="#F1F1F1" height="50" rx="12.5" ry="12.5" style="stroke:#181818;stroke-width:0.5;" width="57.0439" x="207.5" y="124.2969"/><line style="stroke:#181818;stroke-width:0.5;" x1="207.5" x2="264.5439" y1="150.5938" y2="150.5938"/><text fill="#000000" font-family="sans-serif" font-size="14" lengthAdjust="spacing" textLength="37.0439" x="217.5" y="142.292">Inicio</text></g><g id="AccederPerfil"><rect fill="#F1F1F1" height="50" rx="12.5" ry="12.5" style="stroke:#181818;stroke-width:0.5;" width="112.3604" x="180" y="251.2969"/><line style="stroke:#181818;stroke-width:0.5;" x1="180" x2="292.3604" y1="277.5938" y2="277.5938"/><text fill="#000000" font-family="sans-serif" font-size="14" lengthAdjust="spacing" textLength="92.3604" x="190" y="269.292">AccederPerfil</text></g><g id="RellenarFormulario"><rect fill="#F1F1F1" height="50" rx="12.5" ry="12.5" style="stroke:#181818;stroke-width:0.5;" width="153.5059" x="159" y="378.2969"/><line style="stroke:#181818;stroke-width:0.5;" x1="159" x2="312.5059" y1="404.5938" y2="404.5938"/><text fill="#000000" font-family="sans-serif" font-size="14" lengthAdjust="spacing" textLength="133.5059" x="169" y="396.292">RellenarFormulario</text></g><g id="ValidarDatos"><rect fill="#F1F1F1" height="50" rx="12.5" ry="12.5" style="stroke:#181818;stroke-width:0.5;" width="109.8652" x="87" y="505.2969"/><line style="stroke:#181818;stroke-width:0.5;" x1="87" x2="196.8652" y1="531.5938" y2="531.5938"/><text fill="#000000" font-family="sans-serif" font-size="14" lengthAdjust="spacing" textLength="89.8652" x="97" y="523.292">ValidarDatos</text></g><g id="Error"><rect fill="#F1F1F1" height="50" rx="12.5" ry="12.5" style="stroke:#181818;stroke-width:0.5;" width="54.6787" x="241.5" y="632.2969"/><line style="stroke:#181818;stroke-width:0.5;" x1="241.5" x2="296.1787" y1="658.5938" y2="658.5938"/><text fill="#000000" font-family="sans-serif" font-size="14" lengthAdjust="spacing" textLength="34.6787" x="251.5" y="650.292">Error</text></g><g id="GuardarCambios"><rect fill="#F1F1F1" height="50" rx="12.5" ry="12.5" style="stroke:#181818;stroke-width:0.5;" width="137.9063" x="8" y="632.2969"/><line style="stroke:#181818;stroke-width:0.5;" x1="8" x2="145.9063" y1="658.5938" y2="658.5938"/><text fill="#000000" font-family="sans-serif" font-size="14" lengthAdjust="spacing" textLength="117.9063" x="18" y="650.292">GuardarCambios</text></g><g id="ConfirmarEdici&#243;n"><rect fill="#F1F1F1" height="50" rx="12.5" ry="12.5" style="stroke:#181818;stroke-width:0.5;" width="140.4082" x="7" y="759.2969"/><line style="stroke:#181818;stroke-width:0.5;" x1="7" x2="147.4082" y1="785.5938" y2="785.5938"/><text fill="#000000" font-family="sans-serif" font-size="14" lengthAdjust="spacing" textLength="120.4082" x="17" y="777.292">ConfirmarEdici&#243;n</text></g><ellipse cx="77" cy="881.2969" fill="none" rx="11" ry="11" style="stroke:#222222;stroke-width:1;"/><ellipse cx="77" cy="881.2969" fill="#222222" rx="6" ry="6" style="stroke:#222222;stroke-width:1;"/><!--link *start* to Inicio--><g id="link_*start*_Inicio"><path d="M236,63.3069 C236,77.1869 236,98.2669 236,118.1369 " fill="none" id="*start*-to-Inicio" style="stroke:#181818;stroke-width:1;"/><polygon fill="#181818" points="236,124.1369,240,115.1369,236,119.1369,232,115.1369,236,124.1369" style="stroke:#181818;stroke-width:1;"/></g><!--link Inicio to AccederPerfil--><g id="link_Inicio_AccederPerfil"><path d="M236,174.3969 C236,196.5369 236,223.1569 236,245.2669 " fill="none" id="Inicio-to-AccederPerfil" style="stroke:#181818;stroke-width:1;"/><polygon fill="#181818" points="236,251.2669,240,242.2669,236,246.2669,232,242.2669,236,251.2669" style="stroke:#181818;stroke-width:1;"/><text fill="#000000" font-family="sans-serif" font-size="13" lengthAdjust="spacing" textLength="204.6421" x="237" y="217.3638">El estudiante accede a su perfil</text></g><!--link AccederPerfil to RellenarFormulario--><g id="link_AccederPerfil_RellenarFormulario"><path d="M236,301.3969 C236,323.5369 236,350.1569 236,372.2669 " fill="none" id="AccederPerfil-to-RellenarFormulario" style="stroke:#181818;stroke-width:1;"/><polygon fill="#181818" points="236,378.2669,240,369.2669,236,373.2669,232,369.2669,236,378.2669" style="stroke:#181818;stroke-width:1;"/><text fill="#000000" font-family="sans-serif" font-size="13" lengthAdjust="spacing" textLength="149.8555" x="237" y="344.3638">Selecciona editar perfil</text></g><!--link RellenarFormulario to ValidarDatos--><g id="link_RellenarFormulario_ValidarDatos"><path d="M170.08,428.4169 C157.68,436.0369 146.33,445.8369 139,458.2969 C130.81,472.2269 130.6141,484.6132 133.5141,499.1232 " fill="none" id="RellenarFormulario-to-ValidarDatos" style="stroke:#181818;stroke-width:1;"/><polygon fill="#181818" points="134.69,505.0069,136.8486,495.3975,133.7101,500.1038,129.0037,496.9654,134.69,505.0069" style="stroke:#181818;stroke-width:1;"/><text fill="#000000" font-family="sans-serif" font-size="13" lengthAdjust="spacing" textLength="163.7441" x="140" y="471.3638">Introduce modificaciones</text></g><!--link ValidarDatos to Error--><g id="link_ValidarDatos_Error"><path d="M161.07,555.5669 C172.63,569.7369 188,587.6569 203,602.2969 C214.97,613.9869 224.5223,622.157 236.7223,631.797 " fill="none" id="ValidarDatos-to-Error" style="stroke:#181818;stroke-width:1;"/><polygon fill="#181818" points="241.43,635.5169,236.8483,626.7986,237.5069,632.417,231.8885,633.0756,241.43,635.5169" style="stroke:#181818;stroke-width:1;"/><text fill="#000000" font-family="sans-serif" font-size="13" lengthAdjust="spacing" textLength="99.6455" x="204" y="598.3638">Datos inv&#225;lidos</text></g><!--link Error to RellenarFormulario--><g id="link_Error_RellenarFormulario"><path d="M291.45,632.0369 C298.11,623.3069 304.55,612.9669 308,602.2969 C327.69,541.3969 336.62,515.5369 308,458.2969 C302.06,446.4169 296.9246,440.0841 286.3046,432.0941 " fill="none" id="Error-to-RellenarFormulario" style="stroke:#181818;stroke-width:1;"/><polygon fill="#181818" points="281.51,428.4869,286.2971,437.0941,285.5055,431.4929,291.1067,430.7013,281.51,428.4869" style="stroke:#181818;stroke-width:1;"/><text fill="#000000" font-family="sans-serif" font-size="13" lengthAdjust="spacing" textLength="87.7563" x="327" y="534.8638">Corrige datos</text></g><!--link ValidarDatos to GuardarCambios--><g id="link_ValidarDatos_GuardarCambios"><path d="M99.68,555.3869 C89.38,563.4669 79.7,573.4869 74,585.2969 C67.03,599.7369 66.8527,611.9208 69.4127,626.2208 " fill="none" id="ValidarDatos-to-GuardarCambios" style="stroke:#181818;stroke-width:1;"/><polygon fill="#181818" points="70.47,632.1269,72.8214,622.5628,69.5889,627.2051,64.9466,623.9726,70.47,632.1269" style="stroke:#181818;stroke-width:1;"/><text fill="#000000" font-family="sans-serif" font-size="13" lengthAdjust="spacing" textLength="87.7944" x="75" y="598.3638">Datos v&#225;lidos</text></g><!--link GuardarCambios to ConfirmarEdici?n--><g id="link_GuardarCambios_ConfirmarEdici&#243;n"><path d="M77,682.3969 C77,704.5369 77,731.1569 77,753.2669 " fill="none" id="GuardarCambios-to-ConfirmarEdici&#243;n" style="stroke:#181818;stroke-width:1;"/><polygon fill="#181818" points="77,759.2669,81,750.2669,77,754.2669,73,750.2669,77,759.2669" style="stroke:#181818;stroke-width:1;"/><text fill="#000000" font-family="sans-serif" font-size="13" lengthAdjust="spacing" textLength="204.9722" x="78" y="725.3638">Perfil actualizado exitosamente</text></g><!--link ConfirmarEdici?n to *end*--><g id="link_ConfirmarEdici&#243;n_*end*"><path d="M77,809.7569 C77,829.3369 77,849.7869 77,864.0969 " fill="none" id="ConfirmarEdici&#243;n-to-*end*" style="stroke:#181818;stroke-width:1;"/><polygon fill="#181818" points="77,870.0969,81,861.0969,77,865.0969,73,861.0969,77,870.0969" style="stroke:#181818;stroke-width:1;"/></g><!--SRC=[TP51IaGn38RtFKNMmbnW5iBmVChiHC6Dk8XjdWJQHj9MnDju1eym5pDzxpamZguAoVzzJPlADHBiV6qO-GCLRaadZX0embXg2uovadEF5q-msLp2FhDdSMuvvzBEUmgaAxY5CG8TIS2v2mYbmUiSSQT0LznHZ9HHhqLJYwXcti8zHV9sIKQWmDLcM_a_qbtoO2y8g5TOfHY-prKbD4-G9F347hkBYZl9TN1K5JLYgN1-EtnQGefR6lyEE8Wgln24phbpxqr3jSA0wPddaPRMKV-htv51yiIQKCTW_tluoaQj_uG_Eme2zCvcmaHzD-TCDzd2lW40]--></g></svg>